<svg xmlns="http://www.w3.org/2000/svg" xmlns:xlink="http://www.w3.org/1999/xlink" width="1200" zoomAndPan="magnify" viewBox="0 0 900 1199.999942" height="1600" preserveAspectRatio="xMidYMid meet" version="1.0"><defs><g/><clipPath id="a8928b8479"><path d="M 130 553.617188 L 370 553.617188 L 370 610.617188 L 130 610.617188 Z M 130 553.617188 " clip-rule="nonzero"/></clipPath><clipPath id="95aa5f34d9"><path d="M 534 539 L 778 539 L 778 577 L 534 577 Z M 534 539 " clip-rule="nonzero"/></clipPath><clipPath id="e91eb9b87a"><path d="M 538.785156 519.800781 L 779.492188 539.328125 L 774.882812 596.144531 L 534.175781 576.613281 Z M 538.785156 519.800781 " clip-rule="nonzero"/></clipPath><clipPath id="35bc064683"><path d="M 774.582031 596.402344 L 533.871094 576.871094 L 538.480469 520.054688 L 779.191406 539.585938 Z M 774.582031 596.402344 " clip-rule="nonzero"/></clipPath><clipPath id="04a3beae73"><path d="M 774.582031 596.402344 L 533.871094 576.871094 L 538.480469 520.054688 L 779.191406 539.585938 Z M 774.582031 596.402344 " clip-rule="nonzero"/></clipPath></defs><rect x="-90" width="1080" fill="#ffffff" y="-119.999994" height="1439.999931" fill-opacity="1"/><rect x="-90" width="1080" fill="#ffffff" y="-119.999994" height="1439.999931" fill-opacity="1"/><g clip-path="url(#a8928b8479)"><path fill="#000000" d="M 137.359375 608.539062 C 137.953125 607.167969 137.722656 605.492188 136.746094 604.484375 C 136.648438 604.386719 136.550781 604.253906 136.4375 604.175781 C 136.246094 604.0625 136.054688 603.890625 135.84375 603.71875 C 135.84375 603.71875 135.824219 603.703125 135.824219 603.679688 C 135.804688 603.679688 135.804688 603.679688 135.804688 603.679688 C 134.941406 602.863281 134.117188 601.566406 133.601562 600.59375 C 133.582031 600.023438 133.617188 599.375 133.714844 598.632812 C 134.117188 594.839844 137.222656 590.894531 143.03125 586.742188 C 146.3125 584.320312 150.433594 582.015625 155.417969 579.824219 C 160.59375 577.613281 166.84375 575.6875 174.167969 574.089844 C 190.042969 570.734375 205.359375 569.914062 220.140625 571.632812 C 234.710938 573.363281 249.664062 574.964844 265.042969 576.414062 C 273.457031 577.367188 281.972656 577.902344 290.523438 578.015625 C 299.074219 578.128906 308.082031 577.578125 317.515625 576.355469 C 338.050781 573.726562 353.269531 568.984375 363.144531 562.121094 C 365.390625 560.519531 367.429688 559.109375 369.3125 557.859375 C 369.5 557.160156 369.703125 556.464844 369.902344 555.769531 C 369.8125 555.050781 369.714844 554.335938 369.609375 553.617188 C 367.285156 555.222656 364.632812 557.035156 361.554688 559.132812 C 351.429688 565.800781 336.746094 570.394531 317.417969 572.890625 C 301.007812 575.082031 285.363281 575.097656 270.5625 572.964844 C 255.550781 570.851562 240.484375 569.269531 225.375 568.199219 C 217.191406 567.648438 208.832031 567.496094 200.320312 567.800781 C 191.824219 568.085938 183.101562 569.25 174.148438 571.230469 C 165.40625 573.210938 158.140625 575.460938 152.371094 577.9375 C 146.828125 580.605469 142.4375 583.253906 139.179688 585.882812 C 132.890625 591.125 129.863281 596.003906 130.148438 600.539062 L 130.324219 602.082031 C 130.359375 602.5 130.417969 602.882812 130.496094 603.242188 C 130.550781 604.140625 130.550781 605.054688 130.457031 605.855469 C 130.398438 606.425781 130.4375 607.015625 130.496094 607.589844 C 130.648438 609.019531 132.164062 610.390625 133.8125 610.597656 " fill-opacity="1" fill-rule="nonzero"/></g><g fill="#000000" fill-opacity="1"><g transform="translate(365.848232, 615.824748)"><g><path d="M 1.523438 -61.296875 C -4.949219 -34.265625 -4.570312 21.128906 16.941406 17.894531 C 24.746094 16.75 39.40625 0 48.351562 -16.75 C 65.105469 -12.945312 84.332031 -25.316406 98.796875 -44.542969 C 98.796875 -45.496094 95.75 -45.304688 94.992188 -44.355469 C 84.902344 -30.457031 64.53125 -15.417969 49.683594 -19.605469 C 64.722656 -51.589844 63.007812 -72.910156 50.253906 -75.574219 C 26.839844 -77.859375 19.605469 -31.21875 45.117188 -18.085938 C 35.21875 1.523438 22.460938 13.707031 16.941406 14.65625 C 6.664062 16.371094 7.425781 -29.695312 15.230469 -62.628906 C 17.511719 -71.957031 3.996094 -71.957031 1.523438 -61.296875 Z M 46.449219 -20.941406 C 23.035156 -33.503906 31.980469 -74.429688 49.113281 -73.097656 C 61.296875 -70.816406 59.773438 -47.589844 46.449219 -20.941406 Z M 46.449219 -20.941406 "/></g></g></g><g fill="#000000" fill-opacity="1"><g transform="translate(460.075428, 615.824748)"><g><path d="M 26.269531 24.367188 C 43.402344 11.613281 67.578125 -31.027344 78.046875 -44.734375 C 78.046875 -45.6875 75.574219 -45.6875 74.8125 -44.925781 C 66.625 -34.457031 39.214844 12.5625 22.84375 23.414062 C 2.285156 36.550781 6.851562 -2.476562 7.996094 -13.136719 C 9.519531 -28.746094 12.5625 -45.117188 14.46875 -52.921875 C 76.714844 -122.78125 69.292969 -159.714844 50.066406 -159.714844 C 26.652344 -159.714844 9.328125 -113.074219 1.714844 -65.292969 C -1.332031 -46.066406 -2.664062 -26.460938 -2.285156 -9.898438 C -2.09375 -0.570312 -2.09375 29.886719 13.136719 29.886719 C 16.75 29.886719 21.128906 28.171875 26.269531 24.367188 Z M 15.039062 -57.871094 C 19.796875 -101.273438 35.40625 -154.765625 49.113281 -156.859375 C 65.292969 -158.191406 72.148438 -126.019531 15.039062 -57.871094 Z M 15.039062 -57.871094 "/></g></g></g><g clip-path="url(#95aa5f34d9)"><g clip-path="url(#e91eb9b87a)"><g clip-path="url(#35bc064683)"><g clip-path="url(#04a3beae73)"><path fill="#000000" d="M 770.804688 540.992188 C 770.101562 542.308594 770.195312 544 771.089844 545.085938 C 771.175781 545.1875 771.261719 545.328125 771.371094 545.414062 C 771.550781 545.542969 771.730469 545.730469 771.925781 545.917969 C 771.925781 545.917969 771.945312 545.9375 771.941406 545.957031 C 771.960938 545.960938 771.960938 545.960938 771.960938 545.960938 C 772.753906 546.847656 773.472656 548.203125 773.910156 549.214844 C 773.882812 549.785156 773.792969 550.429688 773.636719 551.160156 C 772.929688 554.910156 769.511719 558.589844 763.386719 562.257812 C 759.925781 564.40625 755.628906 566.371094 750.484375 568.152344 C 745.144531 569.9375 738.761719 571.351562 731.332031 572.351562 C 715.238281 574.410156 699.902344 573.988281 685.308594 571.085938 C 670.925781 568.179688 656.152344 565.375 640.941406 562.6875 C 632.628906 561.054688 624.1875 559.835938 615.675781 559.03125 C 607.160156 558.226562 598.136719 558.046875 588.636719 558.5 C 567.957031 559.460938 552.402344 562.957031 542.003906 568.996094 C 539.636719 570.414062 537.492188 571.652344 535.511719 572.75 C 535.269531 573.429688 535.011719 574.105469 534.753906 574.785156 C 534.785156 575.507812 534.828125 576.226562 534.875 576.949219 C 537.320312 575.539062 540.109375 573.949219 543.347656 572.109375 C 553.976562 566.277344 568.988281 562.890625 588.449219 561.964844 C 604.984375 561.105469 620.578125 562.351562 635.160156 565.675781 C 649.949219 569 664.84375 571.792969 679.8125 574.082031 C 687.929688 575.292969 696.246094 576.121094 704.757812 576.503906 C 713.246094 576.90625 722.035156 576.453125 731.117188 575.203125 C 739.992188 573.933594 747.417969 572.28125 753.367188 570.277344 C 759.105469 568.066406 763.695312 565.785156 767.15625 563.425781 C 773.847656 558.710938 777.261719 554.09375 777.34375 549.550781 L 777.296875 548 C 777.292969 547.578125 777.265625 547.191406 777.21875 546.824219 C 777.234375 545.929688 777.308594 545.015625 777.46875 544.226562 C 777.570312 543.660156 777.582031 543.070312 777.570312 542.496094 C 777.53125 541.058594 776.132812 539.566406 774.507812 539.226562 " fill-opacity="1" fill-rule="nonzero"/></g></g></g></g><g fill="#000000" fill-opacity="1"><g transform="translate(206.46451, 720.105238)"><g><path d="M 38 -35.515625 C 38.113281 -35.515625 38.171875 -35.398438 38.171875 -35.171875 C 38.171875 -34.941406 38.113281 -34.828125 38 -34.828125 C 36.71875 -34.828125 35.601562 -34.484375 34.65625 -33.796875 C 33.707031 -33.117188 32.910156 -31.96875 32.265625 -30.34375 L 20.171875 -0.0625 C 20.128906 0.09375 19.921875 0.171875 19.546875 0.171875 C 19.242188 0.171875 19.035156 0.09375 18.921875 -0.0625 L 4.765625 -30.796875 C 4.128906 -32.273438 3.445312 -33.316406 2.71875 -33.921875 C 2 -34.523438 1.070312 -34.828125 -0.0625 -34.828125 C -0.175781 -34.828125 -0.234375 -34.941406 -0.234375 -35.171875 C -0.234375 -35.398438 -0.175781 -35.515625 -0.0625 -35.515625 L 2.109375 -35.453125 C 3.160156 -35.378906 4.007812 -35.34375 4.65625 -35.34375 C 6.175781 -35.34375 7.804688 -35.378906 9.546875 -35.453125 L 11.875 -35.515625 C 11.988281 -35.515625 12.046875 -35.398438 12.046875 -35.171875 C 12.046875 -34.941406 11.988281 -34.828125 11.875 -34.828125 C 9.519531 -34.828125 8.34375 -34.164062 8.34375 -32.84375 C 8.34375 -32.382812 8.515625 -31.773438 8.859375 -31.015625 L 20.734375 -5 L 30.96875 -30.625 C 31.269531 -31.414062 31.421875 -32.039062 31.421875 -32.5 C 31.421875 -33.289062 31.0625 -33.875 30.34375 -34.25 C 29.625 -34.632812 28.503906 -34.828125 26.984375 -34.828125 C 26.867188 -34.828125 26.8125 -34.941406 26.8125 -35.171875 C 26.8125 -35.398438 26.867188 -35.515625 26.984375 -35.515625 L 29.421875 -35.453125 C 30.710938 -35.378906 31.890625 -35.34375 32.953125 -35.34375 C 33.742188 -35.34375 34.632812 -35.378906 35.625 -35.453125 Z M 38 -35.515625 "/></g></g></g><g fill="#000000" fill-opacity="1"><g transform="translate(251.80387, 720.105238)"><g><path d="M 11.3125 -4.609375 C 11.3125 -3.460938 11.421875 -2.613281 11.640625 -2.0625 C 11.867188 -1.519531 12.3125 -1.15625 12.96875 -0.96875 C 13.632812 -0.78125 14.691406 -0.6875 16.140625 -0.6875 C 16.253906 -0.6875 16.3125 -0.570312 16.3125 -0.34375 C 16.3125 -0.113281 16.253906 0 16.140625 0 C 15.003906 0 14.09375 -0.0195312 13.40625 -0.0625 L 9.375 -0.109375 L 5.453125 -0.0625 C 4.773438 -0.0195312 3.847656 0 2.671875 0 C 2.554688 0 2.5 -0.113281 2.5 -0.34375 C 2.5 -0.570312 2.554688 -0.6875 2.671875 -0.6875 C 4.109375 -0.6875 5.15625 -0.78125 5.8125 -0.96875 C 6.476562 -1.15625 6.9375 -1.519531 7.1875 -2.0625 C 7.4375 -2.613281 7.5625 -3.460938 7.5625 -4.609375 L 7.5625 -30.90625 C 7.5625 -32.039062 7.4375 -32.875 7.1875 -33.40625 C 6.9375 -33.9375 6.476562 -34.304688 5.8125 -34.515625 C 5.15625 -34.722656 4.109375 -34.828125 2.671875 -34.828125 C 2.554688 -34.828125 2.5 -34.941406 2.5 -35.171875 C 2.5 -35.398438 2.554688 -35.515625 2.671875 -35.515625 L 5.453125 -35.453125 C 7.046875 -35.378906 8.351562 -35.34375 9.375 -35.34375 C 10.507812 -35.34375 11.875 -35.378906 13.46875 -35.453125 L 16.140625 -35.515625 C 16.253906 -35.515625 16.3125 -35.398438 16.3125 -35.171875 C 16.3125 -34.941406 16.253906 -34.828125 16.140625 -34.828125 C 14.734375 -34.828125 13.695312 -34.710938 13.03125 -34.484375 C 12.375 -34.253906 11.921875 -33.863281 11.671875 -33.3125 C 11.429688 -32.769531 11.3125 -31.929688 11.3125 -30.796875 Z M 11.3125 -4.609375 "/></g></g></g><g fill="#000000" fill-opacity="1"><g transform="translate(278.167324, 720.105238)"><g><path d="M 20.796875 0.6875 C 17.273438 0.6875 14.140625 -0.132812 11.390625 -1.78125 C 8.640625 -3.4375 6.515625 -5.671875 5.015625 -8.484375 C 3.523438 -11.304688 2.78125 -14.382812 2.78125 -17.71875 C 2.78125 -21.625 3.765625 -24.96875 5.734375 -27.75 C 7.703125 -30.53125 10.226562 -32.617188 13.3125 -34.015625 C 16.40625 -35.421875 19.5625 -36.125 22.78125 -36.125 C 26.375 -36.125 29.535156 -35.28125 32.265625 -33.59375 C 34.992188 -31.914062 37.085938 -29.691406 38.546875 -26.921875 C 40.003906 -24.160156 40.734375 -21.226562 40.734375 -18.125 C 40.734375 -14.675781 39.820312 -11.507812 38 -8.625 C 36.1875 -5.75 33.753906 -3.476562 30.703125 -1.8125 C 27.660156 -0.144531 24.359375 0.6875 20.796875 0.6875 Z M 22.78125 -0.515625 C 25.351562 -0.515625 27.671875 -1.140625 29.734375 -2.390625 C 31.804688 -3.640625 33.4375 -5.472656 34.625 -7.890625 C 35.820312 -10.316406 36.421875 -13.195312 36.421875 -16.53125 C 36.421875 -20.09375 35.753906 -23.253906 34.421875 -26.015625 C 33.097656 -28.785156 31.234375 -30.945312 28.828125 -32.5 C 26.421875 -34.050781 23.609375 -34.828125 20.390625 -34.828125 C 16.222656 -34.828125 12.96875 -33.484375 10.625 -30.796875 C 8.28125 -28.109375 7.109375 -24.414062 7.109375 -19.71875 C 7.109375 -16.15625 7.769531 -12.90625 9.09375 -9.96875 C 10.414062 -7.03125 12.269531 -4.71875 14.65625 -3.03125 C 17.039062 -1.351562 19.75 -0.515625 22.78125 -0.515625 Z M 22.78125 -0.515625 "/></g></g></g><g fill="#000000" fill-opacity="1"><g transform="translate(329.188074, 720.105238)"><g><path d="M 10.515625 -4.828125 C 10.515625 -3.734375 10.625 -2.9375 10.84375 -2.4375 C 11.070312 -1.945312 11.488281 -1.613281 12.09375 -1.4375 C 12.707031 -1.269531 13.695312 -1.1875 15.0625 -1.1875 L 21.25 -1.1875 C 23.40625 -1.1875 25.125 -1.847656 26.40625 -3.171875 C 27.695312 -4.503906 28.550781 -6.34375 28.96875 -8.6875 C 28.96875 -8.800781 29.070312 -8.847656 29.28125 -8.828125 C 29.488281 -8.816406 29.59375 -8.753906 29.59375 -8.640625 C 29.257812 -5.492188 29.09375 -2.898438 29.09375 -0.859375 C 29.09375 -0.546875 29.035156 -0.320312 28.921875 -0.1875 C 28.804688 -0.0625 28.578125 0 28.234375 0 L 1.984375 0 C 1.910156 0 1.875 -0.113281 1.875 -0.34375 C 1.875 -0.570312 1.910156 -0.6875 1.984375 -0.6875 C 3.421875 -0.6875 4.472656 -0.78125 5.140625 -0.96875 C 5.804688 -1.15625 6.25 -1.519531 6.46875 -2.0625 C 6.695312 -2.613281 6.8125 -3.460938 6.8125 -4.609375 L 6.8125 -30.90625 C 6.8125 -32.039062 6.695312 -32.875 6.46875 -33.40625 C 6.25 -33.9375 5.804688 -34.304688 5.140625 -34.515625 C 4.472656 -34.722656 3.421875 -34.828125 1.984375 -34.828125 C 1.910156 -34.828125 1.875 -34.941406 1.875 -35.171875 C 1.875 -35.398438 1.910156 -35.515625 1.984375 -35.515625 L 4.765625 -35.453125 C 6.359375 -35.378906 7.648438 -35.34375 8.640625 -35.34375 C 9.691406 -35.34375 11.015625 -35.378906 12.609375 -35.453125 L 15.34375 -35.515625 C 15.457031 -35.515625 15.515625 -35.398438 15.515625 -35.171875 C 15.515625 -34.941406 15.457031 -34.828125 15.34375 -34.828125 C 13.9375 -34.828125 12.898438 -34.722656 12.234375 -34.515625 C 11.578125 -34.304688 11.125 -33.925781 10.875 -33.375 C 10.632812 -32.820312 10.515625 -31.976562 10.515625 -30.84375 Z M 10.515625 -4.828125 "/></g></g></g><g fill="#000000" fill-opacity="1"><g transform="translate(366.971144, 720.105238)"><g><path d="M 39.71875 -0.6875 C 39.863281 -0.6875 39.9375 -0.570312 39.9375 -0.34375 C 39.9375 -0.113281 39.863281 0 39.71875 0 C 38.988281 0 37.867188 -0.0351562 36.359375 -0.109375 C 34.847656 -0.191406 33.75 -0.234375 33.0625 -0.234375 C 32.226562 -0.234375 31.171875 -0.191406 29.890625 -0.109375 C 28.671875 -0.0351562 27.738281 0 27.09375 0 C 26.945312 0 26.875 -0.113281 26.875 -0.34375 C 26.875 -0.570312 26.945312 -0.6875 27.09375 -0.6875 C 28.5 -0.6875 29.523438 -0.816406 30.171875 -1.078125 C 30.816406 -1.347656 31.140625 -1.800781 31.140625 -2.4375 C 31.140625 -2.96875 30.890625 -3.785156 30.390625 -4.890625 L 25.34375 -15.625 L 11.8125 -15.625 L 8.234375 -7.21875 C 7.703125 -5.925781 7.4375 -4.882812 7.4375 -4.09375 C 7.4375 -2.914062 7.898438 -2.050781 8.828125 -1.5 C 9.753906 -0.957031 11.148438 -0.6875 13.015625 -0.6875 C 13.203125 -0.6875 13.296875 -0.570312 13.296875 -0.34375 C 13.296875 -0.113281 13.203125 0 13.015625 0 C 12.328125 0 11.34375 -0.0351562 10.0625 -0.109375 C 8.613281 -0.191406 7.363281 -0.234375 6.3125 -0.234375 C 5.320312 -0.234375 4.179688 -0.191406 2.890625 -0.109375 C 1.753906 -0.0351562 0.8125 0 0.0625 0 C -0.132812 0 -0.234375 -0.113281 -0.234375 -0.34375 C -0.234375 -0.570312 -0.132812 -0.6875 0.0625 -0.6875 C 1.113281 -0.6875 2.007812 -0.882812 2.75 -1.28125 C 3.488281 -1.675781 4.191406 -2.375 4.859375 -3.375 C 5.523438 -4.382812 6.253906 -5.832031 7.046875 -7.71875 L 19.03125 -36.015625 C 19.101562 -36.128906 19.234375 -36.1875 19.421875 -36.1875 C 19.617188 -36.1875 19.734375 -36.128906 19.765625 -36.015625 L 33.171875 -7.78125 C 34.460938 -4.976562 35.5625 -3.09375 36.46875 -2.125 C 37.382812 -1.164062 38.46875 -0.6875 39.71875 -0.6875 Z M 12.265625 -16.765625 L 24.828125 -16.765625 L 18.1875 -30.796875 Z M 12.265625 -16.765625 "/></g></g></g><g fill="#000000" fill-opacity="1"><g transform="translate(414.355785, 720.105238)"><g/></g></g><g fill="#000000" fill-opacity="1"><g transform="translate(435.151451, 720.105238)"><g><path d="M 39.59375 -0.6875 C 39.75 -0.644531 39.816406 -0.519531 39.796875 -0.3125 C 39.773438 -0.101562 39.707031 0 39.59375 0 L 33.46875 0 C 31.757812 0 29.160156 -1.34375 25.671875 -4.03125 C 22.609375 -0.882812 18.785156 0.6875 14.203125 0.6875 C 11.859375 0.6875 9.898438 0.289062 8.328125 -0.5 C 6.753906 -1.300781 5.578125 -2.34375 4.796875 -3.625 C 4.023438 -4.914062 3.640625 -6.300781 3.640625 -7.78125 C 3.640625 -9.9375 4.3125 -11.816406 5.65625 -13.421875 C 7 -15.035156 8.9375 -16.773438 11.46875 -18.640625 C 10.789062 -19.660156 10.242188 -20.601562 9.828125 -21.46875 C 8.734375 -23.894531 8.1875 -25.960938 8.1875 -27.671875 C 8.1875 -29.296875 8.582031 -30.800781 9.375 -32.1875 C 10.164062 -33.570312 11.28125 -34.671875 12.71875 -35.484375 C 14.164062 -36.296875 15.796875 -36.703125 17.609375 -36.703125 C 19.429688 -36.703125 20.992188 -36.265625 22.296875 -35.390625 C 23.609375 -34.523438 24.265625 -33.085938 24.265625 -31.078125 C 24.265625 -29.597656 23.894531 -28.269531 23.15625 -27.09375 C 22.414062 -25.925781 21.503906 -24.894531 20.421875 -24 C 19.347656 -23.113281 17.898438 -22.0625 16.078125 -20.84375 C 15.816406 -20.695312 15.421875 -20.4375 14.890625 -20.0625 C 17.503906 -15.851562 21.535156 -11.628906 26.984375 -7.390625 C 28.304688 -9.691406 28.96875 -12.25 28.96875 -15.0625 C 28.96875 -16.414062 28.691406 -17.429688 28.140625 -18.109375 C 27.597656 -18.796875 26.53125 -19.140625 24.9375 -19.140625 C 24.820312 -19.140625 24.753906 -19.253906 24.734375 -19.484375 C 24.722656 -19.710938 24.789062 -19.828125 24.9375 -19.828125 L 36.8125 -19.890625 C 36.96875 -19.890625 37.046875 -19.773438 37.046875 -19.546875 C 37.046875 -19.316406 36.96875 -19.203125 36.8125 -19.203125 C 35.53125 -19.203125 34.566406 -19.078125 33.921875 -18.828125 C 33.273438 -18.585938 32.816406 -18.257812 32.546875 -17.84375 C 32.285156 -17.425781 32.023438 -16.757812 31.765625 -15.84375 C 30.660156 -12.09375 29.351562 -9.066406 27.84375 -6.765625 C 30.070312 -5.128906 32.226562 -3.78125 34.3125 -2.71875 C 36.394531 -1.664062 38.15625 -0.988281 39.59375 -0.6875 Z M 11.46875 -30.109375 C 11.46875 -27.148438 12.457031 -24.023438 14.4375 -20.734375 C 16.519531 -22.285156 18.117188 -23.789062 19.234375 -25.25 C 20.347656 -26.707031 20.90625 -28.347656 20.90625 -30.171875 C 20.90625 -31.835938 20.457031 -33.144531 19.5625 -34.09375 C 18.675781 -35.039062 17.476562 -35.515625 15.96875 -35.515625 C 12.96875 -35.515625 11.46875 -33.710938 11.46875 -30.109375 Z M 16.765625 -1.015625 C 19.941406 -1.015625 22.664062 -2.210938 24.9375 -4.609375 L 23.921875 -5.453125 C 21.648438 -7.234375 19.460938 -9.210938 17.359375 -11.390625 C 15.253906 -13.566406 13.445312 -15.734375 11.9375 -17.890625 C 10.457031 -16.722656 9.304688 -15.484375 8.484375 -14.171875 C 7.671875 -12.867188 7.265625 -11.398438 7.265625 -9.765625 C 7.265625 -8.179688 7.671875 -6.71875 8.484375 -5.375 C 9.304688 -4.03125 10.445312 -2.96875 11.90625 -2.1875 C 13.363281 -1.40625 14.984375 -1.015625 16.765625 -1.015625 Z M 16.765625 -1.015625 "/></g></g></g><g fill="#000000" fill-opacity="1"><g transform="translate(482.25204, 720.105238)"><g/></g></g><g fill="#000000" fill-opacity="1"><g transform="translate(503.047723, 720.105238)"><g><path d="M 10.515625 -4.828125 C 10.515625 -3.734375 10.625 -2.9375 10.84375 -2.4375 C 11.070312 -1.945312 11.488281 -1.613281 12.09375 -1.4375 C 12.707031 -1.269531 13.695312 -1.1875 15.0625 -1.1875 L 21.25 -1.1875 C 23.40625 -1.1875 25.125 -1.847656 26.40625 -3.171875 C 27.695312 -4.503906 28.550781 -6.34375 28.96875 -8.6875 C 28.96875 -8.800781 29.070312 -8.847656 29.28125 -8.828125 C 29.488281 -8.816406 29.59375 -8.753906 29.59375 -8.640625 C 29.257812 -5.492188 29.09375 -2.898438 29.09375 -0.859375 C 29.09375 -0.546875 29.035156 -0.320312 28.921875 -0.1875 C 28.804688 -0.0625 28.578125 0 28.234375 0 L 1.984375 0 C 1.910156 0 1.875 -0.113281 1.875 -0.34375 C 1.875 -0.570312 1.910156 -0.6875 1.984375 -0.6875 C 3.421875 -0.6875 4.472656 -0.78125 5.140625 -0.96875 C 5.804688 -1.15625 6.25 -1.519531 6.46875 -2.0625 C 6.695312 -2.613281 6.8125 -3.460938 6.8125 -4.609375 L 6.8125 -30.90625 C 6.8125 -32.039062 6.695312 -32.875 6.46875 -33.40625 C 6.25 -33.9375 5.804688 -34.304688 5.140625 -34.515625 C 4.472656 -34.722656 3.421875 -34.828125 1.984375 -34.828125 C 1.910156 -34.828125 1.875 -34.941406 1.875 -35.171875 C 1.875 -35.398438 1.910156 -35.515625 1.984375 -35.515625 L 4.765625 -35.453125 C 6.359375 -35.378906 7.648438 -35.34375 8.640625 -35.34375 C 9.691406 -35.34375 11.015625 -35.378906 12.609375 -35.453125 L 15.34375 -35.515625 C 15.457031 -35.515625 15.515625 -35.398438 15.515625 -35.171875 C 15.515625 -34.941406 15.457031 -34.828125 15.34375 -34.828125 C 13.9375 -34.828125 12.898438 -34.722656 12.234375 -34.515625 C 11.578125 -34.304688 11.125 -33.925781 10.875 -33.375 C 10.632812 -32.820312 10.515625 -31.976562 10.515625 -30.84375 Z M 10.515625 -4.828125 "/></g></g></g><g fill="#000000" fill-opacity="1"><g transform="translate(540.830793, 720.105238)"><g><path d="M 26.984375 -8.46875 C 26.984375 -8.539062 27.0625 -8.578125 27.21875 -8.578125 C 27.332031 -8.578125 27.4375 -8.554688 27.53125 -8.515625 C 27.625 -8.484375 27.671875 -8.425781 27.671875 -8.34375 C 27.328125 -5.957031 27.15625 -3.460938 27.15625 -0.859375 C 27.15625 -0.546875 27.085938 -0.320312 26.953125 -0.1875 C 26.828125 -0.0625 26.59375 0 26.25 0 L 2.4375 0 C 2.363281 0 2.328125 -0.113281 2.328125 -0.34375 C 2.328125 -0.570312 2.363281 -0.6875 2.4375 -0.6875 C 3.882812 -0.6875 4.9375 -0.78125 5.59375 -0.96875 C 6.257812 -1.15625 6.710938 -1.519531 6.953125 -2.0625 C 7.203125 -2.613281 7.328125 -3.460938 7.328125 -4.609375 L 7.328125 -30.90625 C 7.328125 -32.039062 7.203125 -32.875 6.953125 -33.40625 C 6.710938 -33.9375 6.257812 -34.304688 5.59375 -34.515625 C 4.9375 -34.722656 3.882812 -34.828125 2.4375 -34.828125 C 2.363281 -34.828125 2.328125 -34.941406 2.328125 -35.171875 C 2.328125 -35.398438 2.363281 -35.515625 2.4375 -35.515625 L 25.28125 -35.515625 C 25.625 -35.515625 25.796875 -35.34375 25.796875 -35 L 25.90625 -28.015625 C 25.90625 -27.898438 25.8125 -27.832031 25.625 -27.8125 C 25.4375 -27.789062 25.320312 -27.835938 25.28125 -27.953125 C 25.164062 -29.960938 24.554688 -31.523438 23.453125 -32.640625 C 22.359375 -33.753906 20.90625 -34.3125 19.09375 -34.3125 L 15.625 -34.3125 C 14.300781 -34.3125 13.328125 -34.207031 12.703125 -34 C 12.078125 -33.789062 11.640625 -33.429688 11.390625 -32.921875 C 11.140625 -32.410156 11.015625 -31.644531 11.015625 -30.625 L 11.015625 -19.09375 L 17.953125 -19.09375 C 19.773438 -19.09375 21.070312 -19.394531 21.84375 -20 C 22.625 -20.601562 23.015625 -21.625 23.015625 -23.0625 C 23.015625 -23.132812 23.125 -23.171875 23.34375 -23.171875 C 23.570312 -23.171875 23.6875 -23.132812 23.6875 -23.0625 L 23.640625 -18.46875 C 23.640625 -17.363281 23.65625 -16.53125 23.6875 -15.96875 L 23.75 -13.234375 C 23.75 -13.160156 23.632812 -13.125 23.40625 -13.125 C 23.175781 -13.125 23.0625 -13.160156 23.0625 -13.234375 C 23.0625 -14.898438 22.65625 -16.09375 21.84375 -16.8125 C 21.03125 -17.53125 19.675781 -17.890625 17.78125 -17.890625 L 11.015625 -17.890625 L 11.015625 -4.828125 C 11.015625 -3.765625 11.128906 -2.988281 11.359375 -2.5 C 11.585938 -2.007812 12.003906 -1.664062 12.609375 -1.46875 C 13.210938 -1.28125 14.160156 -1.1875 15.453125 -1.1875 L 20 -1.1875 C 21.8125 -1.1875 23.320312 -1.832031 24.53125 -3.125 C 25.75 -4.414062 26.566406 -6.195312 26.984375 -8.46875 Z M 26.984375 -8.46875 "/></g></g></g><g fill="#000000" fill-opacity="1"><g transform="translate(578.841134, 720.105238)"><g><path d="M 53.0625 -35.515625 C 53.175781 -35.515625 53.234375 -35.398438 53.234375 -35.171875 C 53.234375 -34.941406 53.175781 -34.828125 53.0625 -34.828125 C 51.8125 -34.828125 50.710938 -34.484375 49.765625 -33.796875 C 48.816406 -33.117188 48.003906 -31.96875 47.328125 -30.34375 L 35.21875 -0.0625 C 35.1875 0.09375 34.976562 0.171875 34.59375 0.171875 C 34.289062 0.171875 34.082031 0.09375 33.96875 -0.0625 L 26.59375 -16.140625 L 20.171875 -0.0625 C 20.128906 0.09375 19.921875 0.171875 19.546875 0.171875 C 19.242188 0.171875 19.035156 0.09375 18.921875 -0.0625 L 4.765625 -30.796875 C 4.085938 -32.304688 3.40625 -33.351562 2.71875 -33.9375 C 2.039062 -34.53125 1.113281 -34.828125 -0.0625 -34.828125 C -0.175781 -34.828125 -0.234375 -34.941406 -0.234375 -35.171875 C -0.234375 -35.398438 -0.175781 -35.515625 -0.0625 -35.515625 L 2.109375 -35.453125 C 3.160156 -35.378906 4.007812 -35.34375 4.65625 -35.34375 C 6.019531 -35.34375 7.5 -35.378906 9.09375 -35.453125 L 11.421875 -35.515625 C 11.535156 -35.515625 11.59375 -35.398438 11.59375 -35.171875 C 11.59375 -34.941406 11.535156 -34.828125 11.421875 -34.828125 C 10.285156 -34.828125 9.441406 -34.691406 8.890625 -34.421875 C 8.335938 -34.160156 8.0625 -33.707031 8.0625 -33.0625 C 8.0625 -32.5 8.253906 -31.816406 8.640625 -31.015625 L 20.734375 -5.0625 L 25.84375 -17.71875 L 19.828125 -30.796875 C 19.179688 -32.234375 18.515625 -33.265625 17.828125 -33.890625 C 17.148438 -34.515625 16.265625 -34.828125 15.171875 -34.828125 C 15.054688 -34.828125 15 -34.941406 15 -35.171875 C 15 -35.398438 15.054688 -35.515625 15.171875 -35.515625 L 17.265625 -35.453125 C 18.328125 -35.378906 19.144531 -35.34375 19.71875 -35.34375 C 20.8125 -35.34375 21.925781 -35.378906 23.0625 -35.453125 L 24.65625 -35.515625 C 24.769531 -35.515625 24.828125 -35.398438 24.828125 -35.171875 C 24.828125 -34.941406 24.769531 -34.828125 24.65625 -34.828125 C 23.9375 -34.828125 23.429688 -34.769531 23.140625 -34.65625 C 22.859375 -34.539062 22.71875 -34.3125 22.71875 -33.96875 C 22.71875 -33.476562 23.0625 -32.492188 23.75 -31.015625 L 27.890625 -22.15625 L 31.25 -30.625 C 31.664062 -31.757812 31.875 -32.609375 31.875 -33.171875 C 31.875 -33.742188 31.679688 -34.160156 31.296875 -34.421875 C 30.921875 -34.691406 30.316406 -34.828125 29.484375 -34.828125 C 29.367188 -34.828125 29.3125 -34.941406 29.3125 -35.171875 C 29.3125 -35.398438 29.367188 -35.515625 29.484375 -35.515625 L 30.796875 -35.453125 C 31.546875 -35.378906 32.335938 -35.34375 33.171875 -35.34375 C 33.929688 -35.34375 34.804688 -35.378906 35.796875 -35.453125 L 38.125 -35.515625 C 38.195312 -35.515625 38.234375 -35.398438 38.234375 -35.171875 C 38.234375 -34.941406 38.195312 -34.828125 38.125 -34.828125 C 36.832031 -34.828125 35.734375 -34.492188 34.828125 -33.828125 C 33.921875 -33.171875 33.144531 -32.007812 32.5 -30.34375 L 28.640625 -20.625 L 35.84375 -5.0625 L 46.015625 -30.515625 C 46.316406 -31.304688 46.46875 -31.96875 46.46875 -32.5 C 46.46875 -33.289062 46.125 -33.875 45.4375 -34.25 C 44.757812 -34.632812 43.6875 -34.828125 42.21875 -34.828125 C 42.101562 -34.828125 42.046875 -34.941406 42.046875 -35.171875 C 42.046875 -35.398438 42.101562 -35.515625 42.21875 -35.515625 L 44.59375 -35.453125 C 45.8125 -35.378906 46.945312 -35.34375 48 -35.34375 C 48.800781 -35.34375 49.691406 -35.378906 50.671875 -35.453125 Z M 53.0625 -35.515625 "/></g></g></g><g fill="#000000" fill-opacity="1"><g transform="translate(639.236209, 720.105238)"><g><path d="M 11.3125 -4.609375 C 11.3125 -3.460938 11.421875 -2.613281 11.640625 -2.0625 C 11.867188 -1.519531 12.3125 -1.15625 12.96875 -0.96875 C 13.632812 -0.78125 14.691406 -0.6875 16.140625 -0.6875 C 16.253906 -0.6875 16.3125 -0.570312 16.3125 -0.34375 C 16.3125 -0.113281 16.253906 0 16.140625 0 C 15.003906 0 14.09375 -0.0195312 13.40625 -0.0625 L 9.375 -0.109375 L 5.453125 -0.0625 C 4.773438 -0.0195312 3.847656 0 2.671875 0 C 2.554688 0 2.5 -0.113281 2.5 -0.34375 C 2.5 -0.570312 2.554688 -0.6875 2.671875 -0.6875 C 4.109375 -0.6875 5.15625 -0.78125 5.8125 -0.96875 C 6.476562 -1.15625 6.9375 -1.519531 7.1875 -2.0625 C 7.4375 -2.613281 7.5625 -3.460938 7.5625 -4.609375 L 7.5625 -30.90625 C 7.5625 -32.039062 7.4375 -32.875 7.1875 -33.40625 C 6.9375 -33.9375 6.476562 -34.304688 5.8125 -34.515625 C 5.15625 -34.722656 4.109375 -34.828125 2.671875 -34.828125 C 2.554688 -34.828125 2.5 -34.941406 2.5 -35.171875 C 2.5 -35.398438 2.554688 -35.515625 2.671875 -35.515625 L 5.453125 -35.453125 C 7.046875 -35.378906 8.351562 -35.34375 9.375 -35.34375 C 10.507812 -35.34375 11.875 -35.378906 13.46875 -35.453125 L 16.140625 -35.515625 C 16.253906 -35.515625 16.3125 -35.398438 16.3125 -35.171875 C 16.3125 -34.941406 16.253906 -34.828125 16.140625 -34.828125 C 14.734375 -34.828125 13.695312 -34.710938 13.03125 -34.484375 C 12.375 -34.253906 11.921875 -33.863281 11.671875 -33.3125 C 11.429688 -32.769531 11.3125 -31.929688 11.3125 -30.796875 Z M 11.3125 -4.609375 "/></g></g></g><g fill="#000000" fill-opacity="1"><g transform="translate(665.599659, 720.105238)"><g><path d="M 8.234375 -28.859375 C 8.234375 -27.378906 8.59375 -26.085938 9.3125 -24.984375 C 10.03125 -23.890625 10.910156 -22.972656 11.953125 -22.234375 C 12.992188 -21.503906 14.425781 -20.585938 16.25 -19.484375 C 18.257812 -18.273438 19.800781 -17.269531 20.875 -16.46875 C 21.957031 -15.675781 22.882812 -14.664062 23.65625 -13.4375 C 24.4375 -12.207031 24.828125 -10.738281 24.828125 -9.03125 C 24.828125 -7.21875 24.367188 -5.570312 23.453125 -4.09375 C 22.546875 -2.613281 21.210938 -1.445312 19.453125 -0.59375 C 17.691406 0.257812 15.582031 0.6875 13.125 0.6875 C 10.207031 0.6875 7.535156 0.0195312 5.109375 -1.3125 C 4.921875 -1.425781 4.796875 -1.554688 4.734375 -1.703125 C 4.679688 -1.859375 4.640625 -2.085938 4.609375 -2.390625 L 3.859375 -10.109375 C 3.828125 -10.265625 3.914062 -10.359375 4.125 -10.390625 C 4.332031 -10.429688 4.453125 -10.375 4.484375 -10.21875 C 5.085938 -7.5 6.210938 -5.15625 7.859375 -3.1875 C 9.515625 -1.21875 11.707031 -0.234375 14.4375 -0.234375 C 16.320312 -0.234375 17.914062 -0.753906 19.21875 -1.796875 C 20.53125 -2.835938 21.1875 -4.492188 21.1875 -6.765625 C 21.1875 -8.460938 20.804688 -9.9375 20.046875 -11.1875 C 19.296875 -12.4375 18.378906 -13.46875 17.296875 -14.28125 C 16.222656 -15.101562 14.753906 -16.0625 12.890625 -17.15625 C 11.078125 -18.257812 9.648438 -19.207031 8.609375 -20 C 7.566406 -20.789062 6.6875 -21.789062 5.96875 -23 C 5.25 -24.21875 4.890625 -25.640625 4.890625 -27.265625 C 4.890625 -29.160156 5.390625 -30.78125 6.390625 -32.125 C 7.390625 -33.46875 8.691406 -34.46875 10.296875 -35.125 C 11.910156 -35.789062 13.628906 -36.125 15.453125 -36.125 C 17.691406 -36.125 19.90625 -35.671875 22.09375 -34.765625 C 22.664062 -34.578125 22.953125 -34.253906 22.953125 -33.796875 L 23.34375 -27.265625 C 23.34375 -27.117188 23.25 -27.046875 23.0625 -27.046875 C 22.875 -27.046875 22.757812 -27.117188 22.71875 -27.265625 C 22.414062 -29.234375 21.601562 -31.0625 20.28125 -32.75 C 18.957031 -34.4375 17.046875 -35.28125 14.546875 -35.28125 C 12.421875 -35.28125 10.835938 -34.664062 9.796875 -33.4375 C 8.753906 -32.207031 8.234375 -30.679688 8.234375 -28.859375 Z M 8.234375 -28.859375 "/></g></g></g><g fill="#000000" fill-opacity="1"><g transform="translate(361.285691, 1101.775261)"><g><path d="M 1.375 -9.546875 C 1.375 -12.648438 2.015625 -15.085938 3.296875 -16.859375 C 4.585938 -18.640625 6.238281 -19.53125 8.25 -19.53125 C 10.269531 -19.53125 11.910156 -18.640625 13.171875 -16.859375 C 14.441406 -15.085938 15.078125 -12.648438 15.078125 -9.546875 C 15.078125 -6.453125 14.445312 -4.035156 13.1875 -2.296875 C 11.925781 -0.566406 10.285156 0.296875 8.265625 0.296875 C 6.242188 0.296875 4.585938 -0.566406 3.296875 -2.296875 C 2.015625 -4.035156 1.375 -6.453125 1.375 -9.546875 Z M 3.53125 -9.5625 C 3.53125 -6.894531 3.984375 -4.726562 4.890625 -3.0625 C 5.796875 -1.394531 6.921875 -0.5625 8.265625 -0.5625 C 9.609375 -0.5625 10.71875 -1.390625 11.59375 -3.046875 C 12.476562 -4.703125 12.921875 -6.867188 12.921875 -9.546875 C 12.921875 -12.234375 12.476562 -14.4375 11.59375 -16.15625 C 10.71875 -17.882812 9.609375 -18.75 8.265625 -18.75 C 6.921875 -18.75 5.796875 -17.882812 4.890625 -16.15625 C 3.984375 -14.4375 3.53125 -12.238281 3.53125 -9.5625 Z M 3.53125 -9.5625 "/></g></g></g><g fill="#000000" fill-opacity="1"><g transform="translate(381.67692, 1101.775261)"><g><path d="M 9.921875 -6.765625 C 9.921875 -3.972656 10.039062 -2.316406 10.28125 -1.796875 C 10.40625 -1.535156 10.539062 -1.289062 10.6875 -1.0625 C 10.84375 -0.832031 11.054688 -0.675781 11.328125 -0.59375 C 11.890625 -0.4375 12.597656 -0.359375 13.453125 -0.359375 L 13.515625 0 L 4.25 0 L 4.3125 -0.359375 C 4.90625 -0.359375 5.375 -0.378906 5.71875 -0.421875 C 6.070312 -0.460938 6.394531 -0.570312 6.6875 -0.75 C 6.976562 -0.925781 7.1875 -1.128906 7.3125 -1.359375 C 7.4375 -1.585938 7.550781 -1.984375 7.65625 -2.546875 C 7.769531 -3.335938 7.828125 -4.742188 7.828125 -6.765625 L 7.828125 -14.65625 C 7.828125 -16.007812 7.390625 -16.6875 6.515625 -16.6875 C 5.878906 -16.6875 4.753906 -16.328125 3.140625 -15.609375 L 2.90625 -16.171875 C 6.351562 -17.734375 8.582031 -18.863281 9.59375 -19.5625 L 9.921875 -19.40625 Z M 9.921875 -6.765625 "/></g></g></g><g fill="#000000" fill-opacity="1"><g transform="translate(402.068148, 1101.775261)"><g><path d="M 1.015625 -1.265625 C 1.015625 -1.710938 1.164062 -2.09375 1.46875 -2.40625 C 1.78125 -2.71875 2.15625 -2.875 2.59375 -2.875 C 3.039062 -2.875 3.410156 -2.71875 3.703125 -2.40625 C 4.003906 -2.09375 4.15625 -1.710938 4.15625 -1.265625 C 4.15625 -0.816406 4 -0.441406 3.6875 -0.140625 C 3.382812 0.148438 3.015625 0.296875 2.578125 0.296875 C 2.148438 0.296875 1.78125 0.148438 1.46875 -0.140625 C 1.164062 -0.441406 1.015625 -0.816406 1.015625 -1.265625 Z M 1.015625 -1.265625 "/></g></g></g><g fill="#000000" fill-opacity="1"><g transform="translate(411.188406, 1101.775261)"><g><path d="M 9.921875 -6.765625 C 9.921875 -3.972656 10.039062 -2.316406 10.28125 -1.796875 C 10.40625 -1.535156 10.539062 -1.289062 10.6875 -1.0625 C 10.84375 -0.832031 11.054688 -0.675781 11.328125 -0.59375 C 11.890625 -0.4375 12.597656 -0.359375 13.453125 -0.359375 L 13.515625 0 L 4.25 0 L 4.3125 -0.359375 C 4.90625 -0.359375 5.375 -0.378906 5.71875 -0.421875 C 6.070312 -0.460938 6.394531 -0.570312 6.6875 -0.75 C 6.976562 -0.925781 7.1875 -1.128906 7.3125 -1.359375 C 7.4375 -1.585938 7.550781 -1.984375 7.65625 -2.546875 C 7.769531 -3.335938 7.828125 -4.742188 7.828125 -6.765625 L 7.828125 -14.65625 C 7.828125 -16.007812 7.390625 -16.6875 6.515625 -16.6875 C 5.878906 -16.6875 4.753906 -16.328125 3.140625 -15.609375 L 2.90625 -16.171875 C 6.351562 -17.734375 8.582031 -18.863281 9.59375 -19.5625 L 9.921875 -19.40625 Z M 9.921875 -6.765625 "/></g></g></g><g fill="#000000" fill-opacity="1"><g transform="translate(431.579635, 1101.775261)"><g><path d="M 1.375 -9.546875 C 1.375 -12.648438 2.015625 -15.085938 3.296875 -16.859375 C 4.585938 -18.640625 6.238281 -19.53125 8.25 -19.53125 C 10.269531 -19.53125 11.910156 -18.640625 13.171875 -16.859375 C 14.441406 -15.085938 15.078125 -12.648438 15.078125 -9.546875 C 15.078125 -6.453125 14.445312 -4.035156 13.1875 -2.296875 C 11.925781 -0.566406 10.285156 0.296875 8.265625 0.296875 C 6.242188 0.296875 4.585938 -0.566406 3.296875 -2.296875 C 2.015625 -4.035156 1.375 -6.453125 1.375 -9.546875 Z M 3.53125 -9.5625 C 3.53125 -6.894531 3.984375 -4.726562 4.890625 -3.0625 C 5.796875 -1.394531 6.921875 -0.5625 8.265625 -0.5625 C 9.609375 -0.5625 10.71875 -1.390625 11.59375 -3.046875 C 12.476562 -4.703125 12.921875 -6.867188 12.921875 -9.546875 C 12.921875 -12.234375 12.476562 -14.4375 11.59375 -16.15625 C 10.71875 -17.882812 9.609375 -18.75 8.265625 -18.75 C 6.921875 -18.75 5.796875 -17.882812 4.890625 -16.15625 C 3.984375 -14.4375 3.53125 -12.238281 3.53125 -9.5625 Z M 3.53125 -9.5625 "/></g></g></g><g fill="#000000" fill-opacity="1"><g transform="translate(451.970863, 1101.775261)"><g><path d="M 1.015625 -1.265625 C 1.015625 -1.710938 1.164062 -2.09375 1.46875 -2.40625 C 1.78125 -2.71875 2.15625 -2.875 2.59375 -2.875 C 3.039062 -2.875 3.410156 -2.71875 3.703125 -2.40625 C 4.003906 -2.09375 4.15625 -1.710938 4.15625 -1.265625 C 4.15625 -0.816406 4 -0.441406 3.6875 -0.140625 C 3.382812 0.148438 3.015625 0.296875 2.578125 0.296875 C 2.148438 0.296875 1.78125 0.148438 1.46875 -0.140625 C 1.164062 -0.441406 1.015625 -0.816406 1.015625 -1.265625 Z M 1.015625 -1.265625 "/></g></g></g><g fill="#000000" fill-opacity="1"><g transform="translate(461.091121, 1101.775261)"><g><path d="M 13.84375 -4.28125 L 14.203125 -4.28125 L 14.203125 0 L 2.21875 0 L 2.21875 -0.390625 C 5.0625 -3.203125 7.320312 -5.898438 9 -8.484375 C 10.675781 -11.078125 11.515625 -13.242188 11.515625 -14.984375 C 11.515625 -16.097656 11.222656 -17.003906 10.640625 -17.703125 C 10.066406 -18.398438 9.242188 -18.75 8.171875 -18.75 C 7.484375 -18.75 6.890625 -18.585938 6.390625 -18.265625 C 5.898438 -17.953125 5.535156 -17.601562 5.296875 -17.21875 C 5.054688 -16.84375 4.789062 -16.492188 4.5 -16.171875 C 4.207031 -15.859375 3.910156 -15.703125 3.609375 -15.703125 C 3.316406 -15.703125 3.078125 -15.796875 2.890625 -15.984375 C 2.703125 -16.171875 2.609375 -16.40625 2.609375 -16.6875 C 2.609375 -17.445312 3.15625 -18.109375 4.25 -18.671875 C 5.34375 -19.242188 6.65625 -19.53125 8.1875 -19.53125 C 9.726562 -19.53125 11.035156 -19.160156 12.109375 -18.421875 C 13.191406 -17.679688 13.734375 -16.492188 13.734375 -14.859375 C 13.734375 -12.984375 12.785156 -10.863281 10.890625 -8.5 C 9.867188 -7.238281 8.898438 -6.113281 7.984375 -5.125 C 7.066406 -4.144531 5.789062 -2.835938 4.15625 -1.203125 C 7.382812 -1.203125 9.804688 -1.410156 11.421875 -1.828125 C 13.035156 -2.242188 13.84375 -3.0625 13.84375 -4.28125 Z M 13.84375 -4.28125 "/></g></g></g><g fill="#000000" fill-opacity="1"><g transform="translate(481.48235, 1101.775261)"><g><path d="M 1.375 -9.546875 C 1.375 -12.648438 2.015625 -15.085938 3.296875 -16.859375 C 4.585938 -18.640625 6.238281 -19.53125 8.25 -19.53125 C 10.269531 -19.53125 11.910156 -18.640625 13.171875 -16.859375 C 14.441406 -15.085938 15.078125 -12.648438 15.078125 -9.546875 C 15.078125 -6.453125 14.445312 -4.035156 13.1875 -2.296875 C 11.925781 -0.566406 10.285156 0.296875 8.265625 0.296875 C 6.242188 0.296875 4.585938 -0.566406 3.296875 -2.296875 C 2.015625 -4.035156 1.375 -6.453125 1.375 -9.546875 Z M 3.53125 -9.5625 C 3.53125 -6.894531 3.984375 -4.726562 4.890625 -3.0625 C 5.796875 -1.394531 6.921875 -0.5625 8.265625 -0.5625 C 9.609375 -0.5625 10.71875 -1.390625 11.59375 -3.046875 C 12.476562 -4.703125 12.921875 -6.867188 12.921875 -9.546875 C 12.921875 -12.234375 12.476562 -14.4375 11.59375 -16.15625 C 10.71875 -17.882812 9.609375 -18.75 8.265625 -18.75 C 6.921875 -18.75 5.796875 -17.882812 4.890625 -16.15625 C 3.984375 -14.4375 3.53125 -12.238281 3.53125 -9.5625 Z M 3.53125 -9.5625 "/></g></g></g><g fill="#000000" fill-opacity="1"><g transform="translate(501.873578, 1101.775261)"><g><path d="M 13.84375 -4.28125 L 14.203125 -4.28125 L 14.203125 0 L 2.21875 0 L 2.21875 -0.390625 C 5.0625 -3.203125 7.320312 -5.898438 9 -8.484375 C 10.675781 -11.078125 11.515625 -13.242188 11.515625 -14.984375 C 11.515625 -16.097656 11.222656 -17.003906 10.640625 -17.703125 C 10.066406 -18.398438 9.242188 -18.75 8.171875 -18.75 C 7.484375 -18.75 6.890625 -18.585938 6.390625 -18.265625 C 5.898438 -17.953125 5.535156 -17.601562 5.296875 -17.21875 C 5.054688 -16.84375 4.789062 -16.492188 4.5 -16.171875 C 4.207031 -15.859375 3.910156 -15.703125 3.609375 -15.703125 C 3.316406 -15.703125 3.078125 -15.796875 2.890625 -15.984375 C 2.703125 -16.171875 2.609375 -16.40625 2.609375 -16.6875 C 2.609375 -17.445312 3.15625 -18.109375 4.25 -18.671875 C 5.34375 -19.242188 6.65625 -19.53125 8.1875 -19.53125 C 9.726562 -19.53125 11.035156 -19.160156 12.109375 -18.421875 C 13.191406 -17.679688 13.734375 -16.492188 13.734375 -14.859375 C 13.734375 -12.984375 12.785156 -10.863281 10.890625 -8.5 C 9.867188 -7.238281 8.898438 -6.113281 7.984375 -5.125 C 7.066406 -4.144531 5.789062 -2.835938 4.15625 -1.203125 C 7.382812 -1.203125 9.804688 -1.410156 11.421875 -1.828125 C 13.035156 -2.242188 13.84375 -3.0625 13.84375 -4.28125 Z M 13.84375 -4.28125 "/></g></g></g><g fill="#000000" fill-opacity="1"><g transform="translate(522.264815, 1101.775261)"><g><path d="M 1.375 -9.546875 C 1.375 -12.648438 2.015625 -15.085938 3.296875 -16.859375 C 4.585938 -18.640625 6.238281 -19.53125 8.25 -19.53125 C 10.269531 -19.53125 11.910156 -18.640625 13.171875 -16.859375 C 14.441406 -15.085938 15.078125 -12.648438 15.078125 -9.546875 C 15.078125 -6.453125 14.445312 -4.035156 13.1875 -2.296875 C 11.925781 -0.566406 10.285156 0.296875 8.265625 0.296875 C 6.242188 0.296875 4.585938 -0.566406 3.296875 -2.296875 C 2.015625 -4.035156 1.375 -6.453125 1.375 -9.546875 Z M 3.53125 -9.5625 C 3.53125 -6.894531 3.984375 -4.726562 4.890625 -3.0625 C 5.796875 -1.394531 6.921875 -0.5625 8.265625 -0.5625 C 9.609375 -0.5625 10.71875 -1.390625 11.59375 -3.046875 C 12.476562 -4.703125 12.921875 -6.867188 12.921875 -9.546875 C 12.921875 -12.234375 12.476562 -14.4375 11.59375 -16.15625 C 10.71875 -17.882812 9.609375 -18.75 8.265625 -18.75 C 6.921875 -18.75 5.796875 -17.882812 4.890625 -16.15625 C 3.984375 -14.4375 3.53125 -12.238281 3.53125 -9.5625 Z M 3.53125 -9.5625 "/></g></g></g><g fill="#000000" fill-opacity="1"><g transform="translate(591.402793, 1120.709274)"><g><path d="M 60.695312 -34.03125 C 60.734375 -34.175781 60.769531 -35.15625 60.738281 -36.457031 L 60.691406 -38.832031 L 60.871094 -42.058594 L 61.054688 -44.445312 C 61.179688 -46.316406 61.703125 -50.820312 61.742188 -50.960938 C 61.867188 -51.15625 62.042969 -52.9375 61.992188 -53.027344 L 62.015625 -53.402344 L 62.277344 -55.234375 L 62.679688 -58.707031 L 62.96875 -60.074219 L 65.660156 -75.191406 L 65.761719 -75.847656 L 67.257812 -81.996094 C 68.339844 -85.742188 68.632812 -87.109375 68.773438 -87.910156 L 69.472656 -90.234375 C 69.703125 -91.085938 69.929688 -91.9375 69.863281 -92.261719 L 70.015625 -92.828125 C 70.109375 -92.882812 70.351562 -93.5 70.488281 -94.300781 C 70.855469 -95.953125 71.519531 -98.136719 71.929688 -99.09375 C 72.390625 -99.960938 73.550781 -103.152344 74.0625 -104.765625 L 75.082031 -107.996094 C 75.757812 -109.945312 75.730469 -110.410156 75.125 -110.417969 C 74.605469 -110.484375 74.171875 -109.992188 73.789062 -108.570312 C 73.507812 -107.808594 73.226562 -107.046875 73.136719 -106.992188 C 73.007812 -106.800781 72.96875 -106.65625 73.023438 -106.566406 C 73.179688 -106.296875 69.960938 -97.71875 69.394531 -97.03125 L 68.457031 -95.53125 L 65.203125 -89.933594 C 64.78125 -89.210938 64.28125 -88.203125 64.078125 -87.722656 C 63.925781 -87.15625 63.667969 -86.769531 63.578125 -86.714844 L 62.949219 -85.515625 C 62.707031 -84.894531 62.296875 -83.9375 61.953125 -83.496094 L 61.246094 -82.011719 C 61.003906 -81.390625 59.289062 -78.121094 59.109375 -78.015625 L 58.777344 -77.34375 L 58.390625 -76.761719 C 58.339844 -76.851562 58.042969 -76.324219 57.800781 -75.703125 L 57.636719 -75.367188 L 56.496094 -73.386719 C 55.941406 -72.46875 55.390625 -71.550781 55.300781 -71.5 C 55.210938 -71.449219 55.082031 -71.253906 55.046875 -71.113281 C 54.957031 -70.222656 52.492188 -67 51.464844 -66.285156 C 50.796875 -65.78125 50.707031 -65.730469 50.730469 -66.101562 C 50.625 -66.285156 50.6875 -66.800781 50.660156 -67.265625 L 50.734375 -68.386719 L 50.882812 -69.792969 C 50.894531 -70.398438 51.058594 -71.574219 51.054688 -72.414062 L 51.085938 -74.230469 L 51.351562 -76.066406 C 51.5 -77.472656 52.042969 -80.066406 52.296875 -81.292969 L 53.214844 -84.703125 L 53.527344 -86.445312 C 53.78125 -87.671875 53.996094 -88.757812 54.339844 -90.035156 C 54.417969 -90.320312 54.441406 -90.691406 54.441406 -90.691406 C 54.390625 -90.785156 54.824219 -92.113281 55.332031 -93.726562 L 56.632812 -97.71875 L 57.054688 -99.28125 C 58.355469 -102.433594 58.828125 -103.90625 58.953125 -104.941406 L 59.335938 -106.359375 L 59.550781 -107.445312 L 60.25 -110.609375 L 61.328125 -115.191406 C 61.59375 -116.1875 61.785156 -116.898438 62 -117.980469 L 62.253906 -119.207031 L 62.597656 -120.484375 C 62.914062 -122.230469 62.496094 -122.949219 61.414062 -122.328125 C 61.144531 -122.171875 60.890625 -121.78125 60.710938 -120.839844 L 59.441406 -115.546875 C 59.160156 -114.785156 58.894531 -113.789062 58.832031 -113.273438 C 58.820312 -112.667969 58.59375 -111.8125 58.441406 -111.246094 C 57.882812 -108.882812 57.539062 -107.605469 57.144531 -105.578125 C 56.703125 -103.640625 55.695312 -100.179688 55.425781 -100.023438 C 55.246094 -99.921875 54.300781 -96.976562 54.445312 -96.9375 C 54.535156 -96.988281 54.152344 -95.570312 53.640625 -93.953125 C 52.660156 -90.867188 52.46875 -90.15625 51.886719 -87.417969 C 51.75 -86.621094 51.558594 -85.910156 51.46875 -85.855469 C 51.324219 -85.894531 51.234375 -85.84375 51.378906 -85.804688 C 51.519531 -85.765625 51.433594 -84.875 51.164062 -83.882812 L 50.199219 -79.722656 C 50 -78.40625 49.683594 -76.664062 49.632812 -75.917969 L 49.523438 -74.652344 C 49.410156 -74.226562 49.203125 -70.625 49.253906 -70.535156 L 49.144531 -69.269531 C 48.957031 -67.722656 49.03125 -64.882812 49.238281 -64.523438 C 49.863281 -63.441406 52.191406 -65.023438 54.128906 -67.703125 C 55.167969 -69.023438 56.476562 -71.335938 56.628906 -71.90625 C 56.617188 -72.136719 56.742188 -72.332031 56.832031 -72.382812 C 56.925781 -72.433594 57.269531 -72.875 57.566406 -73.40625 L 59.871094 -77.734375 L 61.394531 -80.296875 C 61.484375 -80.347656 61.5625 -80.632812 61.546875 -80.863281 C 61.625 -81.148438 61.703125 -81.433594 61.792969 -81.484375 C 61.882812 -81.535156 62.046875 -81.871094 62.253906 -82.351562 C 62.457031 -82.828125 62.699219 -83.449219 62.828125 -83.644531 L 63.339844 -84.417969 C 63.585938 -85.039062 64.339844 -86.433594 64.507812 -86.769531 L 64.839844 -87.441406 C 65.121094 -88.207031 66.390625 -90.378906 66.570312 -90.480469 C 66.660156 -90.535156 66.789062 -90.726562 66.773438 -90.960938 C 66.851562 -91.242188 67.054688 -91.722656 67.3125 -92.109375 L 68.59375 -94.050781 L 68.378906 -92.964844 L 67.234375 -88.703125 C 67.246094 -88.472656 66.613281 -85.824219 66.292969 -84.921875 C 66.011719 -84.15625 65.570312 -82.222656 65.367188 -80.90625 L 65.050781 -79.160156 L 64.503906 -77.40625 L 64.238281 -75.574219 L 63.265625 -70.808594 L 62.976562 -68.601562 L 62.722656 -67.375 C 62.660156 -66.859375 62.597656 -66.34375 62.507812 -66.289062 C 62.417969 -66.238281 62.46875 -66.148438 62.519531 -66.058594 C 62.625 -65.878906 62.144531 -62.960938 61.980469 -62.625 L 61.753906 -60.933594 L 61.414062 -58.816406 L 61.085938 -56.46875 L 60.738281 -52.90625 L 60.492188 -50.003906 C 60.273438 -46.632812 60.074219 -44.480469 59.960938 -44.054688 C 59.882812 -43.769531 59.847656 -43.625 59.9375 -43.679688 C 59.9375 -43.679688 60.003906 -43.355469 59.976562 -42.980469 L 59.875 -39.203125 L 60.070312 -35.953125 C 60.136719 -34.789062 60.476562 -33.785156 60.695312 -34.03125 Z M 10.925781 -3.539062 C 12.320312 -3.621094 14.671875 -5.578125 16.570312 -8.113281 C 16.828125 -8.5 17.304688 -9.136719 17.664062 -9.34375 C 18.679688 -10.289062 25.054688 -19.847656 25.488281 -21.175781 L 26.652344 -23.53125 C 27.742188 -25.597656 27.703125 -25.457031 28.175781 -26.929688 L 29.3125 -29.746094 L 30.679688 -33.414062 L 31.46875 -35.789062 L 32.082031 -37.226562 C 32.324219 -37.84375 32.773438 -38.941406 33.003906 -39.796875 L 37.445312 -52.082031 C 38.160156 -54.171875 39.320312 -57.363281 40.023438 -58.851562 C 40.472656 -59.949219 40.867188 -61.136719 40.710938 -61.40625 C 40.609375 -61.589844 40.964844 -62.632812 41.195312 -62.648438 C 41.285156 -62.699219 41.46875 -62.804688 41.542969 -63.089844 L 44.148438 -70.230469 C 44.222656 -70.515625 44.25 -70.890625 44.183594 -71.210938 C 44.167969 -71.445312 44.195312 -71.820312 44.410156 -72.066406 C 44.71875 -72.363281 45.640625 -74.933594 45.929688 -76.300781 L 46.3125 -77.722656 L 48.734375 -85.601562 C 49.089844 -86.648438 49.421875 -88.160156 49.46875 -88.90625 C 49.515625 -89.65625 49.671875 -90.222656 49.902344 -90.238281 C 49.992188 -90.289062 50.082031 -90.339844 50.03125 -90.429688 C 49.925781 -90.613281 50.359375 -91.941406 50.65625 -92.472656 C 50.785156 -92.664062 50.769531 -92.898438 50.664062 -93.078125 C 50.472656 -93.207031 50.507812 -93.347656 50.78125 -93.503906 C 51.050781 -93.660156 51.125 -93.945312 51.0625 -94.265625 C 50.996094 -94.589844 51.070312 -94.871094 51.160156 -94.925781 C 51.339844 -95.027344 51.699219 -96.074219 52.527344 -98.59375 L 53.445312 -101.164062 C 54.417969 -103.644531 54.914062 -105.492188 54.667969 -105.710938 C 54.332031 -105.875 53.882812 -105.617188 53.910156 -105.152344 C 53.871094 -105.011719 53.679688 -104.300781 53.398438 -103.539062 C 52.554688 -101.25 51.078125 -96.316406 51.105469 -95.851562 C 51.121094 -95.621094 51.082031 -95.480469 50.992188 -95.425781 C 50.851562 -95.464844 50.605469 -94.84375 50.453125 -94.277344 L 49.832031 -92.238281 C 49.714844 -91.808594 49.523438 -91.101562 49.5 -90.726562 C 49.476562 -90.351562 49.308594 -90.015625 49.21875 -89.964844 C 49.21875 -89.964844 48.503906 -87.871094 47.855469 -85.457031 C 45.792969 -78.625 44.507812 -74.398438 44.414062 -74.347656 C 44.324219 -74.296875 43.359375 -70.976562 42.527344 -68.457031 L 41.570312 -65.746094 C 41.238281 -65.074219 40.972656 -64.078125 40.765625 -63.601562 C 40.703125 -63.085938 40.5 -62.605469 40.410156 -62.554688 C 40.320312 -62.503906 40.152344 -62.167969 40.039062 -61.742188 L 37.496094 -55.113281 L 36.527344 -52.632812 C 36.410156 -52.207031 36.195312 -51.960938 36.195312 -51.960938 C 36.105469 -51.910156 36.027344 -51.625 35.949219 -51.339844 L 34.804688 -47.917969 C 33.382812 -44.339844 33.027344 -43.292969 32.199219 -40.773438 C 31.804688 -39.585938 31.316406 -38.34375 31.097656 -38.097656 C 30.84375 -37.710938 30.625 -37.464844 30.675781 -37.375 C 30.726562 -37.285156 30.589844 -36.484375 30.269531 -35.578125 L 29.609375 -33.398438 C 29.582031 -33.023438 29.417969 -32.6875 29.238281 -32.582031 C 29.148438 -32.53125 28.980469 -32.195312 28.867188 -31.769531 C 28.804688 -31.253906 28.597656 -30.773438 28.378906 -30.527344 C 28.199219 -30.425781 27.90625 -29.894531 27.828125 -29.609375 L 27.433594 -28.421875 C 27.304688 -28.226562 27.203125 -27.570312 27.089844 -27.144531 C 27.027344 -26.628906 27.003906 -26.253906 26.863281 -26.292969 C 26.769531 -26.238281 26.386719 -25.65625 26.015625 -24.84375 C 25.644531 -24.027344 25.222656 -23.304688 25.132812 -23.253906 L 23.914062 -20.992188 C 23.289062 -19.789062 22.570312 -18.535156 22.261719 -18.238281 L 21.285156 -16.59375 L 19.824219 -14.550781 C 17.960938 -12.15625 17.617188 -11.714844 16.832031 -10.785156 L 15.046875 -8.675781 C 14.574219 -8.042969 13.777344 -7.339844 12.875 -6.820312 C 11.394531 -5.847656 11.394531 -5.847656 11.316406 -6.402344 C 11.015625 -7.550781 10.859375 -7.820312 10.394531 -7.792969 C 10.109375 -7.871094 9.839844 -7.714844 9.53125 -7.414062 C 8.964844 -6.730469 8.929688 -5.75 9.515625 -4.527344 L 10.050781 -3.394531 Z M 10.925781 -3.539062 "/></g></g></g><g fill="#000000" fill-opacity="1"><g transform="translate(684.658497, 1066.945702)"><g><path d="M -9.195312 -23.03125 C -9.054688 -22.992188 -8.875 -23.097656 -8.835938 -23.238281 L -8.617188 -23.484375 L -8.488281 -23.679688 L -8.476562 -24.285156 C -8.546875 -25.445312 -8.574219 -25.910156 -8.894531 -28.964844 C -8.9375 -29.664062 -8.953125 -30.734375 -9.164062 -31.09375 C -9.226562 -31.417969 -9.421875 -31.542969 -9.472656 -31.632812 L -9.113281 -31.84375 C -8.894531 -32.089844 -8.558594 -31.921875 -8.289062 -32.078125 L -6.550781 -32.601562 L -5.183594 -33.148438 C -4.179688 -33.488281 -3.226562 -33.917969 -2.054688 -34.589844 L -0.34375 -35.578125 C 0.199219 -35.890625 1.226562 -36.605469 2.203125 -37.40625 L 3.527344 -38.652344 L 4.222656 -39.53125 C 4.351562 -39.726562 4.425781 -40.007812 3.949219 -40.214844 C 3.804688 -40.25 3.949219 -40.214844 3.203125 -39.421875 C 2.675781 -38.878906 2.546875 -38.6875 1.660156 -37.933594 C 0.773438 -37.183594 -0.707031 -36.210938 -2.6875 -35.066406 C -5.355469 -33.648438 -7.144531 -33.21875 -9.273438 -32.953125 C -9.917969 -32.820312 -10.417969 -32.648438 -10.691406 -32.496094 C -10.871094 -32.390625 -10.960938 -32.339844 -10.945312 -32.105469 C -11.035156 -32.054688 -10.984375 -31.964844 -10.984375 -31.964844 L -10.570312 -31.242188 C -10.414062 -30.972656 -10.140625 -30.289062 -10.058594 -29.734375 C -9.8125 -28.679688 -9.523438 -24.640625 -9.703125 -24.539062 C -9.976562 -24.382812 -11.324219 -25.886719 -11.996094 -27.058594 C -12.324219 -27.832031 -12.660156 -27.996094 -13.070312 -27.878906 C -13.664062 -27.65625 -13.960938 -27.128906 -14.175781 -26.042969 C -14.273438 -24.546875 -14.5 -23.695312 -14.589844 -23.640625 C -14.859375 -23.488281 -15.648438 -26.515625 -15.574219 -27.636719 C -15.617188 -29.171875 -15.929688 -29.714844 -16.6875 -29.15625 C -16.960938 -29 -17.035156 -28.714844 -16.890625 -27.839844 C -16.769531 -26.589844 -16.167969 -24.292969 -15.878906 -23.378906 C -15.566406 -22.839844 -15.515625 -22.75 -15.039062 -22.542969 C -14.523438 -22.480469 -14.378906 -22.445312 -13.980469 -22.792969 C -13.441406 -23.105469 -13.445312 -23.945312 -13.175781 -24.9375 C -13.113281 -25.453125 -13.066406 -26.203125 -12.976562 -26.253906 C -12.886719 -26.304688 -12.339844 -25.78125 -12.328125 -25.546875 C -12.222656 -25.367188 -10.617188 -23.414062 -9.621094 -23.144531 Z M -9.195312 -23.03125 "/></g></g></g><g fill="#000000" fill-opacity="1"><g transform="translate(706.463296, 1054.374847)"><g><path d="M -12.199219 -25.742188 C -11.785156 -25.859375 -11.425781 -26.066406 -11.117188 -26.363281 L -10.847656 -26.519531 C -10.847656 -26.519531 -9.433594 -27.816406 -8.1875 -29.613281 L -4.402344 -34.917969 C -4.277344 -35.113281 -4.429688 -35.382812 -4.664062 -35.367188 L -4.804688 -35.40625 L -5.074219 -35.25 L -5.203125 -35.058594 C -8.183594 -31.058594 -10.261719 -28.417969 -11.277344 -27.472656 C -11.277344 -27.472656 -12.242188 -26.4375 -12.539062 -26.746094 C -13.367188 -27.351562 -13.308594 -28.703125 -13.167969 -29.503906 C -13.066406 -30.164062 -12.789062 -31.765625 -13.871094 -31.140625 C -14.050781 -31.035156 -14.375 -30.972656 -14.425781 -31.0625 C -14.722656 -31.371094 -14.941406 -31.125 -16.007812 -29.429688 C -16.941406 -27.929688 -18.03125 -25.859375 -18.59375 -24.335938 C -18.835938 -23.714844 -18.910156 -23.433594 -18.753906 -23.164062 C -18.496094 -22.710938 -18.171875 -22.777344 -17.632812 -23.089844 C -17.183594 -23.347656 -15.898438 -25.289062 -15.492188 -26.246094 C -15.132812 -27.292969 -14.324219 -28.597656 -14.273438 -28.507812 L -14.179688 -27.71875 C -14.203125 -27.347656 -14.085938 -26.933594 -13.929688 -26.664062 C -13.8125 -26.25 -13.65625 -25.980469 -13.179688 -25.777344 C -12.84375 -25.609375 -12.558594 -25.535156 -12.199219 -25.742188 Z M -17.921875 -24.003906 L -17.585938 -24.675781 C -17.359375 -25.527344 -16.488281 -27.351562 -15.628906 -28.566406 C -15.039062 -29.625 -14.859375 -29.730469 -14.753906 -29.550781 C -14.703125 -29.460938 -14.871094 -29.125 -15.089844 -28.878906 C -15.601562 -28.101562 -15.804688 -27.625 -15.882812 -27.339844 C -15.957031 -27.054688 -16.972656 -25.273438 -17.484375 -24.496094 Z M -17.921875 -24.003906 "/></g></g></g><g fill="#000000" fill-opacity="1"><g transform="translate(719.528202, 1046.842697)"><g><path d="M -8.605469 -27.214844 L -6.871094 -28.574219 C -5.363281 -29.921875 -2.925781 -32.769531 -2.925781 -32.769531 L -1.976562 -34.035156 L -1.242188 -35.058594 L -0.859375 -35.640625 C -0.347656 -36.417969 -0.253906 -36.46875 0.308594 -37.15625 C 1.09375 -38.085938 1.4375 -38.527344 0.652344 -38.433594 C 0.421875 -38.417969 -0.105469 -37.875 -1.53125 -35.972656 C -2.570312 -34.652344 -4.046875 -32.84375 -4.792969 -32.050781 C -8.339844 -28.207031 -10.34375 -26.691406 -11.019531 -27.863281 C -11.320312 -28.171875 -11.398438 -28.726562 -11.132812 -29.71875 C -10.878906 -30.945312 -11.761719 -32.476562 -12.539062 -30.707031 C -12.617188 -30.421875 -12.964844 -29.984375 -13.21875 -29.59375 L -15.375 -26.671875 L -15.316406 -28.027344 C -15.359375 -28.722656 -15.359375 -28.722656 -15.835938 -28.925781 C -16.457031 -29.167969 -16.765625 -28.871094 -16.875 -27.605469 L -17.039062 -26.433594 C -16.960938 -25.878906 -17.058594 -24.382812 -17.210938 -23.8125 L -17.054688 -23.542969 C -17.078125 -23.167969 -16.601562 -22.964844 -16.242188 -23.171875 C -16.097656 -23.132812 -15.933594 -23.46875 -15.714844 -23.714844 C -15.214844 -24.722656 -13.304688 -27.867188 -12.664062 -28.835938 L -12.574219 -28.886719 L -12.546875 -28.421875 L -12.492188 -28.332031 L -12.515625 -27.960938 C -12.527344 -27.351562 -11.722656 -26.375 -11.207031 -26.3125 C -10.40625 -26.175781 -9.453125 -26.605469 -8.605469 -27.214844 Z M -8.605469 -27.214844 "/></g></g></g><g fill="#000000" fill-opacity="1"><g transform="translate(737.999233, 1036.193819)"><g><path d="M -28.796875 19.601562 C -27.949219 18.992188 -26.597656 17.375 -25.664062 15.875 L -24.816406 14.425781 L -24.226562 13.367188 L -22.988281 10.730469 L -20.863281 5.664062 L -18.601562 -0.199219 C -17.59375 -2.824219 -16.167969 -7.847656 -15.714844 -10.390625 C -15.511719 -11.707031 -15.117188 -12.894531 -15.078125 -13.035156 C -15.015625 -13.550781 -13.425781 -15.789062 -12.023438 -17.316406 C -11.714844 -17.617188 -11.550781 -17.953125 -11.511719 -18.09375 C -11.472656 -18.234375 -11.382812 -18.289062 -11.292969 -18.339844 C -11.152344 -18.300781 -11.023438 -18.496094 -10.894531 -18.691406 C -10.855469 -18.832031 -10.546875 -19.128906 -10.421875 -19.324219 C -10.148438 -19.480469 -9.929688 -19.726562 -9.894531 -19.867188 C -9.804688 -19.917969 -9.546875 -20.308594 -9.058594 -20.710938 L -2.015625 -27.652344 C -1.707031 -27.949219 -1 -28.597656 -0.332031 -29.101562 C 0.648438 -29.90625 0.738281 -29.957031 0.710938 -29.582031 C 0.597656 -29.15625 0.792969 -29.03125 1.203125 -29.148438 C 1.527344 -29.210938 1.707031 -29.316406 2.089844 -29.898438 L 2.695312 -30.726562 C 2.785156 -30.777344 2.824219 -30.921875 2.898438 -31.203125 C 2.921875 -31.578125 2.535156 -31.835938 2.125 -31.71875 C 1.621094 -31.546875 0.375 -30.589844 -0.515625 -29.835938 L -2.238281 -28.242188 L -6.554688 -24.074219 C -8.097656 -22.582031 -9.371094 -21.25 -11.335938 -19.035156 L -12.992188 -17.121094 L -14.007812 -16.175781 L -14.789062 -15.242188 C -15.046875 -14.855469 -13.121094 -24.007812 -12.957031 -25.183594 L -12.671875 -27.390625 L -12.5625 -29.496094 C -12.5 -30.011719 -12.527344 -30.476562 -12.578125 -30.566406 C -12.632812 -30.65625 -12.824219 -30.785156 -12.980469 -31.054688 C -13.394531 -31.773438 -14.363281 -31.578125 -15.328125 -30.542969 C -15.855469 -29.996094 -16.789062 -28.496094 -17.121094 -27.824219 L -17.570312 -26.726562 C -17.609375 -26.585938 -17.789062 -26.480469 -17.917969 -26.289062 L -18.070312 -25.71875 C -18.273438 -25.242188 -17.910156 -24.609375 -17.484375 -24.496094 C -17.199219 -24.417969 -15.886719 -25.054688 -15.71875 -25.394531 L -14.078125 -27.539062 C -13.730469 -27.980469 -15.589844 -18.503906 -15.980469 -15.640625 C -16.253906 -13.199219 -16.765625 -12.421875 -17.292969 -11.878906 C -17.601562 -11.582031 -18.039062 -11.089844 -18.113281 -10.804688 C -18.332031 -10.558594 -18.5 -10.222656 -18.589844 -10.171875 C -18.820312 -10.15625 -22.375 -4.867188 -23.273438 -3.511719 C -23.605469 -2.839844 -23.953125 -2.398438 -24.042969 -2.347656 C -24.132812 -2.292969 -24.171875 -2.152344 -24.171875 -2.152344 C -24.117188 -2.0625 -24.285156 -1.726562 -24.503906 -1.480469 C -24.722656 -1.234375 -25.183594 -0.367188 -25.554688 0.445312 L -26.4375 2.035156 C -26.734375 2.566406 -27.769531 4.726562 -28.371094 6.390625 C -29.394531 8.78125 -30.800781 14.875 -30.578125 15.46875 C -30.527344 15.558594 -30.515625 15.792969 -30.550781 15.933594 L -30.640625 15.984375 C -30.667969 16.359375 -30.691406 16.734375 -30.765625 17.015625 C -30.597656 17.519531 -30.570312 17.984375 -30.632812 18.5 L -30.359375 19.183594 C -29.980469 20.046875 -29.644531 20.210938 -28.796875 19.601562 Z M -16.765625 -25.75 C -17.035156 -25.59375 -17.035156 -25.59375 -16.921875 -26.019531 C -16.769531 -26.589844 -16.105469 -27.933594 -15.410156 -28.8125 C -14.898438 -29.589844 -14.046875 -30.199219 -13.890625 -29.929688 C -13.632812 -29.476562 -15.863281 -26.269531 -16.765625 -25.75 Z M -29.390625 18.984375 C -29.625 19 -29.808594 18.265625 -29.914062 17.246094 C -29.9375 14.5 -29.710938 12.808594 -28.949219 9.96875 C -28.210938 7.5 -28.007812 7.023438 -26.90625 4.347656 C -26.332031 3.054688 -23.988281 -1.417969 -23.808594 -1.519531 L -23.257812 -2.441406 C -23.050781 -2.917969 -22.242188 -4.222656 -21.472656 -5.386719 C -20.742188 -6.410156 -20.101562 -7.378906 -20.152344 -7.46875 C -20.117188 -7.613281 -20.023438 -7.664062 -19.84375 -7.769531 L -19.535156 -8.066406 C -19.589844 -8.15625 -19.242188 -8.59375 -18.984375 -8.984375 L -18.074219 -10.109375 C -17.378906 -10.988281 -17.289062 -11.042969 -17.1875 -10.859375 C -17.132812 -10.769531 -17.171875 -10.628906 -17.171875 -10.628906 C -17.261719 -10.578125 -17.300781 -10.433594 -17.300781 -10.433594 C -17.042969 -9.984375 -18.46875 -4.960938 -20.355469 0.929688 L -21.617188 4.777344 C -21.769531 5.347656 -22.011719 5.96875 -22.179688 6.304688 L -22.585938 7.257812 C -22.90625 8.164062 -24.683594 11.949219 -24.863281 12.054688 C -24.953125 12.105469 -24.992188 12.246094 -24.941406 12.339844 C -24.980469 12.480469 -25.015625 12.621094 -25.109375 12.675781 C -25.199219 12.726562 -25.492188 13.257812 -25.824219 13.929688 C -26.695312 15.75 -27.425781 16.773438 -28.339844 17.898438 Z M -29.390625 18.984375 "/></g></g></g><g fill="#000000" fill-opacity="1"><g transform="translate(749.892821, 1029.336954)"><g><path d="M -14.085938 -33.179688 C -13.777344 -33.476562 -13.78125 -34.3125 -14.078125 -34.621094 C -14.183594 -34.804688 -14.464844 -34.878906 -14.609375 -34.917969 C -15.125 -34.980469 -15.382812 -34.59375 -15.160156 -34 C -15.003906 -33.730469 -14.988281 -33.496094 -15.027344 -33.355469 C -15.195312 -33.019531 -14.34375 -32.789062 -14.085938 -33.179688 Z M -15.480469 -23.730469 C -14.542969 -24.390625 -13.140625 -25.917969 -12.0625 -27.378906 L -9.136719 -31.46875 L -8.316406 -32.542969 C -8.148438 -32.878906 -8.304688 -33.148438 -8.539062 -33.132812 L -8.769531 -33.121094 L -8.949219 -33.015625 L -9.078125 -32.824219 C -12.054688 -28.824219 -14.136719 -26.1875 -15.242188 -25.1875 C -15.242188 -25.1875 -15.808594 -24.503906 -16.269531 -24.476562 C -16.480469 -24.835938 -16.597656 -25.246094 -16.535156 -25.765625 L -15.730469 -27.910156 C -15.167969 -29.433594 -15.15625 -30.039062 -15.710938 -29.960938 C -15.945312 -29.945312 -16.507812 -29.261719 -16.878906 -28.445312 C -17.722656 -26.160156 -17.921875 -24.84375 -17.402344 -23.941406 L -17.25 -23.671875 C -16.9375 -23.128906 -16.332031 -23.121094 -15.480469 -23.730469 Z M -15.480469 -23.730469 "/></g></g></g><g fill="#000000" fill-opacity="1"><g transform="translate(758.993252, 1024.090394)"><g><path d="M -13.429688 -23.710938 C -12.898438 -23.417969 -12.628906 -23.574219 -12.492188 -24.371094 C -12.3125 -25.316406 -12.574219 -25.765625 -13.074219 -25.597656 C -13.488281 -25.480469 -13.667969 -25.375 -13.796875 -25.179688 C -14.234375 -24.6875 -14.101562 -24.042969 -13.429688 -23.710938 Z M -13.429688 -23.710938 "/></g></g></g><g fill="#000000" fill-opacity="1"><g transform="translate(771.157144, 1017.077693)"><g><path d="M -14.085938 -33.179688 C -13.777344 -33.476562 -13.78125 -34.3125 -14.078125 -34.621094 C -14.183594 -34.804688 -14.464844 -34.878906 -14.609375 -34.917969 C -15.125 -34.980469 -15.382812 -34.59375 -15.160156 -34 C -15.003906 -33.730469 -14.988281 -33.496094 -15.027344 -33.355469 C -15.195312 -33.019531 -14.34375 -32.789062 -14.085938 -33.179688 Z M -15.480469 -23.730469 C -14.542969 -24.390625 -13.140625 -25.917969 -12.0625 -27.378906 L -9.136719 -31.46875 L -8.316406 -32.542969 C -8.148438 -32.878906 -8.304688 -33.148438 -8.539062 -33.132812 L -8.769531 -33.121094 L -8.949219 -33.015625 L -9.078125 -32.824219 C -12.054688 -28.824219 -14.136719 -26.1875 -15.242188 -25.1875 C -15.242188 -25.1875 -15.808594 -24.503906 -16.269531 -24.476562 C -16.480469 -24.835938 -16.597656 -25.246094 -16.535156 -25.765625 L -15.730469 -27.910156 C -15.167969 -29.433594 -15.15625 -30.039062 -15.710938 -29.960938 C -15.945312 -29.945312 -16.507812 -29.261719 -16.878906 -28.445312 C -17.722656 -26.160156 -17.921875 -24.84375 -17.402344 -23.941406 L -17.25 -23.671875 C -16.9375 -23.128906 -16.332031 -23.121094 -15.480469 -23.730469 Z M -15.480469 -23.730469 "/></g></g></g><g fill="#000000" fill-opacity="1"><g transform="translate(780.257575, 1011.831133)"><g><path d="M -15.210938 -23.886719 C -13.949219 -24.613281 -12.835938 -27.054688 -12.800781 -28.035156 L -12.582031 -28.28125 C -11.578125 -28.621094 -10.445312 -29.152344 -9.273438 -29.828125 C -8.011719 -30.554688 -5.335938 -32.578125 -3.910156 -34.480469 L -3.308594 -35.308594 C -3.179688 -35.503906 -3.195312 -35.734375 -3.386719 -35.863281 C -3.582031 -35.992188 -3.851562 -35.835938 -3.890625 -35.695312 C -5.1875 -33.984375 -6.753906 -32.121094 -9.816406 -30.355469 C -10.539062 -29.941406 -11.3125 -29.613281 -11.957031 -29.484375 C -12.1875 -29.46875 -12.421875 -29.457031 -12.832031 -29.339844 L -13.300781 -30.148438 C -13.351562 -30.238281 -13.457031 -30.417969 -13.597656 -30.457031 C -13.792969 -30.585938 -14.164062 -30.609375 -14.4375 -30.453125 L -15.660156 -29.871094 L -15.890625 -29.855469 L -16.457031 -29.167969 L -17.105469 -26.753906 C -17.21875 -26.328125 -17.222656 -24.046875 -16.359375 -23.585938 C -15.878906 -23.378906 -15.878906 -23.378906 -15.210938 -23.886719 Z M -14.351562 -29.0625 C -14.585938 -29.046875 -14.726562 -29.085938 -14.546875 -29.191406 C -14.457031 -29.242188 -14.316406 -29.203125 -14.226562 -29.253906 C -14.171875 -29.164062 -14.121094 -29.074219 -14.351562 -29.0625 Z M -15.40625 -24.851562 C -15.5 -24.800781 -16.117188 -25.042969 -15.929688 -26.589844 C -15.804688 -27.625 -15.585938 -27.871094 -15.316406 -28.027344 L -14.800781 -27.964844 L -14.105469 -28.003906 C -13.960938 -27.964844 -13.550781 -28.085938 -14.148438 -26.417969 C -14.546875 -25.230469 -15.316406 -24.902344 -15.40625 -24.851562 Z M -15.40625 -24.851562 "/></g></g></g></svg>