<svg xmlns="http://www.w3.org/2000/svg" xmlns:xlink="http://www.w3.org/1999/xlink" width="1200" zoomAndPan="magnify" viewBox="0 0 900 1199.999942" height="1600" preserveAspectRatio="xMidYMid meet" version="1.0"><defs><g/><clipPath id="652beebfbe"><path d="M 348.515625 533.890625 L 734.441406 533.890625 L 734.441406 597.484375 L 348.515625 597.484375 Z M 348.515625 533.890625 " clip-rule="nonzero"/></clipPath></defs><rect x="-90" width="1080" fill="#ffffff" y="-119.999994" height="1439.999931" fill-opacity="1"/><rect x="-90" width="1080" fill="#ffffff" y="-119.999994" height="1439.999931" fill-opacity="1"/><g fill="#000000" fill-opacity="1"><g transform="translate(225.722109, 573.514508)"><g><path d="M 141.335938 1.101562 C 175.847656 1.101562 208.152344 -12.113281 232.378906 -36.710938 C 232.746094 -37.078125 232.746094 -37.445312 232.378906 -38.179688 C 232.015625 -38.546875 231.28125 -38.546875 230.914062 -38.179688 C 207.050781 -13.949219 175.113281 -0.734375 141.335938 -0.734375 C 87.738281 -0.734375 44.054688 -57.636719 44.054688 -127.753906 C 44.054688 -197.871094 87.738281 -254.773438 141.335938 -254.773438 C 175.113281 -254.773438 207.050781 -241.558594 230.914062 -217.695312 C 231.28125 -217.328125 232.015625 -217.328125 232.378906 -217.695312 C 232.746094 -218.0625 232.746094 -218.796875 232.378906 -219.164062 C 208.152344 -243.394531 175.847656 -256.609375 141.335938 -256.609375 C 106.828125 -256.609375 74.523438 -243.394531 49.925781 -219.164062 C -0.367188 -168.871094 -0.367188 -87.003906 49.925781 -36.710938 C 74.523438 -12.113281 106.828125 1.101562 141.335938 1.101562 Z M 141.335938 1.101562 "/></g></g></g><g clip-path="url(#652beebfbe)"><path fill="#cbcdd2" d="M 348.515625 533.890625 L 734.441406 533.890625 L 734.441406 597.484375 L 348.515625 597.484375 Z M 348.515625 533.890625 " fill-opacity="1" fill-rule="nonzero"/></g><g fill="#000000" fill-opacity="1"><g transform="translate(308.781812, 660.06989)"><g><path d="M 12.480469 0 C 12.113281 0.367188 12.480469 1.101562 12.847656 1.101562 C 13.214844 1.101562 13.214844 1.101562 13.214844 1.101562 C 13.582031 1.101562 13.949219 0.734375 14.316406 0.367188 L 77.460938 -202.644531 L 140.601562 0.367188 C 140.96875 0.734375 141.335938 1.101562 141.703125 1.101562 L 172.910156 1.101562 C 172.910156 1.101562 173.277344 1.101562 173.644531 0.734375 C 173.644531 0.367188 173.644531 0.367188 173.644531 0 L 93.980469 -256.242188 C 93.613281 -256.609375 93.613281 -256.609375 93.613281 -256.609375 C 93.613281 -256.609375 93.613281 -256.609375 93.246094 -256.609375 C 93.246094 -256.609375 93.246094 -256.976562 92.878906 -256.976562 C 92.878906 -256.976562 92.878906 -256.609375 92.878906 -256.609375 C 92.511719 -256.609375 92.511719 -256.609375 92.511719 -256.609375 C 92.511719 -256.609375 92.511719 -256.609375 92.144531 -256.242188 L 76.359375 -205.949219 Z M 12.480469 0 "/></g></g></g><g fill="#000000" fill-opacity="1"><g transform="translate(210.419956, 817.389717)"><g><path d="M 4.140625 -24.21875 C 4.140625 -29.050781 5.101562 -33.34375 7.03125 -37.09375 C 8.96875 -40.84375 11.660156 -43.773438 15.109375 -45.890625 C 18.554688 -48.003906 22.441406 -49.0625 26.765625 -49.0625 C 32.429688 -49.0625 37.113281 -47.75 40.8125 -45.125 C 44.519531 -42.5 47.222656 -38.863281 48.921875 -34.21875 L 47.546875 -34.21875 C 46.066406 -38.3125 43.554688 -41.597656 40.015625 -44.078125 C 36.472656 -46.566406 32.054688 -47.8125 26.765625 -47.8125 C 22.816406 -47.8125 19.226562 -46.859375 16 -44.953125 C 12.78125 -43.046875 10.238281 -40.304688 8.375 -36.734375 C 6.519531 -33.171875 5.59375 -29 5.59375 -24.21875 C 5.59375 -19.476562 6.519531 -15.335938 8.375 -11.796875 C 10.238281 -8.253906 12.789062 -5.53125 16.03125 -3.625 C 19.28125 -1.71875 22.859375 -0.765625 26.765625 -0.765625 C 32.054688 -0.765625 36.472656 -1.992188 40.015625 -4.453125 C 43.554688 -6.910156 46.066406 -10.1875 47.546875 -14.28125 L 48.921875 -14.28125 C 47.222656 -9.632812 44.519531 -6.007812 40.8125 -3.40625 C 37.113281 -0.8125 32.429688 0.484375 26.765625 0.484375 C 22.441406 0.484375 18.554688 -0.5625 15.109375 -2.65625 C 11.660156 -4.75 8.96875 -7.671875 7.03125 -11.421875 C 5.101562 -15.171875 4.140625 -19.4375 4.140625 -24.21875 Z M 4.140625 -24.21875 "/></g></g></g><g fill="#000000" fill-opacity="1"><g transform="translate(263.482104, 817.389717)"><g><path d="M 4.140625 -18.625 C 4.140625 -22.539062 4.894531 -25.9375 6.40625 -28.8125 C 7.925781 -31.6875 10.066406 -33.894531 12.828125 -35.4375 C 15.585938 -36.976562 18.738281 -37.75 22.28125 -37.75 C 26.5625 -37.75 30.1875 -36.628906 33.15625 -34.390625 C 36.125 -32.160156 38.113281 -29.320312 39.125 -25.875 L 39.125 -37.265625 L 40.4375 -37.265625 L 40.4375 0 L 39.125 0 L 39.125 -11.390625 C 38.113281 -7.929688 36.125 -5.085938 33.15625 -2.859375 C 30.1875 -0.628906 26.5625 0.484375 22.28125 0.484375 C 18.738281 0.484375 15.585938 -0.285156 12.828125 -1.828125 C 10.066406 -3.367188 7.925781 -5.578125 6.40625 -8.453125 C 4.894531 -11.328125 4.140625 -14.71875 4.140625 -18.625 Z M 39.125 -18.625 C 39.125 -22.164062 38.398438 -25.28125 36.953125 -27.96875 C 35.503906 -30.664062 33.5 -32.757812 30.9375 -34.25 C 28.382812 -35.75 25.5 -36.5 22.28125 -36.5 C 18.882812 -36.5 15.929688 -35.785156 13.421875 -34.359375 C 10.910156 -32.929688 8.960938 -30.875 7.578125 -28.1875 C 6.203125 -25.5 5.515625 -22.3125 5.515625 -18.625 C 5.515625 -14.945312 6.203125 -11.757812 7.578125 -9.0625 C 8.960938 -6.375 10.910156 -4.316406 13.421875 -2.890625 C 15.929688 -1.472656 18.882812 -0.765625 22.28125 -0.765625 C 25.5 -0.765625 28.382812 -1.507812 30.9375 -3 C 33.5 -4.5 35.503906 -6.59375 36.953125 -9.28125 C 38.398438 -11.96875 39.125 -15.082031 39.125 -18.625 Z M 39.125 -18.625 "/></g></g></g><g fill="#000000" fill-opacity="1"><g transform="translate(309.782106, 817.389717)"><g><path d="M 17.875 0.484375 C 13.78125 0.484375 10.476562 -0.34375 7.96875 -2 C 5.457031 -3.65625 4 -6.160156 3.59375 -9.515625 L 4.96875 -9.515625 C 5.238281 -6.753906 6.46875 -4.601562 8.65625 -3.0625 C 10.84375 -1.53125 13.9375 -0.765625 17.9375 -0.765625 C 19.957031 -0.765625 21.738281 -1.15625 23.28125 -1.9375 C 24.820312 -2.71875 26.003906 -3.757812 26.828125 -5.0625 C 27.660156 -6.375 28.078125 -7.789062 28.078125 -9.3125 C 28.078125 -10.96875 27.601562 -12.3125 26.65625 -13.34375 C 25.71875 -14.382812 24.546875 -15.179688 23.140625 -15.734375 C 21.742188 -16.285156 19.828125 -16.882812 17.390625 -17.53125 C 14.671875 -18.21875 12.472656 -18.90625 10.796875 -19.59375 C 9.117188 -20.28125 7.691406 -21.335938 6.515625 -22.765625 C 5.347656 -24.191406 4.765625 -26.078125 4.765625 -28.421875 C 4.765625 -30.078125 5.269531 -31.617188 6.28125 -33.046875 C 7.289062 -34.472656 8.679688 -35.613281 10.453125 -36.46875 C 12.222656 -37.320312 14.210938 -37.75 16.421875 -37.75 C 20.191406 -37.75 23.226562 -36.800781 25.53125 -34.90625 C 27.832031 -33.019531 29.070312 -30.398438 29.25 -27.046875 L 27.875 -27.046875 C 27.738281 -29.804688 26.691406 -32.070312 24.734375 -33.84375 C 22.773438 -35.613281 20.003906 -36.5 16.421875 -36.5 C 14.492188 -36.5 12.742188 -36.128906 11.171875 -35.390625 C 9.609375 -34.660156 8.378906 -33.671875 7.484375 -32.421875 C 6.585938 -31.179688 6.140625 -29.847656 6.140625 -28.421875 C 6.140625 -26.398438 6.664062 -24.769531 7.71875 -23.53125 C 8.78125 -22.289062 10.082031 -21.367188 11.625 -20.765625 C 13.164062 -20.171875 15.222656 -19.53125 17.796875 -18.84375 C 20.421875 -18.101562 22.476562 -17.429688 23.96875 -16.828125 C 25.46875 -16.234375 26.742188 -15.328125 27.796875 -14.109375 C 28.859375 -12.890625 29.390625 -11.289062 29.390625 -9.3125 C 29.390625 -7.476562 28.882812 -5.8125 27.875 -4.3125 C 26.863281 -2.8125 25.484375 -1.632812 23.734375 -0.78125 C 21.984375 0.0625 20.03125 0.484375 17.875 0.484375 Z M 17.875 0.484375 "/></g></g></g><g fill="#000000" fill-opacity="1"><g transform="translate(343.109829, 817.389717)"><g><path d="M 7.171875 -25.875 C 8.179688 -29.320312 10.171875 -32.160156 13.140625 -34.390625 C 16.109375 -36.628906 19.734375 -37.75 24.015625 -37.75 C 27.554688 -37.75 30.707031 -36.976562 33.46875 -35.4375 C 36.226562 -33.894531 38.363281 -31.6875 39.875 -28.8125 C 41.394531 -25.9375 42.15625 -22.539062 42.15625 -18.625 C 42.15625 -14.71875 41.394531 -11.328125 39.875 -8.453125 C 38.363281 -5.578125 36.226562 -3.367188 33.46875 -1.828125 C 30.707031 -0.285156 27.554688 0.484375 24.015625 0.484375 C 19.734375 0.484375 16.109375 -0.628906 13.140625 -2.859375 C 10.171875 -5.085938 8.179688 -7.929688 7.171875 -11.390625 L 7.171875 17.53125 L 5.859375 17.53125 L 5.859375 -37.265625 L 7.171875 -37.265625 Z M 40.78125 -18.625 C 40.78125 -22.3125 40.085938 -25.5 38.703125 -28.1875 C 37.328125 -30.875 35.382812 -32.929688 32.875 -34.359375 C 30.375 -35.785156 27.421875 -36.5 24.015625 -36.5 C 20.796875 -36.5 17.90625 -35.75 15.34375 -34.25 C 12.789062 -32.757812 10.789062 -30.664062 9.34375 -27.96875 C 7.894531 -25.28125 7.171875 -22.164062 7.171875 -18.625 C 7.171875 -15.082031 7.894531 -11.96875 9.34375 -9.28125 C 10.789062 -6.59375 12.789062 -4.5 15.34375 -3 C 17.90625 -1.507812 20.796875 -0.765625 24.015625 -0.765625 C 27.421875 -0.765625 30.375 -1.472656 32.875 -2.890625 C 35.382812 -4.316406 37.328125 -6.375 38.703125 -9.0625 C 40.085938 -11.757812 40.78125 -14.945312 40.78125 -18.625 Z M 40.78125 -18.625 "/></g></g></g><g fill="#000000" fill-opacity="1"><g transform="translate(389.409831, 817.389717)"><g><path d="M 6.5625 -46.78125 C 6.050781 -46.78125 5.625 -46.953125 5.28125 -47.296875 C 4.9375 -47.640625 4.765625 -48.085938 4.765625 -48.640625 C 4.765625 -49.191406 4.9375 -49.640625 5.28125 -49.984375 C 5.625 -50.335938 6.050781 -50.515625 6.5625 -50.515625 C 7.0625 -50.515625 7.484375 -50.335938 7.828125 -49.984375 C 8.171875 -49.640625 8.34375 -49.191406 8.34375 -48.640625 C 8.34375 -48.085938 8.171875 -47.640625 7.828125 -47.296875 C 7.484375 -46.953125 7.0625 -46.78125 6.5625 -46.78125 Z M 7.25 -37.265625 L 7.25 0 L 5.859375 0 L 5.859375 -37.265625 Z M 7.25 -37.265625 "/></g></g></g><g fill="#000000" fill-opacity="1"><g transform="translate(402.520101, 817.389717)"><g><path d="M 4.140625 -18.625 C 4.140625 -22.539062 4.894531 -25.9375 6.40625 -28.8125 C 7.925781 -31.6875 10.066406 -33.894531 12.828125 -35.4375 C 15.585938 -36.976562 18.738281 -37.75 22.28125 -37.75 C 26.5625 -37.75 30.1875 -36.628906 33.15625 -34.390625 C 36.125 -32.160156 38.113281 -29.320312 39.125 -25.875 L 39.125 -37.265625 L 40.4375 -37.265625 L 40.4375 0 L 39.125 0 L 39.125 -11.390625 C 38.113281 -7.929688 36.125 -5.085938 33.15625 -2.859375 C 30.1875 -0.628906 26.5625 0.484375 22.28125 0.484375 C 18.738281 0.484375 15.585938 -0.285156 12.828125 -1.828125 C 10.066406 -3.367188 7.925781 -5.578125 6.40625 -8.453125 C 4.894531 -11.328125 4.140625 -14.71875 4.140625 -18.625 Z M 39.125 -18.625 C 39.125 -22.164062 38.398438 -25.28125 36.953125 -27.96875 C 35.503906 -30.664062 33.5 -32.757812 30.9375 -34.25 C 28.382812 -35.75 25.5 -36.5 22.28125 -36.5 C 18.882812 -36.5 15.929688 -35.785156 13.421875 -34.359375 C 10.910156 -32.929688 8.960938 -30.875 7.578125 -28.1875 C 6.203125 -25.5 5.515625 -22.3125 5.515625 -18.625 C 5.515625 -14.945312 6.203125 -11.757812 7.578125 -9.0625 C 8.960938 -6.375 10.910156 -4.316406 13.421875 -2.890625 C 15.929688 -1.472656 18.882812 -0.765625 22.28125 -0.765625 C 25.5 -0.765625 28.382812 -1.507812 30.9375 -3 C 33.5 -4.5 35.503906 -6.59375 36.953125 -9.28125 C 38.398438 -11.96875 39.125 -15.082031 39.125 -18.625 Z M 39.125 -18.625 "/></g></g></g><g fill="#000000" fill-opacity="1"><g transform="translate(448.820104, 817.389717)"><g><path d="M 21.875 -38.09375 C 26.238281 -38.09375 29.820312 -36.734375 32.625 -34.015625 C 35.4375 -31.304688 36.84375 -27.210938 36.84375 -21.734375 L 36.84375 0 L 35.53125 0 L 35.53125 -21.875 C 35.53125 -26.75 34.3125 -30.460938 31.875 -33.015625 C 29.4375 -35.566406 26.101562 -36.84375 21.875 -36.84375 C 17.457031 -36.84375 13.914062 -35.40625 11.25 -32.53125 C 8.582031 -29.65625 7.25 -25.410156 7.25 -19.796875 L 7.25 0 L 5.859375 0 L 5.859375 -37.265625 L 7.25 -37.265625 L 7.25 -27.46875 C 8.125 -30.914062 9.867188 -33.546875 12.484375 -35.359375 C 15.109375 -37.179688 18.238281 -38.09375 21.875 -38.09375 Z M 21.875 -38.09375 "/></g></g></g><g fill="#000000" fill-opacity="1"><g transform="translate(491.187014, 817.389717)"><g/></g></g><g fill="#000000" fill-opacity="1"><g transform="translate(511.197443, 817.389717)"><g><path d="M 32.78125 -13.390625 L 8.765625 -13.390625 L 3.65625 0 L 2.0625 0 L 20.078125 -47.125 L 21.453125 -47.125 L 39.40625 0 L 37.8125 0 Z M 32.296875 -14.625 L 20.765625 -44.921875 L 9.25 -14.625 Z M 32.296875 -14.625 "/></g></g></g><g fill="#000000" fill-opacity="1"><g transform="translate(552.667332, 817.389717)"><g><path d="M 17.796875 -2.0625 L 32.703125 -37.265625 L 34.15625 -37.265625 L 18.28125 0 L 17.25 0 L 1.375 -37.265625 L 2.890625 -37.265625 Z M 17.796875 -2.0625 "/></g></g></g><g fill="#000000" fill-opacity="1"><g transform="translate(588.203089, 817.389717)"><g><path d="M 22.078125 -0.765625 C 26.265625 -0.765625 29.785156 -1.820312 32.640625 -3.9375 C 35.492188 -6.050781 37.21875 -8.945312 37.8125 -12.625 L 39.1875 -12.625 C 38.539062 -8.71875 36.710938 -5.554688 33.703125 -3.140625 C 30.691406 -0.722656 26.816406 0.484375 22.078125 0.484375 C 18.628906 0.484375 15.546875 -0.273438 12.828125 -1.796875 C 10.117188 -3.316406 7.992188 -5.523438 6.453125 -8.421875 C 4.910156 -11.316406 4.140625 -14.71875 4.140625 -18.625 C 4.140625 -22.539062 4.910156 -25.945312 6.453125 -28.84375 C 7.992188 -31.738281 10.117188 -33.945312 12.828125 -35.46875 C 15.546875 -36.988281 18.628906 -37.75 22.078125 -37.75 C 25.710938 -37.75 28.816406 -36.976562 31.390625 -35.4375 C 33.972656 -33.894531 35.914062 -31.90625 37.21875 -29.46875 C 38.53125 -27.03125 39.1875 -24.453125 39.1875 -21.734375 C 39.1875 -20.078125 39.164062 -18.835938 39.125 -18.015625 L 5.515625 -18.015625 C 5.566406 -14.191406 6.363281 -10.988281 7.90625 -8.40625 C 9.445312 -5.832031 11.457031 -3.914062 13.9375 -2.65625 C 16.414062 -1.394531 19.128906 -0.765625 22.078125 -0.765625 Z M 22.078125 -36.5 C 19.128906 -36.5 16.414062 -35.863281 13.9375 -34.59375 C 11.457031 -33.332031 9.445312 -31.414062 7.90625 -28.84375 C 6.363281 -26.269531 5.566406 -23.070312 5.515625 -19.25 L 37.953125 -19.25 C 38.179688 -23.070312 37.570312 -26.269531 36.125 -28.84375 C 34.675781 -31.414062 32.695312 -33.332031 30.1875 -34.59375 C 27.675781 -35.863281 24.972656 -36.5 22.078125 -36.5 Z M 22.078125 -36.5 "/></g></g></g><g fill="#000000" fill-opacity="1"><g transform="translate(631.536026, 817.389717)"><g><path d="M 7.25 -28.21875 C 8.71875 -34.800781 13.613281 -38.09375 21.9375 -38.09375 L 21.9375 -36.5625 L 21.328125 -36.5625 C 17.410156 -36.5625 14.082031 -35.421875 11.34375 -33.140625 C 8.613281 -30.867188 7.25 -27.207031 7.25 -22.15625 L 7.25 0 L 5.859375 0 L 5.859375 -37.265625 L 7.25 -37.265625 Z M 7.25 -28.21875 "/></g></g></g><g fill="#000000" fill-opacity="1"><g transform="translate(654.858508, 817.389717)"><g><path d="M 33.328125 -37.265625 L 12.078125 17.53125 L 10.625 17.53125 L 17.390625 0.203125 L 1.375 -37.265625 L 2.765625 -37.265625 L 18.078125 -1.453125 L 31.953125 -37.265625 Z M 33.328125 -37.265625 "/></g></g></g><g fill="#000000" fill-opacity="1"><g transform="translate(591.402793, 1120.709274)"><g><path d="M 60.695312 -34.03125 C 60.734375 -34.175781 60.769531 -35.15625 60.738281 -36.457031 L 60.691406 -38.832031 L 60.871094 -42.058594 L 61.054688 -44.445312 C 61.179688 -46.316406 61.703125 -50.820312 61.742188 -50.960938 C 61.867188 -51.15625 62.042969 -52.9375 61.992188 -53.027344 L 62.015625 -53.402344 L 62.277344 -55.234375 L 62.679688 -58.707031 L 62.96875 -60.074219 L 65.660156 -75.191406 L 65.761719 -75.847656 L 67.257812 -81.996094 C 68.339844 -85.742188 68.632812 -87.109375 68.773438 -87.910156 L 69.472656 -90.234375 C 69.703125 -91.085938 69.929688 -91.9375 69.863281 -92.261719 L 70.015625 -92.828125 C 70.109375 -92.882812 70.351562 -93.5 70.488281 -94.300781 C 70.855469 -95.953125 71.519531 -98.136719 71.929688 -99.09375 C 72.390625 -99.960938 73.550781 -103.152344 74.0625 -104.765625 L 75.082031 -107.996094 C 75.757812 -109.945312 75.730469 -110.410156 75.125 -110.417969 C 74.605469 -110.484375 74.171875 -109.992188 73.789062 -108.570312 C 73.507812 -107.808594 73.226562 -107.046875 73.136719 -106.992188 C 73.007812 -106.800781 72.96875 -106.65625 73.023438 -106.566406 C 73.179688 -106.296875 69.960938 -97.71875 69.394531 -97.03125 L 68.457031 -95.53125 L 65.203125 -89.933594 C 64.78125 -89.210938 64.28125 -88.203125 64.078125 -87.722656 C 63.925781 -87.15625 63.667969 -86.769531 63.578125 -86.714844 L 62.949219 -85.515625 C 62.707031 -84.894531 62.296875 -83.9375 61.953125 -83.496094 L 61.246094 -82.011719 C 61.003906 -81.390625 59.289062 -78.121094 59.109375 -78.015625 L 58.777344 -77.34375 L 58.390625 -76.761719 C 58.339844 -76.851562 58.042969 -76.324219 57.800781 -75.703125 L 57.636719 -75.367188 L 56.496094 -73.386719 C 55.941406 -72.46875 55.390625 -71.550781 55.300781 -71.5 C 55.210938 -71.449219 55.082031 -71.253906 55.046875 -71.113281 C 54.957031 -70.222656 52.492188 -67 51.464844 -66.285156 C 50.796875 -65.78125 50.707031 -65.730469 50.730469 -66.101562 C 50.625 -66.285156 50.6875 -66.800781 50.660156 -67.265625 L 50.734375 -68.386719 L 50.882812 -69.792969 C 50.894531 -70.398438 51.058594 -71.574219 51.054688 -72.414062 L 51.085938 -74.230469 L 51.351562 -76.066406 C 51.5 -77.472656 52.042969 -80.066406 52.296875 -81.292969 L 53.214844 -84.703125 L 53.527344 -86.445312 C 53.78125 -87.671875 53.996094 -88.757812 54.339844 -90.035156 C 54.417969 -90.320312 54.441406 -90.691406 54.441406 -90.691406 C 54.390625 -90.785156 54.824219 -92.113281 55.332031 -93.726562 L 56.632812 -97.71875 L 57.054688 -99.28125 C 58.355469 -102.433594 58.828125 -103.90625 58.953125 -104.941406 L 59.335938 -106.359375 L 59.550781 -107.445312 L 60.25 -110.609375 L 61.328125 -115.191406 C 61.59375 -116.1875 61.785156 -116.898438 62 -117.980469 L 62.253906 -119.207031 L 62.597656 -120.484375 C 62.914062 -122.230469 62.496094 -122.949219 61.414062 -122.328125 C 61.144531 -122.171875 60.890625 -121.78125 60.710938 -120.839844 L 59.441406 -115.546875 C 59.160156 -114.785156 58.894531 -113.789062 58.832031 -113.273438 C 58.820312 -112.667969 58.59375 -111.8125 58.441406 -111.246094 C 57.882812 -108.882812 57.539062 -107.605469 57.144531 -105.578125 C 56.703125 -103.640625 55.695312 -100.179688 55.425781 -100.023438 C 55.246094 -99.921875 54.300781 -96.976562 54.445312 -96.9375 C 54.535156 -96.988281 54.152344 -95.570312 53.640625 -93.953125 C 52.660156 -90.867188 52.46875 -90.15625 51.886719 -87.417969 C 51.75 -86.621094 51.558594 -85.910156 51.46875 -85.855469 C 51.324219 -85.894531 51.234375 -85.84375 51.378906 -85.804688 C 51.519531 -85.765625 51.433594 -84.875 51.164062 -83.882812 L 50.199219 -79.722656 C 50 -78.40625 49.683594 -76.664062 49.632812 -75.917969 L 49.523438 -74.652344 C 49.410156 -74.226562 49.203125 -70.625 49.253906 -70.535156 L 49.144531 -69.269531 C 48.957031 -67.722656 49.03125 -64.882812 49.238281 -64.523438 C 49.863281 -63.441406 52.191406 -65.023438 54.128906 -67.703125 C 55.167969 -69.023438 56.476562 -71.335938 56.628906 -71.90625 C 56.617188 -72.136719 56.742188 -72.332031 56.832031 -72.382812 C 56.925781 -72.433594 57.269531 -72.875 57.566406 -73.40625 L 59.871094 -77.734375 L 61.394531 -80.296875 C 61.484375 -80.347656 61.5625 -80.632812 61.546875 -80.863281 C 61.625 -81.148438 61.703125 -81.433594 61.792969 -81.484375 C 61.882812 -81.535156 62.046875 -81.871094 62.253906 -82.351562 C 62.457031 -82.828125 62.699219 -83.449219 62.828125 -83.644531 L 63.339844 -84.417969 C 63.585938 -85.039062 64.339844 -86.433594 64.507812 -86.769531 L 64.839844 -87.441406 C 65.121094 -88.207031 66.390625 -90.378906 66.570312 -90.480469 C 66.660156 -90.535156 66.789062 -90.726562 66.773438 -90.960938 C 66.851562 -91.242188 67.054688 -91.722656 67.3125 -92.109375 L 68.59375 -94.050781 L 68.378906 -92.964844 L 67.234375 -88.703125 C 67.246094 -88.472656 66.613281 -85.824219 66.292969 -84.921875 C 66.011719 -84.15625 65.570312 -82.222656 65.367188 -80.90625 L 65.050781 -79.160156 L 64.503906 -77.40625 L 64.238281 -75.574219 L 63.265625 -70.808594 L 62.976562 -68.601562 L 62.722656 -67.375 C 62.660156 -66.859375 62.597656 -66.34375 62.507812 -66.289062 C 62.417969 -66.238281 62.46875 -66.148438 62.519531 -66.058594 C 62.625 -65.878906 62.144531 -62.960938 61.980469 -62.625 L 61.753906 -60.933594 L 61.414062 -58.816406 L 61.085938 -56.46875 L 60.738281 -52.90625 L 60.492188 -50.003906 C 60.273438 -46.632812 60.074219 -44.480469 59.960938 -44.054688 C 59.882812 -43.769531 59.847656 -43.625 59.9375 -43.679688 C 59.9375 -43.679688 60.003906 -43.355469 59.976562 -42.980469 L 59.875 -39.203125 L 60.070312 -35.953125 C 60.136719 -34.789062 60.476562 -33.785156 60.695312 -34.03125 Z M 10.925781 -3.539062 C 12.320312 -3.621094 14.671875 -5.578125 16.570312 -8.113281 C 16.828125 -8.5 17.304688 -9.136719 17.664062 -9.34375 C 18.679688 -10.289062 25.054688 -19.847656 25.488281 -21.175781 L 26.652344 -23.53125 C 27.742188 -25.597656 27.703125 -25.457031 28.175781 -26.929688 L 29.3125 -29.746094 L 30.679688 -33.414062 L 31.46875 -35.789062 L 32.082031 -37.226562 C 32.324219 -37.84375 32.773438 -38.941406 33.003906 -39.796875 L 37.445312 -52.082031 C 38.160156 -54.171875 39.320312 -57.363281 40.023438 -58.851562 C 40.472656 -59.949219 40.867188 -61.136719 40.710938 -61.40625 C 40.609375 -61.589844 40.964844 -62.632812 41.195312 -62.648438 C 41.285156 -62.699219 41.46875 -62.804688 41.542969 -63.089844 L 44.148438 -70.230469 C 44.222656 -70.515625 44.25 -70.890625 44.183594 -71.210938 C 44.167969 -71.445312 44.195312 -71.820312 44.410156 -72.066406 C 44.71875 -72.363281 45.640625 -74.933594 45.929688 -76.300781 L 46.3125 -77.722656 L 48.734375 -85.601562 C 49.089844 -86.648438 49.421875 -88.160156 49.46875 -88.90625 C 49.515625 -89.65625 49.671875 -90.222656 49.902344 -90.238281 C 49.992188 -90.289062 50.082031 -90.339844 50.03125 -90.429688 C 49.925781 -90.613281 50.359375 -91.941406 50.65625 -92.472656 C 50.785156 -92.664062 50.769531 -92.898438 50.664062 -93.078125 C 50.472656 -93.207031 50.507812 -93.347656 50.78125 -93.503906 C 51.050781 -93.660156 51.125 -93.945312 51.0625 -94.265625 C 50.996094 -94.589844 51.070312 -94.871094 51.160156 -94.925781 C 51.339844 -95.027344 51.699219 -96.074219 52.527344 -98.59375 L 53.445312 -101.164062 C 54.417969 -103.644531 54.914062 -105.492188 54.667969 -105.710938 C 54.332031 -105.875 53.882812 -105.617188 53.910156 -105.152344 C 53.871094 -105.011719 53.679688 -104.300781 53.398438 -103.539062 C 52.554688 -101.25 51.078125 -96.316406 51.105469 -95.851562 C 51.121094 -95.621094 51.082031 -95.480469 50.992188 -95.425781 C 50.851562 -95.464844 50.605469 -94.84375 50.453125 -94.277344 L 49.832031 -92.238281 C 49.714844 -91.808594 49.523438 -91.101562 49.5 -90.726562 C 49.476562 -90.351562 49.308594 -90.015625 49.21875 -89.964844 C 49.21875 -89.964844 48.503906 -87.871094 47.855469 -85.457031 C 45.792969 -78.625 44.507812 -74.398438 44.414062 -74.347656 C 44.324219 -74.296875 43.359375 -70.976562 42.527344 -68.457031 L 41.570312 -65.746094 C 41.238281 -65.074219 40.972656 -64.078125 40.765625 -63.601562 C 40.703125 -63.085938 40.5 -62.605469 40.410156 -62.554688 C 40.320312 -62.503906 40.152344 -62.167969 40.039062 -61.742188 L 37.496094 -55.113281 L 36.527344 -52.632812 C 36.410156 -52.207031 36.195312 -51.960938 36.195312 -51.960938 C 36.105469 -51.910156 36.027344 -51.625 35.949219 -51.339844 L 34.804688 -47.917969 C 33.382812 -44.339844 33.027344 -43.292969 32.199219 -40.773438 C 31.804688 -39.585938 31.316406 -38.34375 31.097656 -38.097656 C 30.84375 -37.710938 30.625 -37.464844 30.675781 -37.375 C 30.726562 -37.285156 30.589844 -36.484375 30.269531 -35.578125 L 29.609375 -33.398438 C 29.582031 -33.023438 29.417969 -32.6875 29.238281 -32.582031 C 29.148438 -32.53125 28.980469 -32.195312 28.867188 -31.769531 C 28.804688 -31.253906 28.597656 -30.773438 28.378906 -30.527344 C 28.199219 -30.425781 27.90625 -29.894531 27.828125 -29.609375 L 27.433594 -28.421875 C 27.304688 -28.226562 27.203125 -27.570312 27.089844 -27.144531 C 27.027344 -26.628906 27.003906 -26.253906 26.863281 -26.292969 C 26.769531 -26.238281 26.386719 -25.65625 26.015625 -24.84375 C 25.644531 -24.027344 25.222656 -23.304688 25.132812 -23.253906 L 23.914062 -20.992188 C 23.289062 -19.789062 22.570312 -18.535156 22.261719 -18.238281 L 21.285156 -16.59375 L 19.824219 -14.550781 C 17.960938 -12.15625 17.617188 -11.714844 16.832031 -10.785156 L 15.046875 -8.675781 C 14.574219 -8.042969 13.777344 -7.339844 12.875 -6.820312 C 11.394531 -5.847656 11.394531 -5.847656 11.316406 -6.402344 C 11.015625 -7.550781 10.859375 -7.820312 10.394531 -7.792969 C 10.109375 -7.871094 9.839844 -7.714844 9.53125 -7.414062 C 8.964844 -6.730469 8.929688 -5.75 9.515625 -4.527344 L 10.050781 -3.394531 Z M 10.925781 -3.539062 "/></g></g></g><g fill="#000000" fill-opacity="1"><g transform="translate(684.658497, 1066.945702)"><g><path d="M -9.195312 -23.03125 C -9.054688 -22.992188 -8.875 -23.097656 -8.835938 -23.238281 L -8.617188 -23.484375 L -8.488281 -23.679688 L -8.476562 -24.285156 C -8.546875 -25.445312 -8.574219 -25.910156 -8.894531 -28.964844 C -8.9375 -29.664062 -8.953125 -30.734375 -9.164062 -31.09375 C -9.226562 -31.417969 -9.421875 -31.542969 -9.472656 -31.632812 L -9.113281 -31.84375 C -8.894531 -32.089844 -8.558594 -31.921875 -8.289062 -32.078125 L -6.550781 -32.601562 L -5.183594 -33.148438 C -4.179688 -33.488281 -3.226562 -33.917969 -2.054688 -34.589844 L -0.34375 -35.578125 C 0.199219 -35.890625 1.226562 -36.605469 2.203125 -37.40625 L 3.527344 -38.652344 L 4.222656 -39.53125 C 4.351562 -39.726562 4.425781 -40.007812 3.949219 -40.214844 C 3.804688 -40.25 3.949219 -40.214844 3.203125 -39.421875 C 2.675781 -38.878906 2.546875 -38.6875 1.660156 -37.933594 C 0.773438 -37.183594 -0.707031 -36.210938 -2.6875 -35.066406 C -5.355469 -33.648438 -7.144531 -33.21875 -9.273438 -32.953125 C -9.917969 -32.820312 -10.417969 -32.648438 -10.691406 -32.496094 C -10.871094 -32.390625 -10.960938 -32.339844 -10.945312 -32.105469 C -11.035156 -32.054688 -10.984375 -31.964844 -10.984375 -31.964844 L -10.570312 -31.242188 C -10.414062 -30.972656 -10.140625 -30.289062 -10.058594 -29.734375 C -9.8125 -28.679688 -9.523438 -24.640625 -9.703125 -24.539062 C -9.976562 -24.382812 -11.324219 -25.886719 -11.996094 -27.058594 C -12.324219 -27.832031 -12.660156 -27.996094 -13.070312 -27.878906 C -13.664062 -27.65625 -13.960938 -27.128906 -14.175781 -26.042969 C -14.273438 -24.546875 -14.5 -23.695312 -14.589844 -23.640625 C -14.859375 -23.488281 -15.648438 -26.515625 -15.574219 -27.636719 C -15.617188 -29.171875 -15.929688 -29.714844 -16.6875 -29.15625 C -16.960938 -29 -17.035156 -28.714844 -16.890625 -27.839844 C -16.769531 -26.589844 -16.167969 -24.292969 -15.878906 -23.378906 C -15.566406 -22.839844 -15.515625 -22.75 -15.039062 -22.542969 C -14.523438 -22.480469 -14.378906 -22.445312 -13.980469 -22.792969 C -13.441406 -23.105469 -13.445312 -23.945312 -13.175781 -24.9375 C -13.113281 -25.453125 -13.066406 -26.203125 -12.976562 -26.253906 C -12.886719 -26.304688 -12.339844 -25.78125 -12.328125 -25.546875 C -12.222656 -25.367188 -10.617188 -23.414062 -9.621094 -23.144531 Z M -9.195312 -23.03125 "/></g></g></g><g fill="#000000" fill-opacity="1"><g transform="translate(706.463296, 1054.374847)"><g><path d="M -12.199219 -25.742188 C -11.785156 -25.859375 -11.425781 -26.066406 -11.117188 -26.363281 L -10.847656 -26.519531 C -10.847656 -26.519531 -9.433594 -27.816406 -8.1875 -29.613281 L -4.402344 -34.917969 C -4.277344 -35.113281 -4.429688 -35.382812 -4.664062 -35.367188 L -4.804688 -35.40625 L -5.074219 -35.25 L -5.203125 -35.058594 C -8.183594 -31.058594 -10.261719 -28.417969 -11.277344 -27.472656 C -11.277344 -27.472656 -12.242188 -26.4375 -12.539062 -26.746094 C -13.367188 -27.351562 -13.308594 -28.703125 -13.167969 -29.503906 C -13.066406 -30.164062 -12.789062 -31.765625 -13.871094 -31.140625 C -14.050781 -31.035156 -14.375 -30.972656 -14.425781 -31.0625 C -14.722656 -31.371094 -14.941406 -31.125 -16.007812 -29.429688 C -16.941406 -27.929688 -18.03125 -25.859375 -18.59375 -24.335938 C -18.835938 -23.714844 -18.910156 -23.433594 -18.753906 -23.164062 C -18.496094 -22.710938 -18.171875 -22.777344 -17.632812 -23.089844 C -17.183594 -23.347656 -15.898438 -25.289062 -15.492188 -26.246094 C -15.132812 -27.292969 -14.324219 -28.597656 -14.273438 -28.507812 L -14.179688 -27.71875 C -14.203125 -27.347656 -14.085938 -26.933594 -13.929688 -26.664062 C -13.8125 -26.25 -13.65625 -25.980469 -13.179688 -25.777344 C -12.84375 -25.609375 -12.558594 -25.535156 -12.199219 -25.742188 Z M -17.921875 -24.003906 L -17.585938 -24.675781 C -17.359375 -25.527344 -16.488281 -27.351562 -15.628906 -28.566406 C -15.039062 -29.625 -14.859375 -29.730469 -14.753906 -29.550781 C -14.703125 -29.460938 -14.871094 -29.125 -15.089844 -28.878906 C -15.601562 -28.101562 -15.804688 -27.625 -15.882812 -27.339844 C -15.957031 -27.054688 -16.972656 -25.273438 -17.484375 -24.496094 Z M -17.921875 -24.003906 "/></g></g></g><g fill="#000000" fill-opacity="1"><g transform="translate(719.528202, 1046.842697)"><g><path d="M -8.605469 -27.214844 L -6.871094 -28.574219 C -5.363281 -29.921875 -2.925781 -32.769531 -2.925781 -32.769531 L -1.976562 -34.035156 L -1.242188 -35.058594 L -0.859375 -35.640625 C -0.347656 -36.417969 -0.253906 -36.46875 0.308594 -37.15625 C 1.09375 -38.085938 1.4375 -38.527344 0.652344 -38.433594 C 0.421875 -38.417969 -0.105469 -37.875 -1.53125 -35.972656 C -2.570312 -34.652344 -4.046875 -32.84375 -4.792969 -32.050781 C -8.339844 -28.207031 -10.34375 -26.691406 -11.019531 -27.863281 C -11.320312 -28.171875 -11.398438 -28.726562 -11.132812 -29.71875 C -10.878906 -30.945312 -11.761719 -32.476562 -12.539062 -30.707031 C -12.617188 -30.421875 -12.964844 -29.984375 -13.21875 -29.59375 L -15.375 -26.671875 L -15.316406 -28.027344 C -15.359375 -28.722656 -15.359375 -28.722656 -15.835938 -28.925781 C -16.457031 -29.167969 -16.765625 -28.871094 -16.875 -27.605469 L -17.039062 -26.433594 C -16.960938 -25.878906 -17.058594 -24.382812 -17.210938 -23.8125 L -17.054688 -23.542969 C -17.078125 -23.167969 -16.601562 -22.964844 -16.242188 -23.171875 C -16.097656 -23.132812 -15.933594 -23.46875 -15.714844 -23.714844 C -15.214844 -24.722656 -13.304688 -27.867188 -12.664062 -28.835938 L -12.574219 -28.886719 L -12.546875 -28.421875 L -12.492188 -28.332031 L -12.515625 -27.960938 C -12.527344 -27.351562 -11.722656 -26.375 -11.207031 -26.3125 C -10.40625 -26.175781 -9.453125 -26.605469 -8.605469 -27.214844 Z M -8.605469 -27.214844 "/></g></g></g><g fill="#000000" fill-opacity="1"><g transform="translate(737.999233, 1036.193819)"><g><path d="M -28.796875 19.601562 C -27.949219 18.992188 -26.597656 17.375 -25.664062 15.875 L -24.816406 14.425781 L -24.226562 13.367188 L -22.988281 10.730469 L -20.863281 5.664062 L -18.601562 -0.199219 C -17.59375 -2.824219 -16.167969 -7.847656 -15.714844 -10.390625 C -15.511719 -11.707031 -15.117188 -12.894531 -15.078125 -13.035156 C -15.015625 -13.550781 -13.425781 -15.789062 -12.023438 -17.316406 C -11.714844 -17.617188 -11.550781 -17.953125 -11.511719 -18.09375 C -11.472656 -18.234375 -11.382812 -18.289062 -11.292969 -18.339844 C -11.152344 -18.300781 -11.023438 -18.496094 -10.894531 -18.691406 C -10.855469 -18.832031 -10.546875 -19.128906 -10.421875 -19.324219 C -10.148438 -19.480469 -9.929688 -19.726562 -9.894531 -19.867188 C -9.804688 -19.917969 -9.546875 -20.308594 -9.058594 -20.710938 L -2.015625 -27.652344 C -1.707031 -27.949219 -1 -28.597656 -0.332031 -29.101562 C 0.648438 -29.90625 0.738281 -29.957031 0.710938 -29.582031 C 0.597656 -29.15625 0.792969 -29.03125 1.203125 -29.148438 C 1.527344 -29.210938 1.707031 -29.316406 2.089844 -29.898438 L 2.695312 -30.726562 C 2.785156 -30.777344 2.824219 -30.921875 2.898438 -31.203125 C 2.921875 -31.578125 2.535156 -31.835938 2.125 -31.71875 C 1.621094 -31.546875 0.375 -30.589844 -0.515625 -29.835938 L -2.238281 -28.242188 L -6.554688 -24.074219 C -8.097656 -22.582031 -9.371094 -21.25 -11.335938 -19.035156 L -12.992188 -17.121094 L -14.007812 -16.175781 L -14.789062 -15.242188 C -15.046875 -14.855469 -13.121094 -24.007812 -12.957031 -25.183594 L -12.671875 -27.390625 L -12.5625 -29.496094 C -12.5 -30.011719 -12.527344 -30.476562 -12.578125 -30.566406 C -12.632812 -30.65625 -12.824219 -30.785156 -12.980469 -31.054688 C -13.394531 -31.773438 -14.363281 -31.578125 -15.328125 -30.542969 C -15.855469 -29.996094 -16.789062 -28.496094 -17.121094 -27.824219 L -17.570312 -26.726562 C -17.609375 -26.585938 -17.789062 -26.480469 -17.917969 -26.289062 L -18.070312 -25.71875 C -18.273438 -25.242188 -17.910156 -24.609375 -17.484375 -24.496094 C -17.199219 -24.417969 -15.886719 -25.054688 -15.71875 -25.394531 L -14.078125 -27.539062 C -13.730469 -27.980469 -15.589844 -18.503906 -15.980469 -15.640625 C -16.253906 -13.199219 -16.765625 -12.421875 -17.292969 -11.878906 C -17.601562 -11.582031 -18.039062 -11.089844 -18.113281 -10.804688 C -18.332031 -10.558594 -18.5 -10.222656 -18.589844 -10.171875 C -18.820312 -10.15625 -22.375 -4.867188 -23.273438 -3.511719 C -23.605469 -2.839844 -23.953125 -2.398438 -24.042969 -2.347656 C -24.132812 -2.292969 -24.171875 -2.152344 -24.171875 -2.152344 C -24.117188 -2.0625 -24.285156 -1.726562 -24.503906 -1.480469 C -24.722656 -1.234375 -25.183594 -0.367188 -25.554688 0.445312 L -26.4375 2.035156 C -26.734375 2.566406 -27.769531 4.726562 -28.371094 6.390625 C -29.394531 8.78125 -30.800781 14.875 -30.578125 15.46875 C -30.527344 15.558594 -30.515625 15.792969 -30.550781 15.933594 L -30.640625 15.984375 C -30.667969 16.359375 -30.691406 16.734375 -30.765625 17.015625 C -30.597656 17.519531 -30.570312 17.984375 -30.632812 18.5 L -30.359375 19.183594 C -29.980469 20.046875 -29.644531 20.210938 -28.796875 19.601562 Z M -16.765625 -25.75 C -17.035156 -25.59375 -17.035156 -25.59375 -16.921875 -26.019531 C -16.769531 -26.589844 -16.105469 -27.933594 -15.410156 -28.8125 C -14.898438 -29.589844 -14.046875 -30.199219 -13.890625 -29.929688 C -13.632812 -29.476562 -15.863281 -26.269531 -16.765625 -25.75 Z M -29.390625 18.984375 C -29.625 19 -29.808594 18.265625 -29.914062 17.246094 C -29.9375 14.5 -29.710938 12.808594 -28.949219 9.96875 C -28.210938 7.5 -28.007812 7.023438 -26.90625 4.347656 C -26.332031 3.054688 -23.988281 -1.417969 -23.808594 -1.519531 L -23.257812 -2.441406 C -23.050781 -2.917969 -22.242188 -4.222656 -21.472656 -5.386719 C -20.742188 -6.410156 -20.101562 -7.378906 -20.152344 -7.46875 C -20.117188 -7.613281 -20.023438 -7.664062 -19.84375 -7.769531 L -19.535156 -8.066406 C -19.589844 -8.15625 -19.242188 -8.59375 -18.984375 -8.984375 L -18.074219 -10.109375 C -17.378906 -10.988281 -17.289062 -11.042969 -17.1875 -10.859375 C -17.132812 -10.769531 -17.171875 -10.628906 -17.171875 -10.628906 C -17.261719 -10.578125 -17.300781 -10.433594 -17.300781 -10.433594 C -17.042969 -9.984375 -18.46875 -4.960938 -20.355469 0.929688 L -21.617188 4.777344 C -21.769531 5.347656 -22.011719 5.96875 -22.179688 6.304688 L -22.585938 7.257812 C -22.90625 8.164062 -24.683594 11.949219 -24.863281 12.054688 C -24.953125 12.105469 -24.992188 12.246094 -24.941406 12.339844 C -24.980469 12.480469 -25.015625 12.621094 -25.109375 12.675781 C -25.199219 12.726562 -25.492188 13.257812 -25.824219 13.929688 C -26.695312 15.75 -27.425781 16.773438 -28.339844 17.898438 Z M -29.390625 18.984375 "/></g></g></g><g fill="#000000" fill-opacity="1"><g transform="translate(749.892821, 1029.336954)"><g><path d="M -14.085938 -33.179688 C -13.777344 -33.476562 -13.78125 -34.3125 -14.078125 -34.621094 C -14.183594 -34.804688 -14.464844 -34.878906 -14.609375 -34.917969 C -15.125 -34.980469 -15.382812 -34.59375 -15.160156 -34 C -15.003906 -33.730469 -14.988281 -33.496094 -15.027344 -33.355469 C -15.195312 -33.019531 -14.34375 -32.789062 -14.085938 -33.179688 Z M -15.480469 -23.730469 C -14.542969 -24.390625 -13.140625 -25.917969 -12.0625 -27.378906 L -9.136719 -31.46875 L -8.316406 -32.542969 C -8.148438 -32.878906 -8.304688 -33.148438 -8.539062 -33.132812 L -8.769531 -33.121094 L -8.949219 -33.015625 L -9.078125 -32.824219 C -12.054688 -28.824219 -14.136719 -26.1875 -15.242188 -25.1875 C -15.242188 -25.1875 -15.808594 -24.503906 -16.269531 -24.476562 C -16.480469 -24.835938 -16.597656 -25.246094 -16.535156 -25.765625 L -15.730469 -27.910156 C -15.167969 -29.433594 -15.15625 -30.039062 -15.710938 -29.960938 C -15.945312 -29.945312 -16.507812 -29.261719 -16.878906 -28.445312 C -17.722656 -26.160156 -17.921875 -24.84375 -17.402344 -23.941406 L -17.25 -23.671875 C -16.9375 -23.128906 -16.332031 -23.121094 -15.480469 -23.730469 Z M -15.480469 -23.730469 "/></g></g></g><g fill="#000000" fill-opacity="1"><g transform="translate(758.993252, 1024.090394)"><g><path d="M -13.429688 -23.710938 C -12.898438 -23.417969 -12.628906 -23.574219 -12.492188 -24.371094 C -12.3125 -25.316406 -12.574219 -25.765625 -13.074219 -25.597656 C -13.488281 -25.480469 -13.667969 -25.375 -13.796875 -25.179688 C -14.234375 -24.6875 -14.101562 -24.042969 -13.429688 -23.710938 Z M -13.429688 -23.710938 "/></g></g></g><g fill="#000000" fill-opacity="1"><g transform="translate(771.157144, 1017.077693)"><g><path d="M -14.085938 -33.179688 C -13.777344 -33.476562 -13.78125 -34.3125 -14.078125 -34.621094 C -14.183594 -34.804688 -14.464844 -34.878906 -14.609375 -34.917969 C -15.125 -34.980469 -15.382812 -34.59375 -15.160156 -34 C -15.003906 -33.730469 -14.988281 -33.496094 -15.027344 -33.355469 C -15.195312 -33.019531 -14.34375 -32.789062 -14.085938 -33.179688 Z M -15.480469 -23.730469 C -14.542969 -24.390625 -13.140625 -25.917969 -12.0625 -27.378906 L -9.136719 -31.46875 L -8.316406 -32.542969 C -8.148438 -32.878906 -8.304688 -33.148438 -8.539062 -33.132812 L -8.769531 -33.121094 L -8.949219 -33.015625 L -9.078125 -32.824219 C -12.054688 -28.824219 -14.136719 -26.1875 -15.242188 -25.1875 C -15.242188 -25.1875 -15.808594 -24.503906 -16.269531 -24.476562 C -16.480469 -24.835938 -16.597656 -25.246094 -16.535156 -25.765625 L -15.730469 -27.910156 C -15.167969 -29.433594 -15.15625 -30.039062 -15.710938 -29.960938 C -15.945312 -29.945312 -16.507812 -29.261719 -16.878906 -28.445312 C -17.722656 -26.160156 -17.921875 -24.84375 -17.402344 -23.941406 L -17.25 -23.671875 C -16.9375 -23.128906 -16.332031 -23.121094 -15.480469 -23.730469 Z M -15.480469 -23.730469 "/></g></g></g><g fill="#000000" fill-opacity="1"><g transform="translate(780.257575, 1011.831133)"><g><path d="M -15.210938 -23.886719 C -13.949219 -24.613281 -12.835938 -27.054688 -12.800781 -28.035156 L -12.582031 -28.28125 C -11.578125 -28.621094 -10.445312 -29.152344 -9.273438 -29.828125 C -8.011719 -30.554688 -5.335938 -32.578125 -3.910156 -34.480469 L -3.308594 -35.308594 C -3.179688 -35.503906 -3.195312 -35.734375 -3.386719 -35.863281 C -3.582031 -35.992188 -3.851562 -35.835938 -3.890625 -35.695312 C -5.1875 -33.984375 -6.753906 -32.121094 -9.816406 -30.355469 C -10.539062 -29.941406 -11.3125 -29.613281 -11.957031 -29.484375 C -12.1875 -29.46875 -12.421875 -29.457031 -12.832031 -29.339844 L -13.300781 -30.148438 C -13.351562 -30.238281 -13.457031 -30.417969 -13.597656 -30.457031 C -13.792969 -30.585938 -14.164062 -30.609375 -14.4375 -30.453125 L -15.660156 -29.871094 L -15.890625 -29.855469 L -16.457031 -29.167969 L -17.105469 -26.753906 C -17.21875 -26.328125 -17.222656 -24.046875 -16.359375 -23.585938 C -15.878906 -23.378906 -15.878906 -23.378906 -15.210938 -23.886719 Z M -14.351562 -29.0625 C -14.585938 -29.046875 -14.726562 -29.085938 -14.546875 -29.191406 C -14.457031 -29.242188 -14.316406 -29.203125 -14.226562 -29.253906 C -14.171875 -29.164062 -14.121094 -29.074219 -14.351562 -29.0625 Z M -15.40625 -24.851562 C -15.5 -24.800781 -16.117188 -25.042969 -15.929688 -26.589844 C -15.804688 -27.625 -15.585938 -27.871094 -15.316406 -28.027344 L -14.800781 -27.964844 L -14.105469 -28.003906 C -13.960938 -27.964844 -13.550781 -28.085938 -14.148438 -26.417969 C -14.546875 -25.230469 -15.316406 -24.902344 -15.40625 -24.851562 Z M -15.40625 -24.851562 "/></g></g></g></svg>