<svg xmlns="http://www.w3.org/2000/svg" xmlns:xlink="http://www.w3.org/1999/xlink" width="1200" zoomAndPan="magnify" viewBox="0 0 900 1199.999942" height="1600" preserveAspectRatio="xMidYMid meet" version="1.0"><defs><g/><clipPath id="cf1d7bbdb2"><path d="M 241.679688 349.890625 L 271.285156 349.890625 L 271.285156 712.832031 L 241.679688 712.832031 Z M 241.679688 349.890625 " clip-rule="nonzero"/></clipPath></defs><rect x="-90" width="1080" fill="#ffffff" y="-119.999994" height="1439.999931" fill-opacity="1"/><rect x="-90" width="1080" fill="#ffffff" y="-119.999994" height="1439.999931" fill-opacity="1"/><g fill="#152d2e" fill-opacity="1"><g transform="translate(189.220553, 803.701777)"><g><path d="M 15.957031 -531.941406 L 15.957031 -526.625 C 61.707031 -526.625 64.898438 -488.855469 64.898438 -384.0625 L 64.898438 -147.878906 C 64.898438 -43.085938 61.707031 -5.320312 15.957031 -5.320312 L 15.957031 0 L 159.582031 0 L 159.582031 -5.320312 C 113.835938 -5.320312 70.214844 -43.621094 70.214844 -198.414062 L 70.214844 -265.972656 L 70.75 -494.175781 C 151.605469 -320.761719 199.476562 -217.566406 282.992188 -38.832031 L 287.78125 -38.832031 C 353.210938 -214.371094 406.9375 -360.65625 464.386719 -514.386719 L 464.386719 -147.878906 C 464.386719 -43.085938 461.195312 -5.320312 415.445312 -5.320312 L 415.445312 0 L 559.070312 0 L 559.070312 -5.320312 C 513.324219 -5.320312 510.132812 -43.085938 510.132812 -147.878906 L 510.132812 -384.0625 C 510.132812 -488.855469 513.324219 -526.625 559.070312 -526.625 L 559.070312 -531.941406 L 465.449219 -531.941406 L 305.867188 -103.195312 L 101.601562 -531.941406 Z M 15.957031 -531.941406 "/></g></g></g><g clip-path="url(#cf1d7bbdb2)"><path fill="#ffffff" d="M 271.285156 349.890625 L 271.285156 712.832031 L 241.679688 712.832031 L 241.679688 349.890625 Z M 271.285156 349.890625 " fill-opacity="1" fill-rule="nonzero"/></g><g fill="#01111d" fill-opacity="1"><g transform="translate(314.515005, 776.344644)"><g><path d="M 1.214844 -101.46875 C 1.0625 -101.621094 -0.152344 -102.378906 -1.820312 -103.289062 L -4.851562 -104.957031 L -8.796875 -107.535156 L -11.679688 -109.507812 C -13.953125 -111.023438 -19.261719 -114.964844 -19.414062 -115.117188 C -19.566406 -115.421875 -21.6875 -116.9375 -21.839844 -116.9375 L -22.296875 -117.242188 L -24.417969 -118.910156 L -28.515625 -121.941406 L -30.03125 -123.308594 L -47.167969 -137.714844 L -47.929688 -138.324219 L -54.601562 -144.695312 C -58.542969 -148.789062 -60.0625 -150.152344 -60.972656 -150.910156 L -63.398438 -153.492188 C -64.308594 -154.402344 -65.21875 -155.308594 -65.671875 -155.460938 L -66.28125 -156.070312 C -66.28125 -156.21875 -66.886719 -156.980469 -67.796875 -157.738281 C -69.617188 -159.40625 -71.890625 -161.832031 -72.800781 -163.046875 C -73.558594 -164.257812 -76.746094 -168.050781 -78.414062 -169.871094 L -81.75 -173.511719 C -83.722656 -175.785156 -84.328125 -176.089844 -84.785156 -175.332031 C -85.238281 -174.722656 -84.933594 -173.8125 -83.417969 -172.296875 C -82.660156 -171.386719 -81.902344 -170.476562 -81.902344 -170.324219 C -81.75 -170.023438 -81.597656 -169.871094 -81.445312 -169.871094 C -80.992188 -169.871094 -72.5 -159.558594 -72.042969 -158.34375 L -70.832031 -156.070312 L -66.128906 -147.878906 C -65.523438 -146.816406 -64.613281 -145.453125 -64.15625 -144.84375 C -63.550781 -144.238281 -63.246094 -143.632812 -63.246094 -143.480469 L -62.183594 -141.8125 C -61.578125 -141.054688 -60.667969 -139.839844 -60.363281 -139.082031 L -59 -137.109375 C -58.394531 -136.351562 -55.511719 -131.800781 -55.511719 -131.5 L -54.90625 -130.589844 L -54.449219 -129.679688 C -54.601562 -129.679688 -54.144531 -128.917969 -53.539062 -128.160156 L -53.234375 -127.707031 L -51.566406 -124.824219 C -50.808594 -123.460938 -50.050781 -122.09375 -50.050781 -121.941406 C -50.050781 -121.792969 -49.898438 -121.488281 -49.746094 -121.335938 C -48.6875 -120.578125 -46.410156 -115.117188 -46.257812 -113.296875 C -46.109375 -112.085938 -46.109375 -111.933594 -46.5625 -112.234375 C -46.867188 -112.234375 -47.472656 -112.691406 -48.078125 -112.996094 L -49.445312 -113.90625 L -51.113281 -115.117188 C -51.871094 -115.574219 -53.234375 -116.632812 -54.296875 -117.242188 L -56.574219 -118.605469 L -58.695312 -120.273438 C -60.363281 -121.488281 -63.246094 -124.066406 -64.613281 -125.28125 L -68.25 -128.917969 L -70.222656 -130.589844 C -71.589844 -131.800781 -72.800781 -132.863281 -74.167969 -134.226562 C -74.46875 -134.53125 -74.925781 -134.835938 -74.925781 -134.835938 C -75.078125 -134.835938 -76.441406 -136.351562 -78.109375 -138.171875 L -82.207031 -142.722656 L -83.875 -144.390625 C -86.90625 -148.332031 -88.425781 -150.003906 -89.636719 -150.910156 L -91.152344 -152.429688 L -92.367188 -153.492188 L -95.855469 -156.675781 L -100.859375 -161.378906 C -101.921875 -162.4375 -102.679688 -163.199219 -103.894531 -164.257812 L -105.257812 -165.472656 L -106.625 -166.835938 C -108.597656 -168.507812 -109.808594 -168.507812 -109.808594 -166.6875 C -109.808594 -166.230469 -109.507812 -165.625 -108.445312 -164.714844 L -102.679688 -159.253906 C -101.921875 -158.34375 -100.859375 -157.28125 -100.253906 -156.828125 C -99.496094 -156.371094 -98.585938 -155.460938 -97.980469 -154.855469 C -95.402344 -152.429688 -94.035156 -151.0625 -91.761719 -149.09375 C -89.636719 -147.121094 -85.996094 -143.328125 -85.996094 -142.875 C -85.996094 -142.570312 -82.964844 -139.234375 -82.8125 -139.386719 C -82.8125 -139.535156 -81.296875 -138.019531 -79.628906 -136.199219 C -76.441406 -132.710938 -75.683594 -131.953125 -72.648438 -129.222656 C -71.738281 -128.464844 -70.980469 -127.707031 -70.980469 -127.554688 C -71.132812 -127.402344 -71.132812 -127.25 -70.980469 -127.402344 C -70.832031 -127.554688 -69.769531 -126.796875 -68.707031 -125.734375 L -64.15625 -121.488281 C -62.640625 -120.273438 -60.667969 -118.605469 -59.757812 -118 L -58.242188 -116.9375 C -57.785156 -116.484375 -53.386719 -113.601562 -53.234375 -113.601562 L -51.71875 -112.539062 C -49.898438 -111.175781 -46.257812 -109.203125 -45.652344 -109.203125 C -43.832031 -109.203125 -44.136719 -113.296875 -46.109375 -117.695312 C -47.019531 -119.972656 -48.988281 -123.308594 -49.597656 -123.914062 C -49.898438 -124.066406 -50.050781 -124.371094 -50.050781 -124.519531 C -50.050781 -124.671875 -50.355469 -125.429688 -50.808594 -126.191406 L -54.601562 -132.257812 L -56.726562 -136.046875 C -56.726562 -136.199219 -57.027344 -136.503906 -57.332031 -136.65625 C -57.636719 -136.957031 -57.9375 -137.261719 -57.9375 -137.414062 C -57.9375 -137.566406 -58.242188 -138.019531 -58.695312 -138.625 C -59.152344 -139.234375 -59.757812 -139.992188 -59.910156 -140.296875 L -60.515625 -141.507812 C -61.125 -142.265625 -62.335938 -144.238281 -62.640625 -144.695312 L -63.246094 -145.605469 C -64.003906 -146.511719 -65.824219 -149.699219 -65.824219 -150.003906 C -65.824219 -150.152344 -65.976562 -150.457031 -66.28125 -150.609375 C -66.582031 -150.910156 -67.039062 -151.519531 -67.339844 -152.125 L -68.859375 -155.160156 L -67.644531 -154.097656 L -63.09375 -149.546875 C -62.792969 -149.394531 -59.910156 -146.664062 -59 -145.605469 C -58.242188 -144.695312 -56.117188 -142.722656 -54.601562 -141.507812 L -52.628906 -139.839844 L -50.808594 -137.867188 L -48.6875 -136.199219 L -43.378906 -131.5 L -40.800781 -129.527344 L -39.433594 -128.3125 C -38.828125 -127.859375 -38.222656 -127.402344 -38.222656 -127.25 C -38.222656 -127.101562 -38.070312 -127.101562 -37.917969 -127.101562 C -37.613281 -127.101562 -34.277344 -124.371094 -33.972656 -123.914062 L -32.003906 -122.398438 L -29.574219 -120.425781 L -26.84375 -118.304688 L -22.597656 -115.269531 L -19.109375 -112.84375 C -15.015625 -110.113281 -12.4375 -108.292969 -11.980469 -107.835938 C -11.679688 -107.535156 -11.527344 -107.382812 -11.527344 -107.535156 C -11.527344 -107.535156 -11.070312 -107.382812 -10.617188 -107.078125 L -5.914062 -104.199219 L -1.667969 -102.074219 C -0.152344 -101.316406 1.363281 -101.011719 1.214844 -101.46875 Z M 3.488281 -16.378906 C 4.398438 -18.199219 3.640625 -22.597656 1.820312 -26.84375 C 1.515625 -27.453125 1.0625 -28.515625 1.0625 -29.121094 C 0.605469 -31.09375 -6.824219 -46.109375 -8.191406 -47.625 L -10.3125 -50.808594 C -12.132812 -53.691406 -11.980469 -53.539062 -13.5 -55.207031 L -16.230469 -58.695312 L -19.867188 -63.09375 L -22.296875 -65.824219 L -23.660156 -67.644531 C -24.265625 -68.402344 -25.328125 -69.769531 -26.238281 -70.679688 L -38.523438 -85.238281 C -40.648438 -87.664062 -43.832031 -91.457031 -45.199219 -93.429688 C -46.257812 -94.792969 -47.472656 -96.160156 -47.929688 -96.160156 C -48.230469 -96.160156 -49.292969 -97.371094 -49.140625 -97.675781 C -49.140625 -97.828125 -49.140625 -98.128906 -49.445312 -98.433594 L -56.574219 -106.925781 C -56.875 -107.230469 -57.332031 -107.535156 -57.785156 -107.6875 C -58.089844 -107.835938 -58.542969 -108.140625 -58.695312 -108.597656 C -58.847656 -109.203125 -61.425781 -112.234375 -62.941406 -113.601562 L -64.460938 -115.117188 L -72.648438 -123.914062 C -73.710938 -125.128906 -75.378906 -126.644531 -76.289062 -127.25 C -77.199219 -127.859375 -77.808594 -128.464844 -77.65625 -128.769531 C -77.65625 -128.917969 -77.65625 -129.070312 -77.808594 -129.070312 C -78.109375 -129.070312 -79.476562 -130.589844 -79.929688 -131.347656 C -80.082031 -131.648438 -80.386719 -131.800781 -80.6875 -131.800781 C -80.992188 -131.648438 -81.144531 -131.800781 -81.144531 -132.257812 C -81.144531 -132.710938 -81.445312 -133.015625 -81.902344 -133.167969 C -82.355469 -133.316406 -82.660156 -133.621094 -82.660156 -133.773438 C -82.660156 -134.078125 -83.722656 -135.289062 -86.300781 -138.171875 L -88.878906 -141.207031 C -91.304688 -144.238281 -93.277344 -146.210938 -93.730469 -146.058594 C -94.1875 -145.753906 -94.1875 -144.996094 -93.582031 -144.695312 C -93.429688 -144.542969 -92.671875 -143.785156 -91.914062 -142.875 C -89.636719 -140.144531 -84.480469 -134.683594 -83.875 -134.378906 C -83.570312 -134.226562 -83.417969 -134.078125 -83.417969 -133.925781 C -83.570312 -133.773438 -82.964844 -133.015625 -82.355469 -132.410156 L -80.234375 -130.132812 C -79.777344 -129.679688 -79.019531 -128.917969 -78.566406 -128.617188 C -78.109375 -128.3125 -77.808594 -127.859375 -77.808594 -127.707031 C -77.808594 -127.707031 -75.683594 -125.28125 -73.105469 -122.703125 C -65.976562 -115.117188 -61.578125 -110.417969 -61.578125 -110.265625 C -61.578125 -110.113281 -58.089844 -106.472656 -55.511719 -103.589844 L -52.78125 -100.40625 C -52.175781 -99.496094 -51.113281 -98.433594 -50.65625 -97.828125 C -50.050781 -97.371094 -49.597656 -96.765625 -49.597656 -96.613281 C -49.597656 -96.460938 -49.292969 -96.007812 -48.835938 -95.550781 L -42.316406 -87.515625 L -39.890625 -84.480469 C -39.433594 -84.027344 -39.28125 -83.570312 -39.28125 -83.570312 C -39.28125 -83.417969 -38.980469 -83.117188 -38.675781 -82.8125 L -35.1875 -78.867188 C -31.699219 -74.46875 -30.636719 -73.257812 -28.058594 -70.375 C -26.84375 -69.011719 -25.632812 -67.492188 -25.480469 -67.039062 C -25.175781 -66.433594 -25.027344 -65.976562 -24.875 -65.976562 C -24.722656 -65.976562 -23.8125 -65.21875 -22.902344 -64.15625 L -20.628906 -61.730469 C -20.171875 -61.425781 -19.867188 -60.972656 -19.867188 -60.667969 C -19.867188 -60.515625 -19.566406 -60.0625 -19.109375 -59.605469 C -18.503906 -59.152344 -18.046875 -58.542969 -17.898438 -58.089844 C -17.898438 -57.785156 -17.441406 -57.027344 -17.140625 -56.726562 L -15.925781 -55.359375 C -15.773438 -55.054688 -15.015625 -54.449219 -14.558594 -53.996094 C -13.953125 -53.539062 -13.5 -53.234375 -13.648438 -53.085938 C -13.648438 -52.933594 -13.195312 -52.023438 -12.4375 -50.960938 C -11.679688 -49.898438 -11.070312 -48.835938 -11.070312 -48.6875 L -9.101562 -45.5 C -8.039062 -43.832031 -6.976562 -42.011719 -6.824219 -41.40625 L -5.460938 -38.980469 L -3.945312 -35.640625 C -2.273438 -31.546875 -1.972656 -30.789062 -1.363281 -29.121094 L 0 -25.328125 C 0.453125 -24.265625 0.757812 -22.75 0.757812 -21.234375 C 0.910156 -18.65625 0.910156 -18.65625 0.152344 -18.957031 C -1.515625 -19.414062 -1.972656 -19.414062 -2.273438 -18.808594 C -2.578125 -18.503906 -2.578125 -18.046875 -2.425781 -17.441406 C -1.972656 -16.230469 -0.757812 -15.46875 1.214844 -15.320312 L 3.035156 -15.167969 Z M 3.488281 -16.378906 "/></g></g></g><g fill="#01111d" fill-opacity="1"><g transform="translate(314.515005, 621.95259)"><g><path d="M -35.792969 -5.15625 C -35.640625 -5.308594 -35.640625 -5.613281 -35.792969 -5.761719 L -35.945312 -6.21875 L -36.097656 -6.523438 L -36.855469 -6.976562 C -38.371094 -7.734375 -38.980469 -8.039062 -43.074219 -9.859375 C -43.984375 -10.3125 -45.347656 -11.070312 -45.957031 -11.070312 C -46.410156 -11.222656 -46.714844 -11.070312 -46.867188 -11.070312 L -46.867188 -11.679688 C -47.019531 -12.132812 -46.5625 -12.4375 -46.5625 -12.890625 L -45.957031 -15.46875 L -45.652344 -17.59375 C -45.347656 -19.109375 -45.199219 -20.628906 -45.199219 -22.597656 L -45.199219 -25.480469 C -45.199219 -26.390625 -45.347656 -28.210938 -45.652344 -30.03125 L -46.257812 -32.609375 L -46.867188 -34.125 C -47.019531 -34.429688 -47.320312 -34.734375 -47.929688 -34.277344 C -48.078125 -34.125 -47.929688 -34.277344 -47.472656 -32.761719 C -47.167969 -31.699219 -47.019531 -31.394531 -46.714844 -29.726562 C -46.410156 -28.058594 -46.257812 -25.480469 -46.257812 -22.144531 C -46.410156 -17.746094 -47.167969 -15.167969 -48.382812 -12.285156 C -48.6875 -11.375 -48.835938 -10.617188 -48.835938 -10.160156 C -48.835938 -9.859375 -48.835938 -9.707031 -48.535156 -9.554688 C -48.535156 -9.402344 -48.382812 -9.402344 -48.382812 -9.402344 L -47.167969 -9.402344 C -46.714844 -9.402344 -45.652344 -9.25 -44.894531 -8.949219 C -43.378906 -8.492188 -38.070312 -5.914062 -38.070312 -5.613281 C -38.070312 -5.15625 -40.949219 -4.550781 -42.921875 -4.550781 C -44.136719 -4.703125 -44.589844 -4.398438 -44.742188 -3.792969 C -44.894531 -2.882812 -44.4375 -2.125 -43.226562 -1.0625 C -41.40625 0.152344 -40.496094 1.0625 -40.496094 1.214844 C -40.496094 1.667969 -44.894531 0.453125 -46.257812 -0.453125 C -48.230469 -1.515625 -49.140625 -1.515625 -48.988281 -0.152344 C -48.988281 0.304688 -48.6875 0.605469 -47.472656 1.0625 C -45.804688 1.820312 -42.46875 2.730469 -41.101562 3.035156 C -40.191406 3.035156 -40.039062 3.035156 -39.433594 2.578125 C -38.980469 1.972656 -38.828125 1.820312 -38.980469 1.0625 C -38.980469 0.152344 -40.039062 -0.453125 -41.101562 -1.515625 C -41.710938 -1.972656 -42.621094 -2.578125 -42.621094 -2.730469 C -42.621094 -2.882812 -41.558594 -3.183594 -41.253906 -3.035156 C -40.949219 -3.035156 -37.3125 -3.640625 -36.25 -4.703125 Z M -35.792969 -5.15625 "/></g></g></g><g fill="#01111d" fill-opacity="1"><g transform="translate(314.515005, 587.828608)"><g><path d="M -41.40625 -3.335938 C -41.253906 -3.945312 -41.253906 -4.550781 -41.40625 -5.15625 L -41.40625 -5.613281 C -41.40625 -5.613281 -42.011719 -8.34375 -43.378906 -11.222656 L -47.320312 -19.867188 C -47.472656 -20.171875 -47.929688 -20.171875 -48.078125 -19.867188 L -48.230469 -19.71875 L -48.230469 -19.261719 L -48.078125 -18.957031 C -45.199219 -12.285156 -43.378906 -7.734375 -42.921875 -5.761719 C -42.921875 -5.761719 -42.316406 -3.792969 -42.921875 -3.640625 C -44.289062 -3.035156 -45.957031 -4.09375 -46.867188 -4.851562 C -47.625 -5.460938 -49.445312 -6.976562 -49.445312 -5.15625 C -49.445312 -4.851562 -49.597656 -4.398438 -49.746094 -4.398438 C -50.355469 -4.246094 -50.203125 -3.792969 -48.835938 -1.214844 C -47.625 1.0625 -45.804688 3.945312 -44.289062 5.761719 C -43.679688 6.523438 -43.378906 6.824219 -42.921875 6.824219 C -42.164062 6.824219 -42.011719 6.371094 -42.011719 5.460938 C -42.011719 4.703125 -43.53125 1.667969 -44.4375 0.453125 C -45.5 -0.757812 -46.5625 -2.730469 -46.410156 -2.730469 L -45.347656 -2.273438 C -44.894531 -1.972656 -44.289062 -1.820312 -43.832031 -1.820312 C -43.226562 -1.667969 -42.769531 -1.667969 -42.164062 -2.125 C -41.710938 -2.425781 -41.40625 -2.730469 -41.40625 -3.335938 Z M -43.378906 5.15625 L -43.984375 4.246094 C -44.894531 3.335938 -46.5625 0.910156 -47.472656 -1.0625 C -48.382812 -2.578125 -48.382812 -2.882812 -48.078125 -2.882812 C -47.929688 -2.882812 -47.625 -2.425781 -47.472656 -1.972656 C -46.867188 -0.757812 -46.410156 -0.152344 -46.109375 0.152344 C -45.804688 0.453125 -44.289062 3.035156 -43.679688 4.246094 Z M -43.378906 5.15625 "/></g></g></g><g fill="#01111d" fill-opacity="1"><g transform="translate(314.515005, 568.415856)"><g><path d="M -40.648438 -8.949219 L -41.101562 -12.132812 C -41.710938 -15.015625 -43.53125 -20.171875 -43.53125 -20.171875 L -44.4375 -22.296875 L -45.199219 -23.964844 L -45.652344 -24.875 C -46.257812 -26.085938 -46.257812 -26.238281 -46.714844 -27.453125 C -47.320312 -29.121094 -47.625 -29.878906 -48.078125 -28.816406 C -48.230469 -28.515625 -47.929688 -27.453125 -46.5625 -24.265625 C -45.652344 -21.992188 -44.4375 -18.808594 -43.984375 -17.289062 C -41.710938 -10.011719 -41.253906 -6.371094 -43.226562 -6.371094 C -43.832031 -6.21875 -44.589844 -6.523438 -45.652344 -7.582031 C -47.019531 -8.796875 -49.597656 -8.796875 -47.929688 -6.523438 C -47.625 -6.21875 -47.320312 -5.460938 -47.019531 -4.851562 L -44.894531 0 L -46.5625 -1.0625 C -47.472656 -1.515625 -47.472656 -1.515625 -48.078125 -1.0625 C -48.835938 -0.453125 -48.6875 0.152344 -47.167969 1.214844 L -45.804688 2.273438 C -45.046875 2.578125 -43.226562 3.792969 -42.621094 4.398438 L -42.164062 4.398438 C -41.710938 4.703125 -41.101562 4.246094 -41.101562 3.640625 C -40.949219 3.488281 -41.253906 3.035156 -41.40625 2.578125 C -42.316406 1.214844 -44.894531 -3.488281 -45.652344 -5.003906 L -45.652344 -5.15625 L -45.046875 -4.851562 L -44.894531 -4.851562 L -44.4375 -4.550781 C -43.679688 -4.09375 -41.859375 -4.398438 -41.40625 -5.003906 C -40.648438 -5.914062 -40.496094 -7.433594 -40.648438 -8.949219 Z M -40.648438 -8.949219 "/></g></g></g><g fill="#01111d" fill-opacity="1"><g transform="translate(314.515005, 539.903392)"><g><path d="M 3.792969 50.65625 C 3.640625 49.140625 2.578125 46.257812 1.363281 43.984375 L 0.152344 41.859375 L -0.757812 40.34375 L -3.183594 36.855469 L -8.039062 30.484375 L -13.800781 23.355469 C -16.378906 20.171875 -21.6875 14.710938 -24.570312 12.285156 C -26.085938 11.070312 -27.300781 9.707031 -27.453125 9.554688 C -28.058594 9.101562 -29.726562 5.460938 -30.636719 2.578125 C -30.789062 1.972656 -31.09375 1.515625 -31.242188 1.363281 C -31.394531 1.214844 -31.394531 1.0625 -31.394531 0.910156 C -31.242188 0.757812 -31.394531 0.453125 -31.546875 0.152344 C -31.699219 0 -31.851562 -0.605469 -32.003906 -0.910156 C -32.003906 -1.363281 -32.152344 -1.820312 -32.304688 -1.972656 C -32.304688 -2.125 -32.609375 -2.730469 -32.761719 -3.640625 L -36.402344 -17.59375 C -36.550781 -18.199219 -36.855469 -19.566406 -37.007812 -20.777344 C -37.3125 -22.597656 -37.3125 -22.75 -36.855469 -22.445312 C -36.402344 -21.992188 -36.097656 -22.144531 -35.945312 -22.75 C -35.792969 -23.207031 -35.792969 -23.507812 -36.25 -24.417969 L -36.855469 -25.785156 C -36.855469 -25.9375 -37.007812 -26.085938 -37.3125 -26.390625 C -37.765625 -26.695312 -38.371094 -26.390625 -38.523438 -25.785156 C -38.675781 -25.027344 -38.371094 -22.75 -38.070312 -21.082031 L -37.3125 -17.746094 L -35.1875 -9.25 C -34.429688 -6.21875 -33.671875 -3.640625 -32.304688 0.453125 L -31.09375 3.945312 L -30.636719 5.914062 L -30.03125 7.582031 C -29.726562 8.191406 -39.890625 -0.910156 -41.253906 -1.972656 L -43.832031 -3.945312 L -46.410156 -5.613281 C -47.019531 -6.066406 -47.625 -6.371094 -47.777344 -6.371094 C -47.929688 -6.371094 -48.230469 -6.21875 -48.6875 -6.21875 C -49.898438 -6.21875 -50.355469 -4.851562 -49.746094 -2.882812 C -49.445312 -1.820312 -48.230469 0.453125 -47.625 1.363281 L -46.5625 2.730469 C -46.410156 2.882812 -46.410156 3.183594 -46.257812 3.488281 L -45.652344 4.09375 C -45.199219 4.703125 -44.136719 4.703125 -43.679688 4.246094 C -43.378906 3.945312 -43.226562 1.820312 -43.53125 1.363281 L -45.046875 -2.273438 C -45.347656 -3.035156 -34.734375 6.21875 -31.394531 8.796875 C -28.515625 10.921875 -27.90625 12.132812 -27.605469 13.195312 C -27.453125 13.800781 -27.148438 14.710938 -26.84375 15.015625 C -26.695312 15.46875 -26.390625 15.925781 -26.390625 16.078125 C -26.542969 16.378906 -22.445312 24.722656 -21.386719 26.84375 C -20.777344 27.753906 -20.476562 28.515625 -20.476562 28.664062 C -20.476562 28.816406 -20.324219 28.96875 -20.324219 28.96875 C -20.171875 28.96875 -19.867188 29.425781 -19.71875 29.878906 C -19.566406 30.335938 -18.808594 31.546875 -18.046875 32.609375 L -16.683594 34.882812 C -16.230469 35.640625 -14.257812 38.523438 -12.589844 40.496094 C -10.3125 43.53125 -3.640625 49.746094 -2.730469 49.898438 C -2.578125 49.898438 -2.273438 50.050781 -2.125 50.203125 L -2.125 50.355469 C -1.667969 50.65625 -1.214844 50.960938 -0.910156 51.265625 C -0.152344 51.417969 0.453125 51.71875 1.0625 52.175781 L 2.125 52.328125 C 3.488281 52.476562 3.945312 52.175781 3.792969 50.65625 Z M -44.742188 2.425781 C -44.742188 2.882812 -44.742188 2.882812 -45.199219 2.425781 C -45.804688 1.820312 -47.019531 0 -47.625 -1.515625 C -48.230469 -2.730469 -48.382812 -4.246094 -47.929688 -4.246094 C -47.167969 -4.246094 -44.742188 0.910156 -44.742188 2.425781 Z M 2.578125 50.960938 C 2.425781 51.265625 1.363281 50.960938 0 50.355469 C -3.488281 48.382812 -5.460938 46.867188 -8.492188 43.832031 C -11.070312 41.101562 -11.527344 40.496094 -14.105469 37.160156 C -15.320312 35.492188 -19.261719 29.273438 -19.261719 28.96875 L -20.019531 27.605469 C -20.476562 26.996094 -21.539062 25.027344 -22.445312 23.207031 C -23.207031 21.539062 -23.964844 20.019531 -24.117188 20.019531 C -24.265625 19.867188 -24.265625 19.71875 -24.265625 19.414062 L -24.417969 18.808594 C -24.570312 18.808594 -24.875 18.046875 -25.175781 17.441406 L -25.9375 15.46875 C -26.542969 13.953125 -26.542969 13.800781 -26.238281 13.800781 C -26.085938 13.800781 -25.9375 13.953125 -25.9375 13.953125 C -25.9375 14.105469 -25.785156 14.257812 -25.785156 14.257812 C -25.027344 14.257812 -19.71875 19.71875 -13.648438 26.390625 L -9.707031 30.789062 C -9.101562 31.394531 -8.492188 32.152344 -8.191406 32.609375 L -7.28125 33.824219 C -6.371094 34.882812 -2.882812 39.890625 -2.882812 40.191406 C -2.882812 40.34375 -2.730469 40.496094 -2.578125 40.496094 C -2.425781 40.648438 -2.273438 40.800781 -2.273438 40.949219 C -2.273438 41.101562 -1.820312 41.859375 -1.214844 42.769531 C 0.453125 45.199219 1.214844 46.867188 1.972656 48.835938 Z M 2.578125 50.960938 "/></g></g></g><g fill="#01111d" fill-opacity="1"><g transform="translate(314.515005, 522.462245)"><g><path d="M -52.175781 -6.371094 C -52.328125 -6.976562 -53.386719 -7.582031 -53.996094 -7.433594 C -54.296875 -7.433594 -54.601562 -7.128906 -54.753906 -6.976562 C -55.207031 -6.371094 -54.90625 -5.761719 -53.996094 -5.613281 C -53.539062 -5.613281 -53.234375 -5.460938 -53.085938 -5.308594 C -52.78125 -4.851562 -51.871094 -5.761719 -52.175781 -6.371094 Z M -41.253906 2.273438 C -41.40625 0.605469 -42.316406 -2.273438 -43.378906 -4.703125 L -46.410156 -11.375 L -47.167969 -13.195312 C -47.472656 -13.648438 -47.929688 -13.648438 -48.078125 -13.347656 L -48.230469 -13.042969 L -48.230469 -12.742188 L -48.078125 -12.4375 C -45.199219 -5.761719 -43.378906 -1.214844 -42.921875 0.910156 C -42.921875 0.910156 -42.46875 2.125 -42.769531 2.730469 C -43.378906 2.730469 -43.984375 2.578125 -44.589844 2.125 L -46.714844 -0.453125 C -48.230469 -2.273438 -48.988281 -2.730469 -49.292969 -1.972656 C -49.445312 -1.667969 -48.988281 -0.453125 -48.230469 0.605469 C -45.957031 3.335938 -44.4375 4.550781 -42.921875 4.550781 L -42.46875 4.550781 C -41.558594 4.550781 -41.101562 3.792969 -41.253906 2.273438 Z M -41.253906 2.273438 "/></g></g></g><g fill="#01111d" fill-opacity="1"><g transform="translate(314.515005, 509.72262)"><g><path d="M -6.976562 -76.289062 C -7.433594 -76.59375 -7.433594 -76.59375 -7.582031 -76.289062 C -7.734375 -76.136719 -8.039062 -75.988281 -8.191406 -76.136719 C -8.949219 -76.289062 -11.980469 -78.261719 -14.257812 -80.082031 L -20.628906 -84.785156 C -22.902344 -86.453125 -25.027344 -88.273438 -25.480469 -88.726562 C -26.085938 -89.183594 -26.996094 -89.941406 -27.605469 -90.242188 L -29.273438 -91.609375 L -34.882812 -96.160156 L -36.703125 -97.828125 L -42.46875 -102.679688 L -50.203125 -109.65625 L -61.273438 -119.0625 L -70.980469 -127.707031 C -72.195312 -129.070312 -72.5 -129.375 -72.953125 -129.679688 L -74.015625 -130.738281 C -74.320312 -131.042969 -75.988281 -132.710938 -77.808594 -134.226562 L -81.902344 -138.019531 C -82.355469 -138.625 -82.8125 -138.929688 -82.8125 -138.929688 L -86.605469 -142.570312 L -106.625 -161.984375 L -108.292969 -163.652344 C -108.746094 -164.105469 -109.203125 -164.5625 -109.050781 -164.5625 C -109.050781 -164.714844 -109.507812 -165.320312 -110.113281 -166.078125 L -112.234375 -168.960938 C -113.144531 -170.023438 -113.144531 -170.476562 -112.085938 -170.933594 C -111.324219 -171.234375 -111.175781 -171.539062 -111.628906 -172.296875 C -111.78125 -172.753906 -113.601562 -172.296875 -114.511719 -171.539062 C -115.117188 -171.234375 -115.269531 -170.933594 -115.117188 -170.476562 L -114.816406 -169.265625 C -114.664062 -168.960938 -114.207031 -168.203125 -113.753906 -167.746094 L -112.234375 -165.625 L -111.023438 -163.957031 L -95.703125 -148.183594 L -88.878906 -141.507812 L -87.515625 -140.144531 L -84.933594 -137.714844 L -83.417969 -136.351562 C -83.117188 -136.046875 -81.597656 -134.378906 -79.777344 -132.863281 C -79.171875 -132.410156 -78.71875 -131.800781 -78.71875 -131.800781 C -78.71875 -131.648438 -78.566406 -131.5 -78.261719 -131.347656 C -78.109375 -131.347656 -77.65625 -131.042969 -77.351562 -130.589844 L -74.773438 -128.3125 L -72.800781 -126.339844 L -68.707031 -122.703125 L -63.550781 -118 L -61.730469 -116.484375 L -48.6875 -104.957031 C -47.472656 -103.742188 -45.957031 -102.527344 -44.589844 -101.316406 L -40.34375 -97.675781 L -38.523438 -96.160156 L -34.429688 -92.824219 C -29.121094 -88.425781 -28.515625 -87.96875 -26.84375 -86.90625 L -25.175781 -85.390625 L -24.117188 -84.632812 L -23.355469 -84.027344 C -22.902344 -83.875 -22.445312 -83.417969 -22.445312 -83.265625 C -22.296875 -83.117188 -21.992188 -82.8125 -21.6875 -82.8125 L -18.808594 -80.6875 C -19.71875 -80.6875 -20.628906 -80.992188 -21.386719 -81.75 L -21.539062 -82.054688 C -21.6875 -82.054688 -22.144531 -82.054688 -22.597656 -82.355469 L -25.785156 -84.027344 C -28.515625 -85.390625 -32.152344 -87.515625 -37.613281 -90.851562 C -42.316406 -93.882812 -44.589844 -95.25 -46.5625 -96.160156 L -48.6875 -97.222656 L -55.207031 -100.558594 C -59.453125 -102.679688 -63.550781 -105.109375 -73.105469 -110.871094 C -80.535156 -115.574219 -81.75 -116.332031 -85.996094 -119.667969 C -87.363281 -120.730469 -88.878906 -121.488281 -89.789062 -121.488281 C -90.394531 -121.640625 -90.851562 -121.640625 -91.457031 -121.335938 C -92.0625 -121.183594 -91.914062 -121.03125 -91.304688 -120.273438 C -89.332031 -117.847656 -88.425781 -116.785156 -88.121094 -116.484375 C -87.816406 -116.179688 -87.363281 -115.722656 -87.058594 -115.269531 C -86.753906 -114.816406 -86.300781 -114.359375 -86.148438 -114.207031 C -85.84375 -114.207031 -85.542969 -113.753906 -85.238281 -113.296875 C -84.785156 -112.539062 -78.414062 -105.714844 -77.503906 -104.957031 C -77.199219 -104.804688 -77.046875 -104.5 -77.199219 -104.347656 C -77.351562 -104.199219 -77.199219 -104.199219 -77.046875 -104.199219 C -76.898438 -104.199219 -75.683594 -103.136719 -74.320312 -101.921875 L -68.25 -96.160156 L -67.191406 -95.097656 L -66.886719 -94.640625 L -63.09375 -91.152344 C -62.183594 -90.394531 -61.425781 -89.636719 -61.425781 -89.484375 L -61.125 -89.183594 C -60.820312 -89.03125 -60.0625 -88.425781 -59.152344 -87.664062 C -58.242188 -86.90625 -57.332031 -86.148438 -57.179688 -86.148438 C -57.027344 -86.148438 -57.027344 -85.996094 -57.027344 -85.84375 C -57.027344 -85.695312 -55.664062 -84.328125 -55.207031 -84.027344 L -53.085938 -82.207031 L -52.933594 -81.902344 L -52.175781 -81.144531 C -51.417969 -80.839844 -50.808594 -80.386719 -50.355469 -79.628906 L -50.050781 -79.476562 C -49.898438 -79.476562 -49.445312 -79.171875 -48.535156 -78.261719 L -43.378906 -73.410156 L -39.28125 -69.769531 L -34.277344 -65.066406 C -33.214844 -63.851562 -30.941406 -61.882812 -30.636719 -61.882812 C -30.335938 -61.882812 -30.789062 -63.246094 -31.09375 -63.398438 C -31.851562 -63.703125 -33.671875 -65.523438 -33.671875 -65.824219 C -33.671875 -65.976562 -34.125 -66.433594 -34.734375 -66.734375 C -35.339844 -67.191406 -36.097656 -67.796875 -36.402344 -68.25 L -37.917969 -69.769531 C -38.523438 -70.222656 -38.980469 -70.679688 -38.980469 -70.679688 C -38.980469 -70.832031 -39.433594 -71.285156 -40.039062 -71.589844 C -40.648438 -72.042969 -41.101562 -72.5 -41.101562 -72.648438 C -41.101562 -72.800781 -43.53125 -75.078125 -43.832031 -75.230469 C -43.984375 -75.230469 -44.742188 -75.835938 -45.5 -76.59375 C -46.257812 -77.351562 -47.019531 -78.109375 -47.320312 -78.261719 C -47.625 -78.414062 -47.777344 -78.566406 -47.777344 -78.71875 C -47.777344 -78.867188 -48.230469 -79.324219 -48.988281 -79.929688 C -49.746094 -80.535156 -50.203125 -81.144531 -50.507812 -81.597656 L -50.65625 -81.597656 C -51.566406 -81.902344 -52.175781 -82.507812 -52.628906 -83.117188 L -53.085938 -83.875 L -53.539062 -84.175781 C -53.539062 -84.027344 -53.691406 -84.175781 -53.84375 -84.328125 L -54.753906 -85.085938 C -54.90625 -85.238281 -55.207031 -85.542969 -55.359375 -85.84375 C -55.359375 -86.148438 -55.664062 -86.300781 -55.816406 -86.300781 C -56.117188 -86.300781 -56.269531 -86.453125 -56.421875 -86.753906 C -56.574219 -86.90625 -56.875 -87.363281 -57.179688 -87.515625 L -58.542969 -88.574219 L -59.605469 -89.484375 L -61.425781 -91.152344 C -62.183594 -91.914062 -63.09375 -92.671875 -63.246094 -92.671875 C -63.398438 -92.671875 -63.550781 -92.824219 -63.550781 -92.972656 C -63.550781 -93.125 -64.15625 -93.730469 -64.761719 -94.1875 C -65.523438 -94.640625 -66.128906 -95.25 -66.128906 -95.402344 C -66.128906 -95.550781 -66.433594 -95.855469 -66.734375 -96.007812 C -67.191406 -96.3125 -67.339844 -96.460938 -67.339844 -96.613281 C -67.191406 -96.765625 -67.339844 -96.917969 -67.644531 -96.917969 C -67.949219 -97.070312 -68.25 -97.222656 -68.101562 -97.371094 C -68.101562 -97.523438 -68.25 -97.828125 -68.402344 -97.828125 C -68.554688 -97.828125 -69.3125 -98.433594 -70.070312 -99.191406 C -70.832031 -99.949219 -71.589844 -100.558594 -71.890625 -100.710938 C -72.195312 -100.710938 -72.347656 -101.011719 -72.347656 -101.164062 C -72.347656 -101.46875 -72.800781 -101.921875 -73.105469 -102.226562 C -73.558594 -102.527344 -74.320312 -103.136719 -74.621094 -103.742188 C -75.078125 -104.199219 -75.683594 -104.804688 -76.136719 -105.109375 L -77.503906 -106.472656 C -78.109375 -107.230469 -80.535156 -109.808594 -80.992188 -110.265625 C -81.296875 -110.417969 -81.902344 -111.175781 -83.417969 -113.144531 L -84.785156 -114.664062 C -85.238281 -115.117188 -85.542969 -115.421875 -85.238281 -115.421875 C -85.695312 -115.875 -85.996094 -116.332031 -86.300781 -116.9375 C -86.605469 -117.242188 -86.753906 -117.542969 -86.90625 -117.847656 L -86.753906 -117.695312 L -84.785156 -116.179688 C -84.632812 -116.179688 -84.175781 -115.574219 -83.265625 -114.664062 L -82.660156 -114.511719 L -80.992188 -113.601562 L -80.234375 -113.144531 C -79.929688 -112.996094 -79.171875 -112.691406 -79.929688 -112.84375 C -79.171875 -112.539062 -78.566406 -112.085938 -78.109375 -111.628906 C -77.046875 -111.175781 -74.925781 -109.808594 -70.980469 -107.382812 C -64.308594 -103.136719 -56.269531 -98.433594 -55.964844 -98.585938 L -53.539062 -97.371094 C -53.386719 -97.371094 -52.933594 -97.070312 -52.328125 -96.765625 C -51.71875 -96.3125 -51.265625 -96.160156 -51.113281 -96.160156 L -50.355469 -95.855469 C -49.140625 -95.097656 -46.410156 -93.582031 -46.257812 -93.582031 L -38.980469 -89.332031 L -33.519531 -85.84375 C -32.152344 -85.085938 -31.09375 -84.328125 -31.09375 -84.328125 C -31.09375 -84.175781 -30.941406 -84.175781 -30.789062 -84.175781 C -30.484375 -84.175781 -27.605469 -82.507812 -27.753906 -82.355469 C -27.753906 -82.355469 -27.753906 -82.207031 -27.605469 -82.355469 C -27.453125 -82.355469 -26.695312 -82.054688 -25.785156 -81.597656 C -25.027344 -81.144531 -24.265625 -80.6875 -24.117188 -80.839844 C -23.964844 -80.839844 -23.8125 -80.6875 -23.8125 -80.535156 C -23.8125 -80.386719 -23.660156 -80.234375 -23.507812 -80.234375 C -22.597656 -80.082031 -15.773438 -77.046875 -13.800781 -75.988281 L -11.832031 -75.230469 L -9.859375 -74.320312 C -8.949219 -73.863281 -8.492188 -73.863281 -8.039062 -74.167969 L -7.886719 -74.320312 C -6.671875 -74.46875 -6.066406 -75.378906 -6.976562 -76.289062 Z M 16.230469 -18.808594 C 15.320312 -20.324219 13.5 -22.75 13.042969 -22.902344 C 12.890625 -23.054688 12.4375 -23.355469 12.132812 -23.8125 C 11.980469 -24.265625 11.375 -24.875 10.921875 -25.175781 C 10.617188 -25.328125 10.3125 -25.632812 10.3125 -25.785156 C 10.3125 -25.9375 9.707031 -26.542969 8.796875 -27.148438 C 8.039062 -27.753906 7.128906 -28.664062 6.671875 -29.121094 C 6.371094 -29.574219 5.914062 -30.03125 5.761719 -30.03125 C 5.613281 -30.03125 5.308594 -30.335938 5.15625 -30.484375 C 5.003906 -30.941406 3.035156 -32.914062 1.363281 -34.277344 C -0.605469 -36.097656 -3.183594 -38.371094 -3.640625 -38.980469 C -3.945312 -39.28125 -4.398438 -39.738281 -4.851562 -39.890625 C -5.15625 -40.039062 -5.613281 -40.191406 -5.613281 -40.496094 C -5.460938 -40.648438 -5.914062 -41.101562 -6.371094 -41.40625 C -6.824219 -41.710938 -7.582031 -42.316406 -7.886719 -42.621094 C -8.191406 -43.074219 -8.796875 -43.378906 -9.101562 -43.378906 C -9.25 -43.378906 -9.402344 -43.378906 -9.25 -43.53125 C -9.101562 -43.53125 -9.402344 -43.984375 -10.011719 -44.4375 C -10.464844 -44.894531 -10.769531 -45.347656 -10.769531 -45.347656 C -10.769531 -45.5 -11.070312 -45.804688 -11.222656 -45.804688 C -11.527344 -45.957031 -12.589844 -46.867188 -13.800781 -47.929688 L -17.746094 -51.417969 L -19.71875 -53.386719 L -20.929688 -54.296875 L -22.597656 -55.816406 C -23.660156 -56.875 -23.8125 -56.875 -26.542969 -59 C -27.300781 -59.605469 -28.058594 -60.363281 -28.058594 -60.515625 C -28.058594 -60.820312 -29.726562 -62.183594 -29.878906 -61.882812 C -30.03125 -61.882812 -30.03125 -61.578125 -29.878906 -61.273438 C -29.726562 -60.972656 -28.96875 -60.214844 -28.210938 -59.453125 L -18.957031 -51.417969 L -7.734375 -41.101562 C -1.667969 -35.792969 0.757812 -33.519531 1.0625 -33.0625 C 1.214844 -32.761719 1.972656 -32.152344 2.578125 -31.546875 C 3.335938 -30.941406 3.792969 -30.335938 3.945312 -30.183594 C 3.945312 -30.03125 4.09375 -29.878906 4.246094 -29.878906 C 4.398438 -29.878906 4.703125 -29.574219 4.851562 -29.425781 C 4.851562 -29.121094 5.15625 -28.816406 5.308594 -28.664062 L 6.523438 -27.605469 C 6.976562 -27.300781 7.433594 -26.695312 7.433594 -26.542969 C 7.582031 -26.238281 8.039062 -25.785156 8.644531 -25.328125 C 9.25 -24.875 10.160156 -23.964844 10.769531 -23.355469 C 12.742188 -20.929688 13.648438 -19.566406 13.953125 -18.957031 C 14.410156 -17.441406 14.410156 -17.289062 13.347656 -16.988281 C 12.132812 -16.683594 11.527344 -16.835938 11.070312 -17.289062 C 10.769531 -17.59375 10.617188 -17.59375 9.707031 -17.441406 C 8.949219 -17.289062 8.644531 -17.140625 8.492188 -16.683594 C 8.34375 -15.925781 8.492188 -15.925781 10.3125 -15.46875 C 12.589844 -14.863281 14.410156 -15.015625 15.773438 -15.773438 C 16.988281 -16.53125 17.140625 -17.140625 16.230469 -18.808594 Z M 16.230469 -18.808594 "/></g></g></g><g fill="#01111d" fill-opacity="1"><g transform="translate(314.515005, 390.364544)"><g><path d="M -39.738281 -0.304688 C -38.980469 -0.757812 -38.980469 -1.214844 -39.890625 -1.972656 C -40.949219 -2.882812 -41.710938 -2.882812 -41.859375 -2.125 C -42.011719 -1.515625 -42.011719 -1.214844 -41.859375 -0.910156 C -41.558594 0 -40.648438 0.304688 -39.738281 -0.304688 Z M -39.738281 -0.304688 "/></g></g></g><g fill="#000000" fill-opacity="1"><g transform="translate(591.402793, 1120.709034)"><g><path d="M 60.695312 -34.03125 C 60.734375 -34.175781 60.769531 -35.15625 60.738281 -36.457031 L 60.691406 -38.832031 L 60.871094 -42.058594 L 61.054688 -44.445312 C 61.179688 -46.316406 61.703125 -50.820312 61.742188 -50.960938 C 61.867188 -51.15625 62.042969 -52.9375 61.992188 -53.027344 L 62.015625 -53.402344 L 62.277344 -55.234375 L 62.679688 -58.707031 L 62.96875 -60.074219 L 65.660156 -75.191406 L 65.761719 -75.847656 L 67.257812 -81.996094 C 68.339844 -85.742188 68.632812 -87.109375 68.773438 -87.910156 L 69.472656 -90.234375 C 69.703125 -91.085938 69.929688 -91.9375 69.863281 -92.261719 L 70.015625 -92.828125 C 70.109375 -92.882812 70.351562 -93.5 70.488281 -94.300781 C 70.855469 -95.953125 71.519531 -98.136719 71.929688 -99.09375 C 72.390625 -99.960938 73.550781 -103.152344 74.0625 -104.765625 L 75.082031 -107.996094 C 75.757812 -109.945312 75.730469 -110.410156 75.125 -110.417969 C 74.605469 -110.484375 74.171875 -109.992188 73.789062 -108.570312 C 73.507812 -107.808594 73.226562 -107.046875 73.136719 -106.992188 C 73.007812 -106.800781 72.96875 -106.65625 73.023438 -106.566406 C 73.179688 -106.296875 69.960938 -97.71875 69.394531 -97.03125 L 68.457031 -95.53125 L 65.203125 -89.933594 C 64.78125 -89.210938 64.28125 -88.203125 64.078125 -87.722656 C 63.925781 -87.15625 63.667969 -86.769531 63.578125 -86.714844 L 62.949219 -85.515625 C 62.707031 -84.894531 62.296875 -83.9375 61.953125 -83.496094 L 61.246094 -82.011719 C 61.003906 -81.390625 59.289062 -78.121094 59.109375 -78.015625 L 58.777344 -77.34375 L 58.390625 -76.761719 C 58.339844 -76.851562 58.042969 -76.324219 57.800781 -75.703125 L 57.636719 -75.367188 L 56.496094 -73.386719 C 55.941406 -72.46875 55.390625 -71.550781 55.300781 -71.5 C 55.210938 -71.449219 55.082031 -71.253906 55.046875 -71.113281 C 54.957031 -70.222656 52.492188 -67 51.464844 -66.285156 C 50.796875 -65.78125 50.707031 -65.730469 50.730469 -66.101562 C 50.625 -66.285156 50.6875 -66.800781 50.660156 -67.265625 L 50.734375 -68.386719 L 50.882812 -69.792969 C 50.894531 -70.398438 51.058594 -71.574219 51.054688 -72.414062 L 51.085938 -74.230469 L 51.351562 -76.066406 C 51.5 -77.472656 52.042969 -80.066406 52.296875 -81.292969 L 53.214844 -84.703125 L 53.527344 -86.445312 C 53.78125 -87.671875 53.996094 -88.757812 54.339844 -90.035156 C 54.417969 -90.320312 54.441406 -90.691406 54.441406 -90.691406 C 54.390625 -90.785156 54.824219 -92.113281 55.332031 -93.726562 L 56.632812 -97.71875 L 57.054688 -99.28125 C 58.355469 -102.433594 58.828125 -103.90625 58.953125 -104.941406 L 59.335938 -106.359375 L 59.550781 -107.445312 L 60.25 -110.609375 L 61.328125 -115.191406 C 61.59375 -116.1875 61.785156 -116.898438 62 -117.980469 L 62.253906 -119.207031 L 62.597656 -120.484375 C 62.914062 -122.230469 62.496094 -122.949219 61.414062 -122.328125 C 61.144531 -122.171875 60.890625 -121.78125 60.710938 -120.839844 L 59.441406 -115.546875 C 59.160156 -114.785156 58.894531 -113.789062 58.832031 -113.273438 C 58.820312 -112.667969 58.59375 -111.8125 58.441406 -111.246094 C 57.882812 -108.882812 57.539062 -107.605469 57.144531 -105.578125 C 56.703125 -103.640625 55.695312 -100.179688 55.425781 -100.023438 C 55.246094 -99.921875 54.300781 -96.976562 54.445312 -96.9375 C 54.535156 -96.988281 54.152344 -95.570312 53.640625 -93.953125 C 52.660156 -90.867188 52.46875 -90.15625 51.886719 -87.417969 C 51.75 -86.621094 51.558594 -85.910156 51.46875 -85.855469 C 51.324219 -85.894531 51.234375 -85.84375 51.378906 -85.804688 C 51.519531 -85.765625 51.433594 -84.875 51.164062 -83.882812 L 50.199219 -79.722656 C 50 -78.40625 49.683594 -76.664062 49.632812 -75.917969 L 49.523438 -74.652344 C 49.410156 -74.226562 49.203125 -70.625 49.253906 -70.535156 L 49.144531 -69.269531 C 48.957031 -67.722656 49.03125 -64.882812 49.238281 -64.523438 C 49.863281 -63.441406 52.191406 -65.023438 54.128906 -67.703125 C 55.167969 -69.023438 56.476562 -71.335938 56.628906 -71.90625 C 56.617188 -72.136719 56.742188 -72.332031 56.832031 -72.382812 C 56.925781 -72.433594 57.269531 -72.875 57.566406 -73.40625 L 59.871094 -77.734375 L 61.394531 -80.296875 C 61.484375 -80.347656 61.5625 -80.632812 61.546875 -80.863281 C 61.625 -81.148438 61.703125 -81.433594 61.792969 -81.484375 C 61.882812 -81.535156 62.046875 -81.871094 62.253906 -82.351562 C 62.457031 -82.828125 62.699219 -83.449219 62.828125 -83.644531 L 63.339844 -84.417969 C 63.585938 -85.039062 64.339844 -86.433594 64.507812 -86.769531 L 64.839844 -87.441406 C 65.121094 -88.207031 66.390625 -90.378906 66.570312 -90.480469 C 66.660156 -90.535156 66.789062 -90.726562 66.773438 -90.960938 C 66.851562 -91.242188 67.054688 -91.722656 67.3125 -92.109375 L 68.59375 -94.050781 L 68.378906 -92.964844 L 67.234375 -88.703125 C 67.246094 -88.472656 66.613281 -85.824219 66.292969 -84.921875 C 66.011719 -84.15625 65.570312 -82.222656 65.367188 -80.90625 L 65.050781 -79.160156 L 64.503906 -77.40625 L 64.238281 -75.574219 L 63.265625 -70.808594 L 62.976562 -68.601562 L 62.722656 -67.375 C 62.660156 -66.859375 62.597656 -66.34375 62.507812 -66.289062 C 62.417969 -66.238281 62.46875 -66.148438 62.519531 -66.058594 C 62.625 -65.878906 62.144531 -62.960938 61.980469 -62.625 L 61.753906 -60.933594 L 61.414062 -58.816406 L 61.085938 -56.46875 L 60.738281 -52.90625 L 60.492188 -50.003906 C 60.273438 -46.632812 60.074219 -44.480469 59.960938 -44.054688 C 59.882812 -43.769531 59.847656 -43.625 59.9375 -43.679688 C 59.9375 -43.679688 60.003906 -43.355469 59.976562 -42.980469 L 59.875 -39.203125 L 60.070312 -35.953125 C 60.136719 -34.789062 60.476562 -33.785156 60.695312 -34.03125 Z M 10.925781 -3.539062 C 12.320312 -3.621094 14.671875 -5.578125 16.570312 -8.113281 C 16.828125 -8.5 17.304688 -9.136719 17.664062 -9.34375 C 18.679688 -10.289062 25.054688 -19.847656 25.488281 -21.175781 L 26.652344 -23.53125 C 27.742188 -25.597656 27.703125 -25.457031 28.175781 -26.929688 L 29.3125 -29.746094 L 30.679688 -33.414062 L 31.46875 -35.789062 L 32.082031 -37.226562 C 32.324219 -37.84375 32.773438 -38.941406 33.003906 -39.796875 L 37.445312 -52.082031 C 38.160156 -54.171875 39.320312 -57.363281 40.023438 -58.851562 C 40.472656 -59.949219 40.867188 -61.136719 40.710938 -61.40625 C 40.609375 -61.589844 40.964844 -62.632812 41.195312 -62.648438 C 41.285156 -62.699219 41.46875 -62.804688 41.542969 -63.089844 L 44.148438 -70.230469 C 44.222656 -70.515625 44.25 -70.890625 44.183594 -71.210938 C 44.167969 -71.445312 44.195312 -71.820312 44.410156 -72.066406 C 44.71875 -72.363281 45.640625 -74.933594 45.929688 -76.300781 L 46.3125 -77.722656 L 48.734375 -85.601562 C 49.089844 -86.648438 49.421875 -88.160156 49.46875 -88.90625 C 49.515625 -89.65625 49.671875 -90.222656 49.902344 -90.238281 C 49.992188 -90.289062 50.082031 -90.339844 50.03125 -90.429688 C 49.925781 -90.613281 50.359375 -91.941406 50.65625 -92.472656 C 50.785156 -92.664062 50.769531 -92.898438 50.664062 -93.078125 C 50.472656 -93.207031 50.507812 -93.347656 50.78125 -93.503906 C 51.050781 -93.660156 51.125 -93.945312 51.0625 -94.265625 C 50.996094 -94.589844 51.070312 -94.871094 51.160156 -94.925781 C 51.339844 -95.027344 51.699219 -96.074219 52.527344 -98.59375 L 53.445312 -101.164062 C 54.417969 -103.644531 54.914062 -105.492188 54.667969 -105.710938 C 54.332031 -105.875 53.882812 -105.617188 53.910156 -105.152344 C 53.871094 -105.011719 53.679688 -104.300781 53.398438 -103.539062 C 52.554688 -101.25 51.078125 -96.316406 51.105469 -95.851562 C 51.121094 -95.621094 51.082031 -95.480469 50.992188 -95.425781 C 50.851562 -95.464844 50.605469 -94.84375 50.453125 -94.277344 L 49.832031 -92.238281 C 49.714844 -91.808594 49.523438 -91.101562 49.5 -90.726562 C 49.476562 -90.351562 49.308594 -90.015625 49.21875 -89.964844 C 49.21875 -89.964844 48.503906 -87.871094 47.855469 -85.457031 C 45.792969 -78.625 44.507812 -74.398438 44.414062 -74.347656 C 44.324219 -74.296875 43.359375 -70.976562 42.527344 -68.457031 L 41.570312 -65.746094 C 41.238281 -65.074219 40.972656 -64.078125 40.765625 -63.601562 C 40.703125 -63.085938 40.5 -62.605469 40.410156 -62.554688 C 40.320312 -62.503906 40.152344 -62.167969 40.039062 -61.742188 L 37.496094 -55.113281 L 36.527344 -52.632812 C 36.410156 -52.207031 36.195312 -51.960938 36.195312 -51.960938 C 36.105469 -51.910156 36.027344 -51.625 35.949219 -51.339844 L 34.804688 -47.917969 C 33.382812 -44.339844 33.027344 -43.292969 32.199219 -40.773438 C 31.804688 -39.585938 31.316406 -38.34375 31.097656 -38.097656 C 30.84375 -37.710938 30.625 -37.464844 30.675781 -37.375 C 30.726562 -37.285156 30.589844 -36.484375 30.269531 -35.578125 L 29.609375 -33.398438 C 29.582031 -33.023438 29.417969 -32.6875 29.238281 -32.582031 C 29.148438 -32.53125 28.980469 -32.195312 28.867188 -31.769531 C 28.804688 -31.253906 28.597656 -30.773438 28.378906 -30.527344 C 28.199219 -30.425781 27.90625 -29.894531 27.828125 -29.609375 L 27.433594 -28.421875 C 27.304688 -28.226562 27.203125 -27.570312 27.089844 -27.144531 C 27.027344 -26.628906 27.003906 -26.253906 26.863281 -26.292969 C 26.769531 -26.238281 26.386719 -25.65625 26.015625 -24.84375 C 25.644531 -24.027344 25.222656 -23.304688 25.132812 -23.253906 L 23.914062 -20.992188 C 23.289062 -19.789062 22.570312 -18.535156 22.261719 -18.238281 L 21.285156 -16.59375 L 19.824219 -14.550781 C 17.960938 -12.15625 17.617188 -11.714844 16.832031 -10.785156 L 15.046875 -8.675781 C 14.574219 -8.042969 13.777344 -7.339844 12.875 -6.820312 C 11.394531 -5.847656 11.394531 -5.847656 11.316406 -6.402344 C 11.015625 -7.550781 10.859375 -7.820312 10.394531 -7.792969 C 10.109375 -7.871094 9.839844 -7.714844 9.53125 -7.414062 C 8.964844 -6.730469 8.929688 -5.75 9.515625 -4.527344 L 10.050781 -3.394531 Z M 10.925781 -3.539062 "/></g></g></g><g fill="#000000" fill-opacity="1"><g transform="translate(684.658497, 1066.945462)"><g><path d="M -9.195312 -23.03125 C -9.054688 -22.992188 -8.875 -23.097656 -8.835938 -23.238281 L -8.617188 -23.484375 L -8.488281 -23.679688 L -8.476562 -24.285156 C -8.546875 -25.445312 -8.574219 -25.910156 -8.894531 -28.964844 C -8.9375 -29.664062 -8.953125 -30.734375 -9.164062 -31.09375 C -9.226562 -31.417969 -9.421875 -31.542969 -9.472656 -31.632812 L -9.113281 -31.84375 C -8.894531 -32.089844 -8.558594 -31.921875 -8.289062 -32.078125 L -6.550781 -32.601562 L -5.183594 -33.148438 C -4.179688 -33.488281 -3.226562 -33.917969 -2.054688 -34.589844 L -0.34375 -35.578125 C 0.199219 -35.890625 1.226562 -36.605469 2.203125 -37.40625 L 3.527344 -38.652344 L 4.222656 -39.53125 C 4.351562 -39.726562 4.425781 -40.007812 3.949219 -40.214844 C 3.804688 -40.25 3.949219 -40.214844 3.203125 -39.421875 C 2.675781 -38.878906 2.546875 -38.6875 1.660156 -37.933594 C 0.773438 -37.183594 -0.707031 -36.210938 -2.6875 -35.066406 C -5.355469 -33.648438 -7.144531 -33.21875 -9.273438 -32.953125 C -9.917969 -32.820312 -10.417969 -32.648438 -10.691406 -32.496094 C -10.871094 -32.390625 -10.960938 -32.339844 -10.945312 -32.105469 C -11.035156 -32.054688 -10.984375 -31.964844 -10.984375 -31.964844 L -10.570312 -31.242188 C -10.414062 -30.972656 -10.140625 -30.289062 -10.058594 -29.734375 C -9.8125 -28.679688 -9.523438 -24.640625 -9.703125 -24.539062 C -9.976562 -24.382812 -11.324219 -25.886719 -11.996094 -27.058594 C -12.324219 -27.832031 -12.660156 -27.996094 -13.070312 -27.878906 C -13.664062 -27.65625 -13.960938 -27.128906 -14.175781 -26.042969 C -14.273438 -24.546875 -14.5 -23.695312 -14.589844 -23.640625 C -14.859375 -23.488281 -15.648438 -26.515625 -15.574219 -27.636719 C -15.617188 -29.171875 -15.929688 -29.714844 -16.6875 -29.15625 C -16.960938 -29 -17.035156 -28.714844 -16.890625 -27.839844 C -16.769531 -26.589844 -16.167969 -24.292969 -15.878906 -23.378906 C -15.566406 -22.839844 -15.515625 -22.75 -15.039062 -22.542969 C -14.523438 -22.480469 -14.378906 -22.445312 -13.980469 -22.792969 C -13.441406 -23.105469 -13.445312 -23.945312 -13.175781 -24.9375 C -13.113281 -25.453125 -13.066406 -26.203125 -12.976562 -26.253906 C -12.886719 -26.304688 -12.339844 -25.78125 -12.328125 -25.546875 C -12.222656 -25.367188 -10.617188 -23.414062 -9.621094 -23.144531 Z M -9.195312 -23.03125 "/></g></g></g><g fill="#000000" fill-opacity="1"><g transform="translate(706.463296, 1054.374607)"><g><path d="M -12.199219 -25.742188 C -11.785156 -25.859375 -11.425781 -26.066406 -11.117188 -26.363281 L -10.847656 -26.519531 C -10.847656 -26.519531 -9.433594 -27.816406 -8.1875 -29.613281 L -4.402344 -34.917969 C -4.277344 -35.113281 -4.429688 -35.382812 -4.664062 -35.367188 L -4.804688 -35.40625 L -5.074219 -35.25 L -5.203125 -35.058594 C -8.183594 -31.058594 -10.261719 -28.417969 -11.277344 -27.472656 C -11.277344 -27.472656 -12.242188 -26.4375 -12.539062 -26.746094 C -13.367188 -27.351562 -13.308594 -28.703125 -13.167969 -29.503906 C -13.066406 -30.164062 -12.789062 -31.765625 -13.871094 -31.140625 C -14.050781 -31.035156 -14.375 -30.972656 -14.425781 -31.0625 C -14.722656 -31.371094 -14.941406 -31.125 -16.007812 -29.429688 C -16.941406 -27.929688 -18.03125 -25.859375 -18.59375 -24.335938 C -18.835938 -23.714844 -18.910156 -23.433594 -18.753906 -23.164062 C -18.496094 -22.710938 -18.171875 -22.777344 -17.632812 -23.089844 C -17.183594 -23.347656 -15.898438 -25.289062 -15.492188 -26.246094 C -15.132812 -27.292969 -14.324219 -28.597656 -14.273438 -28.507812 L -14.179688 -27.71875 C -14.203125 -27.347656 -14.085938 -26.933594 -13.929688 -26.664062 C -13.8125 -26.25 -13.65625 -25.980469 -13.179688 -25.777344 C -12.84375 -25.609375 -12.558594 -25.535156 -12.199219 -25.742188 Z M -17.921875 -24.003906 L -17.585938 -24.675781 C -17.359375 -25.527344 -16.488281 -27.351562 -15.628906 -28.566406 C -15.039062 -29.625 -14.859375 -29.730469 -14.753906 -29.550781 C -14.703125 -29.460938 -14.871094 -29.125 -15.089844 -28.878906 C -15.601562 -28.101562 -15.804688 -27.625 -15.882812 -27.339844 C -15.957031 -27.054688 -16.972656 -25.273438 -17.484375 -24.496094 Z M -17.921875 -24.003906 "/></g></g></g><g fill="#000000" fill-opacity="1"><g transform="translate(719.528202, 1046.842457)"><g><path d="M -8.605469 -27.214844 L -6.871094 -28.574219 C -5.363281 -29.921875 -2.925781 -32.769531 -2.925781 -32.769531 L -1.976562 -34.035156 L -1.242188 -35.058594 L -0.859375 -35.640625 C -0.347656 -36.417969 -0.253906 -36.46875 0.308594 -37.15625 C 1.09375 -38.085938 1.4375 -38.527344 0.652344 -38.433594 C 0.421875 -38.417969 -0.105469 -37.875 -1.53125 -35.972656 C -2.570312 -34.652344 -4.046875 -32.84375 -4.792969 -32.050781 C -8.339844 -28.207031 -10.34375 -26.691406 -11.019531 -27.863281 C -11.320312 -28.171875 -11.398438 -28.726562 -11.132812 -29.71875 C -10.878906 -30.945312 -11.761719 -32.476562 -12.539062 -30.707031 C -12.617188 -30.421875 -12.964844 -29.984375 -13.21875 -29.59375 L -15.375 -26.671875 L -15.316406 -28.027344 C -15.359375 -28.722656 -15.359375 -28.722656 -15.835938 -28.925781 C -16.457031 -29.167969 -16.765625 -28.871094 -16.875 -27.605469 L -17.039062 -26.433594 C -16.960938 -25.878906 -17.058594 -24.382812 -17.210938 -23.8125 L -17.054688 -23.542969 C -17.078125 -23.167969 -16.601562 -22.964844 -16.242188 -23.171875 C -16.097656 -23.132812 -15.933594 -23.46875 -15.714844 -23.714844 C -15.214844 -24.722656 -13.304688 -27.867188 -12.664062 -28.835938 L -12.574219 -28.886719 L -12.546875 -28.421875 L -12.492188 -28.332031 L -12.515625 -27.960938 C -12.527344 -27.351562 -11.722656 -26.375 -11.207031 -26.3125 C -10.40625 -26.175781 -9.453125 -26.605469 -8.605469 -27.214844 Z M -8.605469 -27.214844 "/></g></g></g><g fill="#000000" fill-opacity="1"><g transform="translate(737.999233, 1036.193579)"><g><path d="M -28.796875 19.601562 C -27.949219 18.992188 -26.597656 17.375 -25.664062 15.875 L -24.816406 14.425781 L -24.226562 13.367188 L -22.988281 10.730469 L -20.863281 5.664062 L -18.601562 -0.199219 C -17.59375 -2.824219 -16.167969 -7.847656 -15.714844 -10.390625 C -15.511719 -11.707031 -15.117188 -12.894531 -15.078125 -13.035156 C -15.015625 -13.550781 -13.425781 -15.789062 -12.023438 -17.316406 C -11.714844 -17.617188 -11.550781 -17.953125 -11.511719 -18.09375 C -11.472656 -18.234375 -11.382812 -18.289062 -11.292969 -18.339844 C -11.152344 -18.300781 -11.023438 -18.496094 -10.894531 -18.691406 C -10.855469 -18.832031 -10.546875 -19.128906 -10.421875 -19.324219 C -10.148438 -19.480469 -9.929688 -19.726562 -9.894531 -19.867188 C -9.804688 -19.917969 -9.546875 -20.308594 -9.058594 -20.710938 L -2.015625 -27.652344 C -1.707031 -27.949219 -1 -28.597656 -0.332031 -29.101562 C 0.648438 -29.90625 0.738281 -29.957031 0.710938 -29.582031 C 0.597656 -29.15625 0.792969 -29.03125 1.203125 -29.148438 C 1.527344 -29.210938 1.707031 -29.316406 2.089844 -29.898438 L 2.695312 -30.726562 C 2.785156 -30.777344 2.824219 -30.921875 2.898438 -31.203125 C 2.921875 -31.578125 2.535156 -31.835938 2.125 -31.71875 C 1.621094 -31.546875 0.375 -30.589844 -0.515625 -29.835938 L -2.238281 -28.242188 L -6.554688 -24.074219 C -8.097656 -22.582031 -9.371094 -21.25 -11.335938 -19.035156 L -12.992188 -17.121094 L -14.007812 -16.175781 L -14.789062 -15.242188 C -15.046875 -14.855469 -13.121094 -24.007812 -12.957031 -25.183594 L -12.671875 -27.390625 L -12.5625 -29.496094 C -12.5 -30.011719 -12.527344 -30.476562 -12.578125 -30.566406 C -12.632812 -30.65625 -12.824219 -30.785156 -12.980469 -31.054688 C -13.394531 -31.773438 -14.363281 -31.578125 -15.328125 -30.542969 C -15.855469 -29.996094 -16.789062 -28.496094 -17.121094 -27.824219 L -17.570312 -26.726562 C -17.609375 -26.585938 -17.789062 -26.480469 -17.917969 -26.289062 L -18.070312 -25.71875 C -18.273438 -25.242188 -17.910156 -24.609375 -17.484375 -24.496094 C -17.199219 -24.417969 -15.886719 -25.054688 -15.71875 -25.394531 L -14.078125 -27.539062 C -13.730469 -27.980469 -15.589844 -18.503906 -15.980469 -15.640625 C -16.253906 -13.199219 -16.765625 -12.421875 -17.292969 -11.878906 C -17.601562 -11.582031 -18.039062 -11.089844 -18.113281 -10.804688 C -18.332031 -10.558594 -18.5 -10.222656 -18.589844 -10.171875 C -18.820312 -10.15625 -22.375 -4.867188 -23.273438 -3.511719 C -23.605469 -2.839844 -23.953125 -2.398438 -24.042969 -2.347656 C -24.132812 -2.292969 -24.171875 -2.152344 -24.171875 -2.152344 C -24.117188 -2.0625 -24.285156 -1.726562 -24.503906 -1.480469 C -24.722656 -1.234375 -25.183594 -0.367188 -25.554688 0.445312 L -26.4375 2.035156 C -26.734375 2.566406 -27.769531 4.726562 -28.371094 6.390625 C -29.394531 8.78125 -30.800781 14.875 -30.578125 15.46875 C -30.527344 15.558594 -30.515625 15.792969 -30.550781 15.933594 L -30.640625 15.984375 C -30.667969 16.359375 -30.691406 16.734375 -30.765625 17.015625 C -30.597656 17.519531 -30.570312 17.984375 -30.632812 18.5 L -30.359375 19.183594 C -29.980469 20.046875 -29.644531 20.210938 -28.796875 19.601562 Z M -16.765625 -25.75 C -17.035156 -25.59375 -17.035156 -25.59375 -16.921875 -26.019531 C -16.769531 -26.589844 -16.105469 -27.933594 -15.410156 -28.8125 C -14.898438 -29.589844 -14.046875 -30.199219 -13.890625 -29.929688 C -13.632812 -29.476562 -15.863281 -26.269531 -16.765625 -25.75 Z M -29.390625 18.984375 C -29.625 19 -29.808594 18.265625 -29.914062 17.246094 C -29.9375 14.5 -29.710938 12.808594 -28.949219 9.96875 C -28.210938 7.5 -28.007812 7.023438 -26.90625 4.347656 C -26.332031 3.054688 -23.988281 -1.417969 -23.808594 -1.519531 L -23.257812 -2.441406 C -23.050781 -2.917969 -22.242188 -4.222656 -21.472656 -5.386719 C -20.742188 -6.410156 -20.101562 -7.378906 -20.152344 -7.46875 C -20.117188 -7.613281 -20.023438 -7.664062 -19.84375 -7.769531 L -19.535156 -8.066406 C -19.589844 -8.15625 -19.242188 -8.59375 -18.984375 -8.984375 L -18.074219 -10.109375 C -17.378906 -10.988281 -17.289062 -11.042969 -17.1875 -10.859375 C -17.132812 -10.769531 -17.171875 -10.628906 -17.171875 -10.628906 C -17.261719 -10.578125 -17.300781 -10.433594 -17.300781 -10.433594 C -17.042969 -9.984375 -18.46875 -4.960938 -20.355469 0.929688 L -21.617188 4.777344 C -21.769531 5.347656 -22.011719 5.96875 -22.179688 6.304688 L -22.585938 7.257812 C -22.90625 8.164062 -24.683594 11.949219 -24.863281 12.054688 C -24.953125 12.105469 -24.992188 12.246094 -24.941406 12.339844 C -24.980469 12.480469 -25.015625 12.621094 -25.109375 12.675781 C -25.199219 12.726562 -25.492188 13.257812 -25.824219 13.929688 C -26.695312 15.75 -27.425781 16.773438 -28.339844 17.898438 Z M -29.390625 18.984375 "/></g></g></g><g fill="#000000" fill-opacity="1"><g transform="translate(749.892821, 1029.336714)"><g><path d="M -14.085938 -33.179688 C -13.777344 -33.476562 -13.78125 -34.3125 -14.078125 -34.621094 C -14.183594 -34.804688 -14.464844 -34.878906 -14.609375 -34.917969 C -15.125 -34.980469 -15.382812 -34.59375 -15.160156 -34 C -15.003906 -33.730469 -14.988281 -33.496094 -15.027344 -33.355469 C -15.195312 -33.019531 -14.34375 -32.789062 -14.085938 -33.179688 Z M -15.480469 -23.730469 C -14.542969 -24.390625 -13.140625 -25.917969 -12.0625 -27.378906 L -9.136719 -31.46875 L -8.316406 -32.542969 C -8.148438 -32.878906 -8.304688 -33.148438 -8.539062 -33.132812 L -8.769531 -33.121094 L -8.949219 -33.015625 L -9.078125 -32.824219 C -12.054688 -28.824219 -14.136719 -26.1875 -15.242188 -25.1875 C -15.242188 -25.1875 -15.808594 -24.503906 -16.269531 -24.476562 C -16.480469 -24.835938 -16.597656 -25.246094 -16.535156 -25.765625 L -15.730469 -27.910156 C -15.167969 -29.433594 -15.15625 -30.039062 -15.710938 -29.960938 C -15.945312 -29.945312 -16.507812 -29.261719 -16.878906 -28.445312 C -17.722656 -26.160156 -17.921875 -24.84375 -17.402344 -23.941406 L -17.25 -23.671875 C -16.9375 -23.128906 -16.332031 -23.121094 -15.480469 -23.730469 Z M -15.480469 -23.730469 "/></g></g></g><g fill="#000000" fill-opacity="1"><g transform="translate(758.993252, 1024.090154)"><g><path d="M -13.429688 -23.710938 C -12.898438 -23.417969 -12.628906 -23.574219 -12.492188 -24.371094 C -12.3125 -25.316406 -12.574219 -25.765625 -13.074219 -25.597656 C -13.488281 -25.480469 -13.667969 -25.375 -13.796875 -25.179688 C -14.234375 -24.6875 -14.101562 -24.042969 -13.429688 -23.710938 Z M -13.429688 -23.710938 "/></g></g></g><g fill="#000000" fill-opacity="1"><g transform="translate(771.157144, 1017.077453)"><g><path d="M -14.085938 -33.179688 C -13.777344 -33.476562 -13.78125 -34.3125 -14.078125 -34.621094 C -14.183594 -34.804688 -14.464844 -34.878906 -14.609375 -34.917969 C -15.125 -34.980469 -15.382812 -34.59375 -15.160156 -34 C -15.003906 -33.730469 -14.988281 -33.496094 -15.027344 -33.355469 C -15.195312 -33.019531 -14.34375 -32.789062 -14.085938 -33.179688 Z M -15.480469 -23.730469 C -14.542969 -24.390625 -13.140625 -25.917969 -12.0625 -27.378906 L -9.136719 -31.46875 L -8.316406 -32.542969 C -8.148438 -32.878906 -8.304688 -33.148438 -8.539062 -33.132812 L -8.769531 -33.121094 L -8.949219 -33.015625 L -9.078125 -32.824219 C -12.054688 -28.824219 -14.136719 -26.1875 -15.242188 -25.1875 C -15.242188 -25.1875 -15.808594 -24.503906 -16.269531 -24.476562 C -16.480469 -24.835938 -16.597656 -25.246094 -16.535156 -25.765625 L -15.730469 -27.910156 C -15.167969 -29.433594 -15.15625 -30.039062 -15.710938 -29.960938 C -15.945312 -29.945312 -16.507812 -29.261719 -16.878906 -28.445312 C -17.722656 -26.160156 -17.921875 -24.84375 -17.402344 -23.941406 L -17.25 -23.671875 C -16.9375 -23.128906 -16.332031 -23.121094 -15.480469 -23.730469 Z M -15.480469 -23.730469 "/></g></g></g><g fill="#000000" fill-opacity="1"><g transform="translate(780.257575, 1011.830893)"><g><path d="M -15.210938 -23.886719 C -13.949219 -24.613281 -12.835938 -27.054688 -12.800781 -28.035156 L -12.582031 -28.28125 C -11.578125 -28.621094 -10.445312 -29.152344 -9.273438 -29.828125 C -8.011719 -30.554688 -5.335938 -32.578125 -3.910156 -34.480469 L -3.308594 -35.308594 C -3.179688 -35.503906 -3.195312 -35.734375 -3.386719 -35.863281 C -3.582031 -35.992188 -3.851562 -35.835938 -3.890625 -35.695312 C -5.1875 -33.984375 -6.753906 -32.121094 -9.816406 -30.355469 C -10.539062 -29.941406 -11.3125 -29.613281 -11.957031 -29.484375 C -12.1875 -29.46875 -12.421875 -29.457031 -12.832031 -29.339844 L -13.300781 -30.148438 C -13.351562 -30.238281 -13.457031 -30.417969 -13.597656 -30.457031 C -13.792969 -30.585938 -14.164062 -30.609375 -14.4375 -30.453125 L -15.660156 -29.871094 L -15.890625 -29.855469 L -16.457031 -29.167969 L -17.105469 -26.753906 C -17.21875 -26.328125 -17.222656 -24.046875 -16.359375 -23.585938 C -15.878906 -23.378906 -15.878906 -23.378906 -15.210938 -23.886719 Z M -14.351562 -29.0625 C -14.585938 -29.046875 -14.726562 -29.085938 -14.546875 -29.191406 C -14.457031 -29.242188 -14.316406 -29.203125 -14.226562 -29.253906 C -14.171875 -29.164062 -14.121094 -29.074219 -14.351562 -29.0625 Z M -15.40625 -24.851562 C -15.5 -24.800781 -16.117188 -25.042969 -15.929688 -26.589844 C -15.804688 -27.625 -15.585938 -27.871094 -15.316406 -28.027344 L -14.800781 -27.964844 L -14.105469 -28.003906 C -13.960938 -27.964844 -13.550781 -28.085938 -14.148438 -26.417969 C -14.546875 -25.230469 -15.316406 -24.902344 -15.40625 -24.851562 Z M -15.40625 -24.851562 "/></g></g></g></svg>