<svg xmlns="http://www.w3.org/2000/svg" xmlns:xlink="http://www.w3.org/1999/xlink" width="1200" zoomAndPan="magnify" viewBox="0 0 900 1199.999942" height="1600" preserveAspectRatio="xMidYMid meet" version="1.0"><defs><g/></defs><rect x="-90" width="1080" fill="#ffffff" y="-119.999994" height="1439.999931" fill-opacity="1"/><rect x="-90" width="1080" fill="#bc9c22" y="-119.999994" height="1439.999931" fill-opacity="1"/><path fill="#141414" d="M 274.882812 294.023438 L 625.058594 294.023438 C 625.84375 294.023438 626.625 294.0625 627.40625 294.140625 C 628.1875 294.214844 628.960938 294.332031 629.730469 294.484375 C 630.5 294.636719 631.261719 294.828125 632.011719 295.054688 C 632.761719 295.28125 633.5 295.546875 634.226562 295.847656 C 634.949219 296.148438 635.65625 296.480469 636.347656 296.851562 C 637.042969 297.222656 637.714844 297.625 638.367188 298.058594 C 639.019531 298.496094 639.648438 298.964844 640.253906 299.460938 C 640.859375 299.957031 641.441406 300.484375 641.996094 301.039062 C 642.550781 301.59375 643.074219 302.175781 643.574219 302.78125 C 644.070312 303.386719 644.539062 304.015625 644.972656 304.667969 C 645.410156 305.320312 645.8125 305.992188 646.183594 306.683594 C 646.550781 307.375 646.886719 308.085938 647.1875 308.808594 C 647.488281 309.535156 647.75 310.273438 647.980469 311.023438 C 648.207031 311.773438 648.398438 312.53125 648.550781 313.300781 C 648.703125 314.070312 648.816406 314.847656 648.894531 315.628906 C 648.972656 316.40625 649.011719 317.191406 649.011719 317.976562 L 649.011719 668.152344 C 649.011719 668.933594 648.972656 669.71875 648.894531 670.5 C 648.816406 671.277344 648.703125 672.054688 648.550781 672.824219 C 648.398438 673.59375 648.207031 674.351562 647.980469 675.101562 C 647.75 675.855469 647.488281 676.589844 647.1875 677.316406 C 646.886719 678.042969 646.550781 678.75 646.183594 679.441406 C 645.8125 680.132812 645.410156 680.804688 644.972656 681.457031 C 644.539062 682.109375 644.070312 682.738281 643.574219 683.34375 C 643.074219 683.953125 642.550781 684.53125 641.996094 685.085938 C 641.441406 685.640625 640.859375 686.167969 640.253906 686.664062 C 639.648438 687.164062 639.019531 687.628906 638.367188 688.066406 C 637.714844 688.5 637.042969 688.902344 636.347656 689.273438 C 635.65625 689.644531 634.949219 689.976562 634.226562 690.277344 C 633.5 690.578125 632.761719 690.84375 632.011719 691.070312 C 631.261719 691.296875 630.5 691.488281 629.730469 691.640625 C 628.960938 691.792969 628.1875 691.910156 627.40625 691.984375 C 626.625 692.0625 625.84375 692.101562 625.058594 692.101562 L 274.882812 692.101562 C 274.097656 692.101562 273.316406 692.0625 272.535156 691.988281 C 271.753906 691.910156 270.980469 691.792969 270.210938 691.640625 C 269.441406 691.488281 268.679688 691.296875 267.929688 691.070312 C 267.179688 690.84375 266.441406 690.578125 265.71875 690.277344 C 264.992188 689.976562 264.285156 689.644531 263.59375 689.273438 C 262.902344 688.902344 262.230469 688.5 261.578125 688.066406 C 260.925781 687.628906 260.296875 687.164062 259.6875 686.664062 C 259.082031 686.167969 258.503906 685.640625 257.949219 685.085938 C 257.394531 684.53125 256.867188 683.953125 256.367188 683.34375 C 255.871094 682.738281 255.40625 682.109375 254.96875 681.457031 C 254.53125 680.804688 254.128906 680.132812 253.761719 679.441406 C 253.390625 678.75 253.054688 678.042969 252.753906 677.316406 C 252.457031 676.589844 252.191406 675.855469 251.964844 675.101562 C 251.734375 674.351562 251.546875 673.59375 251.390625 672.824219 C 251.238281 672.054688 251.125 671.277344 251.046875 670.5 C 250.972656 669.71875 250.933594 668.933594 250.933594 668.152344 L 250.933594 317.976562 C 250.933594 317.191406 250.972656 316.40625 251.046875 315.628906 C 251.125 314.847656 251.238281 314.070312 251.390625 313.300781 C 251.546875 312.53125 251.734375 311.773438 251.964844 311.023438 C 252.191406 310.273438 252.457031 309.535156 252.753906 308.808594 C 253.054688 308.085938 253.390625 307.375 253.761719 306.683594 C 254.128906 305.992188 254.53125 305.320312 254.96875 304.667969 C 255.40625 304.015625 255.871094 303.386719 256.367188 302.78125 C 256.867188 302.175781 257.394531 301.59375 257.949219 301.039062 C 258.503906 300.484375 259.082031 299.957031 259.6875 299.460938 C 260.296875 298.964844 260.925781 298.496094 261.578125 298.058594 C 262.230469 297.625 262.902344 297.222656 263.59375 296.851562 C 264.285156 296.480469 264.992188 296.148438 265.71875 295.847656 C 266.441406 295.546875 267.179688 295.28125 267.929688 295.054688 C 268.679688 294.828125 269.441406 294.636719 270.210938 294.484375 C 270.980469 294.332031 271.753906 294.214844 272.535156 294.140625 C 273.316406 294.0625 274.097656 294.023438 274.882812 294.023438 Z M 274.882812 294.023438 " fill-opacity="1" fill-rule="nonzero"/><path fill="#d49b35" d="M 384.40625 692.328125 C 366.207031 692.195312 353.394531 692.042969 348.449219 691.910156 L 347.777344 635.039062 C 347.769531 634.066406 348.222656 633.136719 349 632.554688 L 384.40625 605.996094 Z M 426.308594 692.421875 L 396.871094 692.421875 C 394.390625 692.402344 391.976562 692.378906 389.644531 692.371094 L 389.644531 605.996094 L 425.097656 632.59375 C 425.855469 633.15625 426.308594 634.070312 426.308594 635.03125 Z M 489.164062 692.421875 L 431.546875 692.421875 L 431.546875 635.03125 C 431.546875 632.421875 430.304688 629.933594 428.226562 628.390625 L 389.644531 599.449219 L 389.644531 560.984375 C 389.644531 560.675781 389.824219 560.378906 390.101562 560.246094 L 489.164062 510.722656 Z M 488.105469 505.394531 L 442.023438 528.429688 L 442.023438 396.441406 L 519.199219 464.535156 C 520.085938 465.3125 520.589844 466.4375 520.589844 467.613281 L 520.589844 574.085938 L 494.402344 556.019531 L 494.402344 509.292969 C 494.402344 507.757812 493.625 506.375 492.324219 505.578125 C 491.035156 504.769531 489.464844 504.699219 488.105469 505.394531 Z M 494.402344 562.375 L 550.40625 601.023438 C 551.421875 601.71875 552.023438 602.867188 552.023438 604.09375 L 552.144531 692.402344 C 552.144531 692.40625 552.148438 692.414062 552.148438 692.421875 L 494.402344 692.421875 Z M 494.402344 562.375 " fill-opacity="1" fill-rule="nonzero"/><g fill="#000000" fill-opacity="1"><g transform="translate(88.94828, 847.185784)"><g><path d="M 27.21875 -65.21875 C 33.132812 -65.21875 38.015625 -64.503906 41.859375 -63.078125 C 45.710938 -61.648438 48.578125 -59.492188 50.453125 -56.609375 C 52.328125 -53.722656 53.265625 -50.082031 53.265625 -45.6875 C 53.265625 -42.707031 52.695312 -40.101562 51.5625 -37.875 C 50.4375 -35.644531 48.953125 -33.753906 47.109375 -32.203125 C 45.265625 -30.660156 43.269531 -29.398438 41.125 -28.421875 L 60.3125 0 L 44.96875 0 L 29.390625 -25.03125 L 22.03125 -25.03125 L 22.03125 0 L 8.203125 0 L 8.203125 -65.21875 Z M 26.234375 -53.890625 L 22.03125 -53.890625 L 22.03125 -36.265625 L 26.5 -36.265625 C 31.082031 -36.265625 34.359375 -37.03125 36.328125 -38.5625 C 38.304688 -40.09375 39.296875 -42.347656 39.296875 -45.328125 C 39.296875 -48.421875 38.234375 -50.617188 36.109375 -51.921875 C 33.984375 -53.234375 30.691406 -53.890625 26.234375 -53.890625 Z M 26.234375 -53.890625 "/></g></g></g><g fill="#000000" fill-opacity="1"><g transform="translate(149.622588, 847.185784)"><g><path d="M 48.140625 0 L 43.40625 -15.53125 L 19.625 -15.53125 L 14.90625 0 L 0 0 L 23.015625 -65.484375 L 39.921875 -65.484375 L 63.03125 0 Z M 40.109375 -27.125 L 35.375 -42.296875 C 35.070312 -43.304688 34.675781 -44.601562 34.1875 -46.1875 C 33.695312 -47.78125 33.207031 -49.398438 32.71875 -51.046875 C 32.226562 -52.703125 31.832031 -54.140625 31.53125 -55.359375 C 31.238281 -54.140625 30.832031 -52.628906 30.3125 -50.828125 C 29.789062 -49.035156 29.289062 -47.332031 28.8125 -45.71875 C 28.34375 -44.113281 28.003906 -42.972656 27.796875 -42.296875 L 23.109375 -27.125 Z M 40.109375 -27.125 "/></g></g></g><g fill="#000000" fill-opacity="1"><g transform="translate(213.017931, 847.185784)"><g><path d="M 62.3125 -33.234375 C 62.3125 -25.890625 60.90625 -19.753906 58.09375 -14.828125 C 55.289062 -9.910156 51.226562 -6.207031 45.90625 -3.71875 C 40.582031 -1.238281 34.171875 0 26.671875 0 L 8.203125 0 L 8.203125 -65.21875 L 28.6875 -65.21875 C 35.519531 -65.21875 41.445312 -64.003906 46.46875 -61.578125 C 51.5 -59.160156 55.394531 -55.578125 58.15625 -50.828125 C 60.925781 -46.085938 62.3125 -40.222656 62.3125 -33.234375 Z M 47.953125 -32.875 C 47.953125 -37.695312 47.242188 -41.660156 45.828125 -44.765625 C 44.421875 -47.867188 42.34375 -50.164062 39.59375 -51.65625 C 36.84375 -53.144531 33.441406 -53.890625 29.390625 -53.890625 L 22.03125 -53.890625 L 22.03125 -11.421875 L 27.96875 -11.421875 C 34.71875 -11.421875 39.734375 -13.21875 43.015625 -16.8125 C 46.304688 -20.414062 47.953125 -25.769531 47.953125 -32.875 Z M 47.953125 -32.875 "/></g></g></g><g fill="#000000" fill-opacity="1"><g transform="translate(281.007805, 847.185784)"><g><path d="M 8.203125 0 L 8.203125 -65.21875 L 22.03125 -65.21875 L 22.03125 0 Z M 8.203125 0 "/></g></g></g><g fill="#000000" fill-opacity="1"><g transform="translate(311.616927, 847.185784)"><g><path d="M 48.140625 0 L 43.40625 -15.53125 L 19.625 -15.53125 L 14.90625 0 L 0 0 L 23.015625 -65.484375 L 39.921875 -65.484375 L 63.03125 0 Z M 40.109375 -27.125 L 35.375 -42.296875 C 35.070312 -43.304688 34.675781 -44.601562 34.1875 -46.1875 C 33.695312 -47.78125 33.207031 -49.398438 32.71875 -51.046875 C 32.226562 -52.703125 31.832031 -54.140625 31.53125 -55.359375 C 31.238281 -54.140625 30.832031 -52.628906 30.3125 -50.828125 C 29.789062 -49.035156 29.289062 -47.332031 28.8125 -45.71875 C 28.34375 -44.113281 28.003906 -42.972656 27.796875 -42.296875 L 23.109375 -27.125 Z M 40.109375 -27.125 "/></g></g></g><g fill="#000000" fill-opacity="1"><g transform="translate(375.012286, 847.185784)"><g><path d="M 66.0625 0 L 48.484375 0 L 20.125 -49.34375 L 19.71875 -49.34375 C 19.832031 -47.289062 19.929688 -45.222656 20.015625 -43.140625 C 20.109375 -41.054688 20.203125 -38.976562 20.296875 -36.90625 C 20.390625 -34.84375 20.476562 -32.769531 20.5625 -30.6875 L 20.5625 0 L 8.203125 0 L 8.203125 -65.21875 L 25.65625 -65.21875 L 53.984375 -16.375 L 54.296875 -16.375 C 54.234375 -18.394531 54.15625 -20.398438 54.0625 -22.390625 C 53.976562 -24.378906 53.894531 -26.367188 53.8125 -28.359375 C 53.738281 -30.359375 53.675781 -32.351562 53.625 -34.34375 L 53.625 -65.21875 L 66.0625 -65.21875 Z M 66.0625 0 "/></g></g></g><g fill="#000000" fill-opacity="1"><g transform="translate(449.648604, 847.185784)"><g><path d="M 33.375 0 L 19.53125 0 L 19.53125 -53.703125 L 1.828125 -53.703125 L 1.828125 -65.21875 L 51.078125 -65.21875 L 51.078125 -53.703125 L 33.375 -53.703125 Z M 33.375 0 "/></g></g></g><g fill="#000000" fill-opacity="1"><g transform="translate(502.91812, 847.185784)"><g/></g></g><g fill="#000000" fill-opacity="1"><g transform="translate(527.01459, 847.185784)"><g><path d="M 29.046875 -65.21875 C 37.460938 -65.21875 43.601562 -63.410156 47.46875 -59.796875 C 51.332031 -56.179688 53.265625 -51.207031 53.265625 -44.875 C 53.265625 -42.019531 52.832031 -39.289062 51.96875 -36.6875 C 51.101562 -34.082031 49.695312 -31.769531 47.75 -29.75 C 45.800781 -27.726562 43.207031 -26.128906 39.96875 -24.953125 C 36.726562 -23.785156 32.726562 -23.203125 27.96875 -23.203125 L 22.03125 -23.203125 L 22.03125 0 L 8.203125 0 L 8.203125 -65.21875 Z M 28.328125 -53.890625 L 22.03125 -53.890625 L 22.03125 -34.53125 L 26.59375 -34.53125 C 29.175781 -34.53125 31.414062 -34.867188 33.3125 -35.546875 C 35.21875 -36.234375 36.691406 -37.304688 37.734375 -38.765625 C 38.773438 -40.222656 39.296875 -42.097656 39.296875 -44.390625 C 39.296875 -47.597656 38.40625 -49.984375 36.625 -51.546875 C 34.84375 -53.109375 32.078125 -53.890625 28.328125 -53.890625 Z M 28.328125 -53.890625 "/></g></g></g><g fill="#000000" fill-opacity="1"><g transform="translate(584.744816, 847.185784)"><g><path d="M 45.765625 0 L 8.203125 0 L 8.203125 -65.21875 L 45.765625 -65.21875 L 45.765625 -53.890625 L 22.03125 -53.890625 L 22.03125 -39.5625 L 44.125 -39.5625 L 44.125 -28.234375 L 22.03125 -28.234375 L 22.03125 -11.421875 L 45.765625 -11.421875 Z M 45.765625 0 "/></g></g></g><g fill="#000000" fill-opacity="1"><g transform="translate(636.274685, 847.185784)"><g><path d="M 48.140625 0 L 43.40625 -15.53125 L 19.625 -15.53125 L 14.90625 0 L 0 0 L 23.015625 -65.484375 L 39.921875 -65.484375 L 63.03125 0 Z M 40.109375 -27.125 L 35.375 -42.296875 C 35.070312 -43.304688 34.675781 -44.601562 34.1875 -46.1875 C 33.695312 -47.78125 33.207031 -49.398438 32.71875 -51.046875 C 32.226562 -52.703125 31.832031 -54.140625 31.53125 -55.359375 C 31.238281 -54.140625 30.832031 -52.628906 30.3125 -50.828125 C 29.789062 -49.035156 29.289062 -47.332031 28.8125 -45.71875 C 28.34375 -44.113281 28.003906 -42.972656 27.796875 -42.296875 L 23.109375 -27.125 Z M 40.109375 -27.125 "/></g></g></g><g fill="#000000" fill-opacity="1"><g transform="translate(699.670015, 847.185784)"><g><path d="M 60.671875 0 L 44.96875 0 L 27.875 -27.484375 L 22.03125 -23.28125 L 22.03125 0 L 8.203125 0 L 8.203125 -65.21875 L 22.03125 -65.21875 L 22.03125 -35.375 C 22.957031 -36.65625 23.863281 -37.929688 24.75 -39.203125 C 25.644531 -40.484375 26.554688 -41.765625 27.484375 -43.046875 L 45.140625 -65.21875 L 60.484375 -65.21875 L 37.734375 -36.359375 Z M 60.671875 0 "/></g></g></g><g fill="#000000" fill-opacity="1"><g transform="translate(760.701196, 847.185784)"><g><path d="M 46.703125 -18.109375 C 46.703125 -14.242188 45.765625 -10.882812 43.890625 -8.03125 C 42.015625 -5.175781 39.285156 -2.972656 35.703125 -1.421875 C 32.117188 0.117188 27.769531 0.890625 22.65625 0.890625 C 20.394531 0.890625 18.1875 0.738281 16.03125 0.4375 C 13.875 0.144531 11.804688 -0.285156 9.828125 -0.859375 C 7.859375 -1.441406 5.976562 -2.164062 4.1875 -3.03125 L 4.1875 -15.875 C 7.28125 -14.507812 10.492188 -13.273438 13.828125 -12.171875 C 17.160156 -11.078125 20.460938 -10.53125 23.734375 -10.53125 C 25.992188 -10.53125 27.8125 -10.828125 29.1875 -11.421875 C 30.570312 -12.015625 31.578125 -12.832031 32.203125 -13.875 C 32.828125 -14.914062 33.140625 -16.101562 33.140625 -17.4375 C 33.140625 -19.070312 32.585938 -20.46875 31.484375 -21.625 C 30.390625 -22.789062 28.882812 -23.878906 26.96875 -24.890625 C 25.050781 -25.898438 22.882812 -26.984375 20.46875 -28.140625 C 18.957031 -28.859375 17.304688 -29.726562 15.515625 -30.75 C 13.734375 -31.78125 12.039062 -33.039062 10.4375 -34.53125 C 8.832031 -36.019531 7.515625 -37.828125 6.484375 -39.953125 C 5.460938 -42.078125 4.953125 -44.625 4.953125 -47.59375 C 4.953125 -51.488281 5.84375 -54.816406 7.625 -57.578125 C 9.414062 -60.347656 11.96875 -62.46875 15.28125 -63.9375 C 18.59375 -65.414062 22.507812 -66.15625 27.03125 -66.15625 C 30.425781 -66.15625 33.660156 -65.757812 36.734375 -64.96875 C 39.816406 -64.1875 43.035156 -63.050781 46.390625 -61.5625 L 41.9375 -50.8125 C 38.925781 -52.03125 36.234375 -52.972656 33.859375 -53.640625 C 31.484375 -54.304688 29.0625 -54.640625 26.59375 -54.640625 C 24.863281 -54.640625 23.390625 -54.363281 22.171875 -53.8125 C 20.953125 -53.269531 20.03125 -52.5 19.40625 -51.5 C 18.78125 -50.5 18.46875 -49.347656 18.46875 -48.046875 C 18.46875 -46.492188 18.921875 -45.191406 19.828125 -44.140625 C 20.734375 -43.085938 22.097656 -42.066406 23.921875 -41.078125 C 25.753906 -40.097656 28.039062 -38.957031 30.78125 -37.65625 C 34.113281 -36.070312 36.960938 -34.425781 39.328125 -32.71875 C 41.691406 -31.007812 43.507812 -29 44.78125 -26.6875 C 46.0625 -24.382812 46.703125 -21.523438 46.703125 -18.109375 Z M 46.703125 -18.109375 "/></g></g></g><g fill="#000000" fill-opacity="1"><g transform="translate(290.147364, 916.099299)"><g><path d="M 18.125 0 L 3.578125 0 L 3.578125 -26.078125 L 18.125 -26.078125 L 18.125 -23.390625 L 6.625 -23.390625 L 6.625 -14.984375 L 17.421875 -14.984375 L 17.421875 -12.3125 L 6.625 -12.3125 L 6.625 -2.71875 L 18.125 -2.71875 Z M 18.125 0 "/></g></g></g><g fill="#000000" fill-opacity="1"><g transform="translate(339.704159, 916.099299)"><g><path d="M 18.296875 -6.9375 C 18.296875 -4.644531 17.460938 -2.851562 15.796875 -1.5625 C 14.140625 -0.28125 11.882812 0.359375 9.03125 0.359375 C 5.9375 0.359375 3.554688 -0.0390625 1.890625 -0.84375 L 1.890625 -3.765625 C 2.960938 -3.304688 4.128906 -2.945312 5.390625 -2.6875 C 6.648438 -2.425781 7.898438 -2.296875 9.140625 -2.296875 C 11.160156 -2.296875 12.679688 -2.679688 13.703125 -3.453125 C 14.722656 -4.222656 15.234375 -5.289062 15.234375 -6.65625 C 15.234375 -7.5625 15.050781 -8.300781 14.6875 -8.875 C 14.320312 -9.445312 13.710938 -9.976562 12.859375 -10.46875 C 12.015625 -10.957031 10.722656 -11.507812 8.984375 -12.125 C 6.554688 -13 4.820312 -14.03125 3.78125 -15.21875 C 2.75 -16.40625 2.234375 -17.957031 2.234375 -19.875 C 2.234375 -21.882812 2.988281 -23.484375 4.5 -24.671875 C 6.007812 -25.859375 8.003906 -26.453125 10.484375 -26.453125 C 13.078125 -26.453125 15.460938 -25.976562 17.640625 -25.03125 L 16.703125 -22.390625 C 14.546875 -23.285156 12.453125 -23.734375 10.421875 -23.734375 C 8.816406 -23.734375 7.5625 -23.390625 6.65625 -22.703125 C 5.75 -22.015625 5.296875 -21.054688 5.296875 -19.828125 C 5.296875 -18.929688 5.460938 -18.191406 5.796875 -17.609375 C 6.128906 -17.035156 6.691406 -16.503906 7.484375 -16.015625 C 8.273438 -15.535156 9.484375 -15.007812 11.109375 -14.4375 C 13.847656 -13.457031 15.726562 -12.40625 16.75 -11.28125 C 17.78125 -10.164062 18.296875 -8.71875 18.296875 -6.9375 Z M 18.296875 -6.9375 "/></g></g></g><g fill="#000000" fill-opacity="1"><g transform="translate(388.993402, 916.099299)"><g><path d="M 11.609375 0 L 8.578125 0 L 8.578125 -23.390625 L 0.328125 -23.390625 L 0.328125 -26.078125 L 19.875 -26.078125 L 19.875 -23.390625 L 11.609375 -23.390625 Z M 11.609375 0 "/></g></g></g><g fill="#000000" fill-opacity="1"><g transform="translate(438.443184, 916.099299)"><g><path d="M 19.984375 0 L 16.734375 -8.296875 L 6.28125 -8.296875 L 3.0625 0 L 0 0 L 10.3125 -26.1875 L 12.859375 -26.1875 L 23.125 0 Z M 15.78125 -11.03125 L 12.75 -19.109375 C 12.363281 -20.128906 11.960938 -21.382812 11.546875 -22.875 C 11.285156 -21.726562 10.910156 -20.472656 10.421875 -19.109375 L 7.34375 -11.03125 Z M 15.78125 -11.03125 "/></g></g></g><g fill="#000000" fill-opacity="1"><g transform="translate(490.800362, 916.099299)"><g><path d="M 11.609375 0 L 8.578125 0 L 8.578125 -23.390625 L 0.328125 -23.390625 L 0.328125 -26.078125 L 19.875 -26.078125 L 19.875 -23.390625 L 11.609375 -23.390625 Z M 11.609375 0 "/></g></g></g><g fill="#000000" fill-opacity="1"><g transform="translate(540.25013, 916.099299)"><g><path d="M 18.125 0 L 3.578125 0 L 3.578125 -26.078125 L 18.125 -26.078125 L 18.125 -23.390625 L 6.625 -23.390625 L 6.625 -14.984375 L 17.421875 -14.984375 L 17.421875 -12.3125 L 6.625 -12.3125 L 6.625 -2.71875 L 18.125 -2.71875 Z M 18.125 0 "/></g></g></g><g fill="#000000" fill-opacity="1"><g transform="translate(589.806919, 916.099299)"><g><path d="M 18.296875 -6.9375 C 18.296875 -4.644531 17.460938 -2.851562 15.796875 -1.5625 C 14.140625 -0.28125 11.882812 0.359375 9.03125 0.359375 C 5.9375 0.359375 3.554688 -0.0390625 1.890625 -0.84375 L 1.890625 -3.765625 C 2.960938 -3.304688 4.128906 -2.945312 5.390625 -2.6875 C 6.648438 -2.425781 7.898438 -2.296875 9.140625 -2.296875 C 11.160156 -2.296875 12.679688 -2.679688 13.703125 -3.453125 C 14.722656 -4.222656 15.234375 -5.289062 15.234375 -6.65625 C 15.234375 -7.5625 15.050781 -8.300781 14.6875 -8.875 C 14.320312 -9.445312 13.710938 -9.976562 12.859375 -10.46875 C 12.015625 -10.957031 10.722656 -11.507812 8.984375 -12.125 C 6.554688 -13 4.820312 -14.03125 3.78125 -15.21875 C 2.75 -16.40625 2.234375 -17.957031 2.234375 -19.875 C 2.234375 -21.882812 2.988281 -23.484375 4.5 -24.671875 C 6.007812 -25.859375 8.003906 -26.453125 10.484375 -26.453125 C 13.078125 -26.453125 15.460938 -25.976562 17.640625 -25.03125 L 16.703125 -22.390625 C 14.546875 -23.285156 12.453125 -23.734375 10.421875 -23.734375 C 8.816406 -23.734375 7.5625 -23.390625 6.65625 -22.703125 C 5.75 -22.015625 5.296875 -21.054688 5.296875 -19.828125 C 5.296875 -18.929688 5.460938 -18.191406 5.796875 -17.609375 C 6.128906 -17.035156 6.691406 -16.503906 7.484375 -16.015625 C 8.273438 -15.535156 9.484375 -15.007812 11.109375 -14.4375 C 13.847656 -13.457031 15.726562 -12.40625 16.75 -11.28125 C 17.78125 -10.164062 18.296875 -8.71875 18.296875 -6.9375 Z M 18.296875 -6.9375 "/></g></g></g><path stroke-linecap="butt" transform="matrix(0.749524, 0, 0, 0.75, 219.223713, 844.911)" fill="none" stroke-linejoin="miter" d="M -0.00141009 1.498875 L 615.4049 1.498875 " stroke="#d49b35" stroke-width="3" stroke-opacity="1" stroke-miterlimit="4"/><g fill="#fffbfa" fill-opacity="1"><g transform="translate(591.402793, 1120.709274)"><g><path d="M 60.695312 -34.03125 C 60.734375 -34.175781 60.769531 -35.15625 60.738281 -36.457031 L 60.691406 -38.832031 L 60.871094 -42.058594 L 61.054688 -44.445312 C 61.179688 -46.316406 61.703125 -50.820312 61.742188 -50.960938 C 61.867188 -51.15625 62.042969 -52.9375 61.992188 -53.027344 L 62.015625 -53.402344 L 62.277344 -55.234375 L 62.679688 -58.707031 L 62.96875 -60.074219 L 65.660156 -75.191406 L 65.761719 -75.847656 L 67.257812 -81.996094 C 68.339844 -85.742188 68.632812 -87.109375 68.773438 -87.910156 L 69.472656 -90.234375 C 69.703125 -91.085938 69.929688 -91.9375 69.863281 -92.261719 L 70.015625 -92.828125 C 70.109375 -92.882812 70.351562 -93.5 70.488281 -94.300781 C 70.855469 -95.953125 71.519531 -98.136719 71.929688 -99.09375 C 72.390625 -99.960938 73.550781 -103.152344 74.0625 -104.765625 L 75.082031 -107.996094 C 75.757812 -109.945312 75.730469 -110.410156 75.125 -110.417969 C 74.605469 -110.484375 74.171875 -109.992188 73.789062 -108.570312 C 73.507812 -107.808594 73.226562 -107.046875 73.136719 -106.992188 C 73.007812 -106.800781 72.96875 -106.65625 73.023438 -106.566406 C 73.179688 -106.296875 69.960938 -97.71875 69.394531 -97.03125 L 68.457031 -95.53125 L 65.203125 -89.933594 C 64.78125 -89.210938 64.28125 -88.203125 64.078125 -87.722656 C 63.925781 -87.15625 63.667969 -86.769531 63.578125 -86.714844 L 62.949219 -85.515625 C 62.707031 -84.894531 62.296875 -83.9375 61.953125 -83.496094 L 61.246094 -82.011719 C 61.003906 -81.390625 59.289062 -78.121094 59.109375 -78.015625 L 58.777344 -77.34375 L 58.390625 -76.761719 C 58.339844 -76.851562 58.042969 -76.324219 57.800781 -75.703125 L 57.636719 -75.367188 L 56.496094 -73.386719 C 55.941406 -72.46875 55.390625 -71.550781 55.300781 -71.5 C 55.210938 -71.449219 55.082031 -71.253906 55.046875 -71.113281 C 54.957031 -70.222656 52.492188 -67 51.464844 -66.285156 C 50.796875 -65.78125 50.707031 -65.730469 50.730469 -66.101562 C 50.625 -66.285156 50.6875 -66.800781 50.660156 -67.265625 L 50.734375 -68.386719 L 50.882812 -69.792969 C 50.894531 -70.398438 51.058594 -71.574219 51.054688 -72.414062 L 51.085938 -74.230469 L 51.351562 -76.066406 C 51.5 -77.472656 52.042969 -80.066406 52.296875 -81.292969 L 53.214844 -84.703125 L 53.527344 -86.445312 C 53.78125 -87.671875 53.996094 -88.757812 54.339844 -90.035156 C 54.417969 -90.320312 54.441406 -90.691406 54.441406 -90.691406 C 54.390625 -90.785156 54.824219 -92.113281 55.332031 -93.726562 L 56.632812 -97.71875 L 57.054688 -99.28125 C 58.355469 -102.433594 58.828125 -103.90625 58.953125 -104.941406 L 59.335938 -106.359375 L 59.550781 -107.445312 L 60.25 -110.609375 L 61.328125 -115.191406 C 61.59375 -116.1875 61.785156 -116.898438 62 -117.980469 L 62.253906 -119.207031 L 62.597656 -120.484375 C 62.914062 -122.230469 62.496094 -122.949219 61.414062 -122.328125 C 61.144531 -122.171875 60.890625 -121.78125 60.710938 -120.839844 L 59.441406 -115.546875 C 59.160156 -114.785156 58.894531 -113.789062 58.832031 -113.273438 C 58.820312 -112.667969 58.59375 -111.8125 58.441406 -111.246094 C 57.882812 -108.882812 57.539062 -107.605469 57.144531 -105.578125 C 56.703125 -103.640625 55.695312 -100.179688 55.425781 -100.023438 C 55.246094 -99.921875 54.300781 -96.976562 54.445312 -96.9375 C 54.535156 -96.988281 54.152344 -95.570312 53.640625 -93.953125 C 52.660156 -90.867188 52.46875 -90.15625 51.886719 -87.417969 C 51.75 -86.621094 51.558594 -85.910156 51.46875 -85.855469 C 51.324219 -85.894531 51.234375 -85.84375 51.378906 -85.804688 C 51.519531 -85.765625 51.433594 -84.875 51.164062 -83.882812 L 50.199219 -79.722656 C 50 -78.40625 49.683594 -76.664062 49.632812 -75.917969 L 49.523438 -74.652344 C 49.410156 -74.226562 49.203125 -70.625 49.253906 -70.535156 L 49.144531 -69.269531 C 48.957031 -67.722656 49.03125 -64.882812 49.238281 -64.523438 C 49.863281 -63.441406 52.191406 -65.023438 54.128906 -67.703125 C 55.167969 -69.023438 56.476562 -71.335938 56.628906 -71.90625 C 56.617188 -72.136719 56.742188 -72.332031 56.832031 -72.382812 C 56.925781 -72.433594 57.269531 -72.875 57.566406 -73.40625 L 59.871094 -77.734375 L 61.394531 -80.296875 C 61.484375 -80.347656 61.5625 -80.632812 61.546875 -80.863281 C 61.625 -81.148438 61.703125 -81.433594 61.792969 -81.484375 C 61.882812 -81.535156 62.046875 -81.871094 62.253906 -82.351562 C 62.457031 -82.828125 62.699219 -83.449219 62.828125 -83.644531 L 63.339844 -84.417969 C 63.585938 -85.039062 64.339844 -86.433594 64.507812 -86.769531 L 64.839844 -87.441406 C 65.121094 -88.207031 66.390625 -90.378906 66.570312 -90.480469 C 66.660156 -90.535156 66.789062 -90.726562 66.773438 -90.960938 C 66.851562 -91.242188 67.054688 -91.722656 67.3125 -92.109375 L 68.59375 -94.050781 L 68.378906 -92.964844 L 67.234375 -88.703125 C 67.246094 -88.472656 66.613281 -85.824219 66.292969 -84.921875 C 66.011719 -84.15625 65.570312 -82.222656 65.367188 -80.90625 L 65.050781 -79.160156 L 64.503906 -77.40625 L 64.238281 -75.574219 L 63.265625 -70.808594 L 62.976562 -68.601562 L 62.722656 -67.375 C 62.660156 -66.859375 62.597656 -66.34375 62.507812 -66.289062 C 62.417969 -66.238281 62.46875 -66.148438 62.519531 -66.058594 C 62.625 -65.878906 62.144531 -62.960938 61.980469 -62.625 L 61.753906 -60.933594 L 61.414062 -58.816406 L 61.085938 -56.46875 L 60.738281 -52.90625 L 60.492188 -50.003906 C 60.273438 -46.632812 60.074219 -44.480469 59.960938 -44.054688 C 59.882812 -43.769531 59.847656 -43.625 59.9375 -43.679688 C 59.9375 -43.679688 60.003906 -43.355469 59.976562 -42.980469 L 59.875 -39.203125 L 60.070312 -35.953125 C 60.136719 -34.789062 60.476562 -33.785156 60.695312 -34.03125 Z M 10.925781 -3.539062 C 12.320312 -3.621094 14.671875 -5.578125 16.570312 -8.113281 C 16.828125 -8.5 17.304688 -9.136719 17.664062 -9.34375 C 18.679688 -10.289062 25.054688 -19.847656 25.488281 -21.175781 L 26.652344 -23.53125 C 27.742188 -25.597656 27.703125 -25.457031 28.175781 -26.929688 L 29.3125 -29.746094 L 30.679688 -33.414062 L 31.46875 -35.789062 L 32.082031 -37.226562 C 32.324219 -37.84375 32.773438 -38.941406 33.003906 -39.796875 L 37.445312 -52.082031 C 38.160156 -54.171875 39.320312 -57.363281 40.023438 -58.851562 C 40.472656 -59.949219 40.867188 -61.136719 40.710938 -61.40625 C 40.609375 -61.589844 40.964844 -62.632812 41.195312 -62.648438 C 41.285156 -62.699219 41.46875 -62.804688 41.542969 -63.089844 L 44.148438 -70.230469 C 44.222656 -70.515625 44.25 -70.890625 44.183594 -71.210938 C 44.167969 -71.445312 44.195312 -71.820312 44.410156 -72.066406 C 44.71875 -72.363281 45.640625 -74.933594 45.929688 -76.300781 L 46.3125 -77.722656 L 48.734375 -85.601562 C 49.089844 -86.648438 49.421875 -88.160156 49.46875 -88.90625 C 49.515625 -89.65625 49.671875 -90.222656 49.902344 -90.238281 C 49.992188 -90.289062 50.082031 -90.339844 50.03125 -90.429688 C 49.925781 -90.613281 50.359375 -91.941406 50.65625 -92.472656 C 50.785156 -92.664062 50.769531 -92.898438 50.664062 -93.078125 C 50.472656 -93.207031 50.507812 -93.347656 50.78125 -93.503906 C 51.050781 -93.660156 51.125 -93.945312 51.0625 -94.265625 C 50.996094 -94.589844 51.070312 -94.871094 51.160156 -94.925781 C 51.339844 -95.027344 51.699219 -96.074219 52.527344 -98.59375 L 53.445312 -101.164062 C 54.417969 -103.644531 54.914062 -105.492188 54.667969 -105.710938 C 54.332031 -105.875 53.882812 -105.617188 53.910156 -105.152344 C 53.871094 -105.011719 53.679688 -104.300781 53.398438 -103.539062 C 52.554688 -101.25 51.078125 -96.316406 51.105469 -95.851562 C 51.121094 -95.621094 51.082031 -95.480469 50.992188 -95.425781 C 50.851562 -95.464844 50.605469 -94.84375 50.453125 -94.277344 L 49.832031 -92.238281 C 49.714844 -91.808594 49.523438 -91.101562 49.5 -90.726562 C 49.476562 -90.351562 49.308594 -90.015625 49.21875 -89.964844 C 49.21875 -89.964844 48.503906 -87.871094 47.855469 -85.457031 C 45.792969 -78.625 44.507812 -74.398438 44.414062 -74.347656 C 44.324219 -74.296875 43.359375 -70.976562 42.527344 -68.457031 L 41.570312 -65.746094 C 41.238281 -65.074219 40.972656 -64.078125 40.765625 -63.601562 C 40.703125 -63.085938 40.5 -62.605469 40.410156 -62.554688 C 40.320312 -62.503906 40.152344 -62.167969 40.039062 -61.742188 L 37.496094 -55.113281 L 36.527344 -52.632812 C 36.410156 -52.207031 36.195312 -51.960938 36.195312 -51.960938 C 36.105469 -51.910156 36.027344 -51.625 35.949219 -51.339844 L 34.804688 -47.917969 C 33.382812 -44.339844 33.027344 -43.292969 32.199219 -40.773438 C 31.804688 -39.585938 31.316406 -38.34375 31.097656 -38.097656 C 30.84375 -37.710938 30.625 -37.464844 30.675781 -37.375 C 30.726562 -37.285156 30.589844 -36.484375 30.269531 -35.578125 L 29.609375 -33.398438 C 29.582031 -33.023438 29.417969 -32.6875 29.238281 -32.582031 C 29.148438 -32.53125 28.980469 -32.195312 28.867188 -31.769531 C 28.804688 -31.253906 28.597656 -30.773438 28.378906 -30.527344 C 28.199219 -30.425781 27.90625 -29.894531 27.828125 -29.609375 L 27.433594 -28.421875 C 27.304688 -28.226562 27.203125 -27.570312 27.089844 -27.144531 C 27.027344 -26.628906 27.003906 -26.253906 26.863281 -26.292969 C 26.769531 -26.238281 26.386719 -25.65625 26.015625 -24.84375 C 25.644531 -24.027344 25.222656 -23.304688 25.132812 -23.253906 L 23.914062 -20.992188 C 23.289062 -19.789062 22.570312 -18.535156 22.261719 -18.238281 L 21.285156 -16.59375 L 19.824219 -14.550781 C 17.960938 -12.15625 17.617188 -11.714844 16.832031 -10.785156 L 15.046875 -8.675781 C 14.574219 -8.042969 13.777344 -7.339844 12.875 -6.820312 C 11.394531 -5.847656 11.394531 -5.847656 11.316406 -6.402344 C 11.015625 -7.550781 10.859375 -7.820312 10.394531 -7.792969 C 10.109375 -7.871094 9.839844 -7.714844 9.53125 -7.414062 C 8.964844 -6.730469 8.929688 -5.75 9.515625 -4.527344 L 10.050781 -3.394531 Z M 10.925781 -3.539062 "/></g></g></g><g fill="#fffbfa" fill-opacity="1"><g transform="translate(684.658497, 1066.945702)"><g><path d="M -9.195312 -23.03125 C -9.054688 -22.992188 -8.875 -23.097656 -8.835938 -23.238281 L -8.617188 -23.484375 L -8.488281 -23.679688 L -8.476562 -24.285156 C -8.546875 -25.445312 -8.574219 -25.910156 -8.894531 -28.964844 C -8.9375 -29.664062 -8.953125 -30.734375 -9.164062 -31.09375 C -9.226562 -31.417969 -9.421875 -31.542969 -9.472656 -31.632812 L -9.113281 -31.84375 C -8.894531 -32.089844 -8.558594 -31.921875 -8.289062 -32.078125 L -6.550781 -32.601562 L -5.183594 -33.148438 C -4.179688 -33.488281 -3.226562 -33.917969 -2.054688 -34.589844 L -0.34375 -35.578125 C 0.199219 -35.890625 1.226562 -36.605469 2.203125 -37.40625 L 3.527344 -38.652344 L 4.222656 -39.53125 C 4.351562 -39.726562 4.425781 -40.007812 3.949219 -40.214844 C 3.804688 -40.25 3.949219 -40.214844 3.203125 -39.421875 C 2.675781 -38.878906 2.546875 -38.6875 1.660156 -37.933594 C 0.773438 -37.183594 -0.707031 -36.210938 -2.6875 -35.066406 C -5.355469 -33.648438 -7.144531 -33.21875 -9.273438 -32.953125 C -9.917969 -32.820312 -10.417969 -32.648438 -10.691406 -32.496094 C -10.871094 -32.390625 -10.960938 -32.339844 -10.945312 -32.105469 C -11.035156 -32.054688 -10.984375 -31.964844 -10.984375 -31.964844 L -10.570312 -31.242188 C -10.414062 -30.972656 -10.140625 -30.289062 -10.058594 -29.734375 C -9.8125 -28.679688 -9.523438 -24.640625 -9.703125 -24.539062 C -9.976562 -24.382812 -11.324219 -25.886719 -11.996094 -27.058594 C -12.324219 -27.832031 -12.660156 -27.996094 -13.070312 -27.878906 C -13.664062 -27.65625 -13.960938 -27.128906 -14.175781 -26.042969 C -14.273438 -24.546875 -14.5 -23.695312 -14.589844 -23.640625 C -14.859375 -23.488281 -15.648438 -26.515625 -15.574219 -27.636719 C -15.617188 -29.171875 -15.929688 -29.714844 -16.6875 -29.15625 C -16.960938 -29 -17.035156 -28.714844 -16.890625 -27.839844 C -16.769531 -26.589844 -16.167969 -24.292969 -15.878906 -23.378906 C -15.566406 -22.839844 -15.515625 -22.75 -15.039062 -22.542969 C -14.523438 -22.480469 -14.378906 -22.445312 -13.980469 -22.792969 C -13.441406 -23.105469 -13.445312 -23.945312 -13.175781 -24.9375 C -13.113281 -25.453125 -13.066406 -26.203125 -12.976562 -26.253906 C -12.886719 -26.304688 -12.339844 -25.78125 -12.328125 -25.546875 C -12.222656 -25.367188 -10.617188 -23.414062 -9.621094 -23.144531 Z M -9.195312 -23.03125 "/></g></g></g><g fill="#fffbfa" fill-opacity="1"><g transform="translate(706.463296, 1054.374847)"><g><path d="M -12.199219 -25.742188 C -11.785156 -25.859375 -11.425781 -26.066406 -11.117188 -26.363281 L -10.847656 -26.519531 C -10.847656 -26.519531 -9.433594 -27.816406 -8.1875 -29.613281 L -4.402344 -34.917969 C -4.277344 -35.113281 -4.429688 -35.382812 -4.664062 -35.367188 L -4.804688 -35.40625 L -5.074219 -35.25 L -5.203125 -35.058594 C -8.183594 -31.058594 -10.261719 -28.417969 -11.277344 -27.472656 C -11.277344 -27.472656 -12.242188 -26.4375 -12.539062 -26.746094 C -13.367188 -27.351562 -13.308594 -28.703125 -13.167969 -29.503906 C -13.066406 -30.164062 -12.789062 -31.765625 -13.871094 -31.140625 C -14.050781 -31.035156 -14.375 -30.972656 -14.425781 -31.0625 C -14.722656 -31.371094 -14.941406 -31.125 -16.007812 -29.429688 C -16.941406 -27.929688 -18.03125 -25.859375 -18.59375 -24.335938 C -18.835938 -23.714844 -18.910156 -23.433594 -18.753906 -23.164062 C -18.496094 -22.710938 -18.171875 -22.777344 -17.632812 -23.089844 C -17.183594 -23.347656 -15.898438 -25.289062 -15.492188 -26.246094 C -15.132812 -27.292969 -14.324219 -28.597656 -14.273438 -28.507812 L -14.179688 -27.71875 C -14.203125 -27.347656 -14.085938 -26.933594 -13.929688 -26.664062 C -13.8125 -26.25 -13.65625 -25.980469 -13.179688 -25.777344 C -12.84375 -25.609375 -12.558594 -25.535156 -12.199219 -25.742188 Z M -17.921875 -24.003906 L -17.585938 -24.675781 C -17.359375 -25.527344 -16.488281 -27.351562 -15.628906 -28.566406 C -15.039062 -29.625 -14.859375 -29.730469 -14.753906 -29.550781 C -14.703125 -29.460938 -14.871094 -29.125 -15.089844 -28.878906 C -15.601562 -28.101562 -15.804688 -27.625 -15.882812 -27.339844 C -15.957031 -27.054688 -16.972656 -25.273438 -17.484375 -24.496094 Z M -17.921875 -24.003906 "/></g></g></g><g fill="#fffbfa" fill-opacity="1"><g transform="translate(719.528202, 1046.842697)"><g><path d="M -8.605469 -27.214844 L -6.871094 -28.574219 C -5.363281 -29.921875 -2.925781 -32.769531 -2.925781 -32.769531 L -1.976562 -34.035156 L -1.242188 -35.058594 L -0.859375 -35.640625 C -0.347656 -36.417969 -0.253906 -36.46875 0.308594 -37.15625 C 1.09375 -38.085938 1.4375 -38.527344 0.652344 -38.433594 C 0.421875 -38.417969 -0.105469 -37.875 -1.53125 -35.972656 C -2.570312 -34.652344 -4.046875 -32.84375 -4.792969 -32.050781 C -8.339844 -28.207031 -10.34375 -26.691406 -11.019531 -27.863281 C -11.320312 -28.171875 -11.398438 -28.726562 -11.132812 -29.71875 C -10.878906 -30.945312 -11.761719 -32.476562 -12.539062 -30.707031 C -12.617188 -30.421875 -12.964844 -29.984375 -13.21875 -29.59375 L -15.375 -26.671875 L -15.316406 -28.027344 C -15.359375 -28.722656 -15.359375 -28.722656 -15.835938 -28.925781 C -16.457031 -29.167969 -16.765625 -28.871094 -16.875 -27.605469 L -17.039062 -26.433594 C -16.960938 -25.878906 -17.058594 -24.382812 -17.210938 -23.8125 L -17.054688 -23.542969 C -17.078125 -23.167969 -16.601562 -22.964844 -16.242188 -23.171875 C -16.097656 -23.132812 -15.933594 -23.46875 -15.714844 -23.714844 C -15.214844 -24.722656 -13.304688 -27.867188 -12.664062 -28.835938 L -12.574219 -28.886719 L -12.546875 -28.421875 L -12.492188 -28.332031 L -12.515625 -27.960938 C -12.527344 -27.351562 -11.722656 -26.375 -11.207031 -26.3125 C -10.40625 -26.175781 -9.453125 -26.605469 -8.605469 -27.214844 Z M -8.605469 -27.214844 "/></g></g></g><g fill="#fffbfa" fill-opacity="1"><g transform="translate(737.999233, 1036.193819)"><g><path d="M -28.796875 19.601562 C -27.949219 18.992188 -26.597656 17.375 -25.664062 15.875 L -24.816406 14.425781 L -24.226562 13.367188 L -22.988281 10.730469 L -20.863281 5.664062 L -18.601562 -0.199219 C -17.59375 -2.824219 -16.167969 -7.847656 -15.714844 -10.390625 C -15.511719 -11.707031 -15.117188 -12.894531 -15.078125 -13.035156 C -15.015625 -13.550781 -13.425781 -15.789062 -12.023438 -17.316406 C -11.714844 -17.617188 -11.550781 -17.953125 -11.511719 -18.09375 C -11.472656 -18.234375 -11.382812 -18.289062 -11.292969 -18.339844 C -11.152344 -18.300781 -11.023438 -18.496094 -10.894531 -18.691406 C -10.855469 -18.832031 -10.546875 -19.128906 -10.421875 -19.324219 C -10.148438 -19.480469 -9.929688 -19.726562 -9.894531 -19.867188 C -9.804688 -19.917969 -9.546875 -20.308594 -9.058594 -20.710938 L -2.015625 -27.652344 C -1.707031 -27.949219 -1 -28.597656 -0.332031 -29.101562 C 0.648438 -29.90625 0.738281 -29.957031 0.710938 -29.582031 C 0.597656 -29.15625 0.792969 -29.03125 1.203125 -29.148438 C 1.527344 -29.210938 1.707031 -29.316406 2.089844 -29.898438 L 2.695312 -30.726562 C 2.785156 -30.777344 2.824219 -30.921875 2.898438 -31.203125 C 2.921875 -31.578125 2.535156 -31.835938 2.125 -31.71875 C 1.621094 -31.546875 0.375 -30.589844 -0.515625 -29.835938 L -2.238281 -28.242188 L -6.554688 -24.074219 C -8.097656 -22.582031 -9.371094 -21.25 -11.335938 -19.035156 L -12.992188 -17.121094 L -14.007812 -16.175781 L -14.789062 -15.242188 C -15.046875 -14.855469 -13.121094 -24.007812 -12.957031 -25.183594 L -12.671875 -27.390625 L -12.5625 -29.496094 C -12.5 -30.011719 -12.527344 -30.476562 -12.578125 -30.566406 C -12.632812 -30.65625 -12.824219 -30.785156 -12.980469 -31.054688 C -13.394531 -31.773438 -14.363281 -31.578125 -15.328125 -30.542969 C -15.855469 -29.996094 -16.789062 -28.496094 -17.121094 -27.824219 L -17.570312 -26.726562 C -17.609375 -26.585938 -17.789062 -26.480469 -17.917969 -26.289062 L -18.070312 -25.71875 C -18.273438 -25.242188 -17.910156 -24.609375 -17.484375 -24.496094 C -17.199219 -24.417969 -15.886719 -25.054688 -15.71875 -25.394531 L -14.078125 -27.539062 C -13.730469 -27.980469 -15.589844 -18.503906 -15.980469 -15.640625 C -16.253906 -13.199219 -16.765625 -12.421875 -17.292969 -11.878906 C -17.601562 -11.582031 -18.039062 -11.089844 -18.113281 -10.804688 C -18.332031 -10.558594 -18.5 -10.222656 -18.589844 -10.171875 C -18.820312 -10.15625 -22.375 -4.867188 -23.273438 -3.511719 C -23.605469 -2.839844 -23.953125 -2.398438 -24.042969 -2.347656 C -24.132812 -2.292969 -24.171875 -2.152344 -24.171875 -2.152344 C -24.117188 -2.0625 -24.285156 -1.726562 -24.503906 -1.480469 C -24.722656 -1.234375 -25.183594 -0.367188 -25.554688 0.445312 L -26.4375 2.035156 C -26.734375 2.566406 -27.769531 4.726562 -28.371094 6.390625 C -29.394531 8.78125 -30.800781 14.875 -30.578125 15.46875 C -30.527344 15.558594 -30.515625 15.792969 -30.550781 15.933594 L -30.640625 15.984375 C -30.667969 16.359375 -30.691406 16.734375 -30.765625 17.015625 C -30.597656 17.519531 -30.570312 17.984375 -30.632812 18.5 L -30.359375 19.183594 C -29.980469 20.046875 -29.644531 20.210938 -28.796875 19.601562 Z M -16.765625 -25.75 C -17.035156 -25.59375 -17.035156 -25.59375 -16.921875 -26.019531 C -16.769531 -26.589844 -16.105469 -27.933594 -15.410156 -28.8125 C -14.898438 -29.589844 -14.046875 -30.199219 -13.890625 -29.929688 C -13.632812 -29.476562 -15.863281 -26.269531 -16.765625 -25.75 Z M -29.390625 18.984375 C -29.625 19 -29.808594 18.265625 -29.914062 17.246094 C -29.9375 14.5 -29.710938 12.808594 -28.949219 9.96875 C -28.210938 7.5 -28.007812 7.023438 -26.90625 4.347656 C -26.332031 3.054688 -23.988281 -1.417969 -23.808594 -1.519531 L -23.257812 -2.441406 C -23.050781 -2.917969 -22.242188 -4.222656 -21.472656 -5.386719 C -20.742188 -6.410156 -20.101562 -7.378906 -20.152344 -7.46875 C -20.117188 -7.613281 -20.023438 -7.664062 -19.84375 -7.769531 L -19.535156 -8.066406 C -19.589844 -8.15625 -19.242188 -8.59375 -18.984375 -8.984375 L -18.074219 -10.109375 C -17.378906 -10.988281 -17.289062 -11.042969 -17.1875 -10.859375 C -17.132812 -10.769531 -17.171875 -10.628906 -17.171875 -10.628906 C -17.261719 -10.578125 -17.300781 -10.433594 -17.300781 -10.433594 C -17.042969 -9.984375 -18.46875 -4.960938 -20.355469 0.929688 L -21.617188 4.777344 C -21.769531 5.347656 -22.011719 5.96875 -22.179688 6.304688 L -22.585938 7.257812 C -22.90625 8.164062 -24.683594 11.949219 -24.863281 12.054688 C -24.953125 12.105469 -24.992188 12.246094 -24.941406 12.339844 C -24.980469 12.480469 -25.015625 12.621094 -25.109375 12.675781 C -25.199219 12.726562 -25.492188 13.257812 -25.824219 13.929688 C -26.695312 15.75 -27.425781 16.773438 -28.339844 17.898438 Z M -29.390625 18.984375 "/></g></g></g><g fill="#fffbfa" fill-opacity="1"><g transform="translate(749.892821, 1029.336954)"><g><path d="M -14.085938 -33.179688 C -13.777344 -33.476562 -13.78125 -34.3125 -14.078125 -34.621094 C -14.183594 -34.804688 -14.464844 -34.878906 -14.609375 -34.917969 C -15.125 -34.980469 -15.382812 -34.59375 -15.160156 -34 C -15.003906 -33.730469 -14.988281 -33.496094 -15.027344 -33.355469 C -15.195312 -33.019531 -14.34375 -32.789062 -14.085938 -33.179688 Z M -15.480469 -23.730469 C -14.542969 -24.390625 -13.140625 -25.917969 -12.0625 -27.378906 L -9.136719 -31.46875 L -8.316406 -32.542969 C -8.148438 -32.878906 -8.304688 -33.148438 -8.539062 -33.132812 L -8.769531 -33.121094 L -8.949219 -33.015625 L -9.078125 -32.824219 C -12.054688 -28.824219 -14.136719 -26.1875 -15.242188 -25.1875 C -15.242188 -25.1875 -15.808594 -24.503906 -16.269531 -24.476562 C -16.480469 -24.835938 -16.597656 -25.246094 -16.535156 -25.765625 L -15.730469 -27.910156 C -15.167969 -29.433594 -15.15625 -30.039062 -15.710938 -29.960938 C -15.945312 -29.945312 -16.507812 -29.261719 -16.878906 -28.445312 C -17.722656 -26.160156 -17.921875 -24.84375 -17.402344 -23.941406 L -17.25 -23.671875 C -16.9375 -23.128906 -16.332031 -23.121094 -15.480469 -23.730469 Z M -15.480469 -23.730469 "/></g></g></g><g fill="#fffbfa" fill-opacity="1"><g transform="translate(758.993252, 1024.090394)"><g><path d="M -13.429688 -23.710938 C -12.898438 -23.417969 -12.628906 -23.574219 -12.492188 -24.371094 C -12.3125 -25.316406 -12.574219 -25.765625 -13.074219 -25.597656 C -13.488281 -25.480469 -13.667969 -25.375 -13.796875 -25.179688 C -14.234375 -24.6875 -14.101562 -24.042969 -13.429688 -23.710938 Z M -13.429688 -23.710938 "/></g></g></g><g fill="#fffbfa" fill-opacity="1"><g transform="translate(771.157144, 1017.077693)"><g><path d="M -14.085938 -33.179688 C -13.777344 -33.476562 -13.78125 -34.3125 -14.078125 -34.621094 C -14.183594 -34.804688 -14.464844 -34.878906 -14.609375 -34.917969 C -15.125 -34.980469 -15.382812 -34.59375 -15.160156 -34 C -15.003906 -33.730469 -14.988281 -33.496094 -15.027344 -33.355469 C -15.195312 -33.019531 -14.34375 -32.789062 -14.085938 -33.179688 Z M -15.480469 -23.730469 C -14.542969 -24.390625 -13.140625 -25.917969 -12.0625 -27.378906 L -9.136719 -31.46875 L -8.316406 -32.542969 C -8.148438 -32.878906 -8.304688 -33.148438 -8.539062 -33.132812 L -8.769531 -33.121094 L -8.949219 -33.015625 L -9.078125 -32.824219 C -12.054688 -28.824219 -14.136719 -26.1875 -15.242188 -25.1875 C -15.242188 -25.1875 -15.808594 -24.503906 -16.269531 -24.476562 C -16.480469 -24.835938 -16.597656 -25.246094 -16.535156 -25.765625 L -15.730469 -27.910156 C -15.167969 -29.433594 -15.15625 -30.039062 -15.710938 -29.960938 C -15.945312 -29.945312 -16.507812 -29.261719 -16.878906 -28.445312 C -17.722656 -26.160156 -17.921875 -24.84375 -17.402344 -23.941406 L -17.25 -23.671875 C -16.9375 -23.128906 -16.332031 -23.121094 -15.480469 -23.730469 Z M -15.480469 -23.730469 "/></g></g></g><g fill="#fffbfa" fill-opacity="1"><g transform="translate(780.257575, 1011.831133)"><g><path d="M -15.210938 -23.886719 C -13.949219 -24.613281 -12.835938 -27.054688 -12.800781 -28.035156 L -12.582031 -28.28125 C -11.578125 -28.621094 -10.445312 -29.152344 -9.273438 -29.828125 C -8.011719 -30.554688 -5.335938 -32.578125 -3.910156 -34.480469 L -3.308594 -35.308594 C -3.179688 -35.503906 -3.195312 -35.734375 -3.386719 -35.863281 C -3.582031 -35.992188 -3.851562 -35.835938 -3.890625 -35.695312 C -5.1875 -33.984375 -6.753906 -32.121094 -9.816406 -30.355469 C -10.539062 -29.941406 -11.3125 -29.613281 -11.957031 -29.484375 C -12.1875 -29.46875 -12.421875 -29.457031 -12.832031 -29.339844 L -13.300781 -30.148438 C -13.351562 -30.238281 -13.457031 -30.417969 -13.597656 -30.457031 C -13.792969 -30.585938 -14.164062 -30.609375 -14.4375 -30.453125 L -15.660156 -29.871094 L -15.890625 -29.855469 L -16.457031 -29.167969 L -17.105469 -26.753906 C -17.21875 -26.328125 -17.222656 -24.046875 -16.359375 -23.585938 C -15.878906 -23.378906 -15.878906 -23.378906 -15.210938 -23.886719 Z M -14.351562 -29.0625 C -14.585938 -29.046875 -14.726562 -29.085938 -14.546875 -29.191406 C -14.457031 -29.242188 -14.316406 -29.203125 -14.226562 -29.253906 C -14.171875 -29.164062 -14.121094 -29.074219 -14.351562 -29.0625 Z M -15.40625 -24.851562 C -15.5 -24.800781 -16.117188 -25.042969 -15.929688 -26.589844 C -15.804688 -27.625 -15.585938 -27.871094 -15.316406 -28.027344 L -14.800781 -27.964844 L -14.105469 -28.003906 C -13.960938 -27.964844 -13.550781 -28.085938 -14.148438 -26.417969 C -14.546875 -25.230469 -15.316406 -24.902344 -15.40625 -24.851562 Z M -15.40625 -24.851562 "/></g></g></g></svg>